<!DOCTYPE svg PUBLIC "-//W3C//DTD SVG 1.1//EN" "http://www.w3.org/Graphics/SVG/1.1/DTD/svg11.dtd">
<!-- Uploaded to: SVG Repo, www.svgrepo.com, Transformed by: SVG Repo Mixer Tools -->
<svg fill="#ffffff" version="1.1" id="Capa_1" xmlns="http://www.w3.org/2000/svg" xmlns:xlink="http://www.w3.org/1999/xlink" width="256px" height="256px" viewBox="-12.3 -12.3 147.60 147.60" xml:space="preserve" stroke="#ffffff" stroke-width="0.00123">
<g id="SVGRepo_bgCarrier" stroke-width="0"/>
<g id="SVGRepo_tracerCarrier" stroke-linecap="round" stroke-linejoin="round" stroke="#CCCCCC" stroke-width="2.46"> <g> <path d="M121,21.982H2c-1.104,0-2,0.896-2,2v75.035c0,1.104,0.896,2,2,2h119c1.104,0,2-0.896,2-2V23.982 C123,22.879,122.104,21.982,121,21.982z M7.166,33.418h39.113v4.834H7.166V33.418z M14.791,86.31h-2.086v6.674h-2.314V86.31H8.299 v-1.894h6.492V86.31z M18.137,92.982h-2.326v-8.566h2.326V92.982z M23.729,91.207c0.379,0,0.746-0.053,1.102-0.158 c0.356-0.104,0.713-0.231,1.072-0.381v1.957c-0.715,0.316-1.523,0.476-2.426,0.476c-1.293,0-2.285-0.375-2.975-1.125 s-1.033-1.834-1.033-3.252c0-0.888,0.166-1.666,0.5-2.339c0.334-0.672,0.814-1.188,1.441-1.549c0.627-0.36,1.365-0.543,2.213-0.543 c0.926,0,1.811,0.201,2.654,0.604l-0.709,1.821c-0.316-0.147-0.633-0.272-0.949-0.375c-0.316-0.102-0.656-0.151-1.02-0.151 c-0.551,0-0.98,0.228-1.289,0.679c-0.309,0.45-0.463,1.071-0.463,1.864C21.848,90.383,22.475,91.207,23.729,91.207z M34.687,92.982 h-2.613l-1.693-3.275l-0.686,0.41v2.865h-2.326v-8.566h2.326v3.722c0.117-0.229,0.354-0.597,0.709-1.097l1.799-2.625h2.531 l-2.701,3.838L34.687,92.982z M40.494,86.273h-2.771v1.348h2.566v1.857h-2.566v1.617h2.771v1.887h-5.086v-8.566h5.086V86.273z M47.655,86.31h-2.086v6.674h-2.314V86.31h-2.092v-1.894h6.492V86.31z M62.334,65.084H7.166V60.25h55.168V65.084z M62.334,51.334 H7.166V46.5h55.168V51.334z M115.414,68.976L97.484,64.4l-0.424,13.551c-0.037,0.221-0.024,1.014-0.024,1.014 s0.251,0.229,0.468,0.396l2.811,2.172l0.549,4.279c-0.059-0.008-0.118-0.016-0.182-0.037l-4.162-1.25 c-0.522-0.182-0.617-0.561-0.606-0.812c-0.079,0.229-0.248,0.647-0.599,1.344c0,0-0.961,2.293-1.808,2.293h-0.014 c-0.834,0-1.808-2.293-1.808-2.293c-0.351-0.697-0.52-1.113-0.599-1.344c0.011,0.252-0.084,0.631-0.606,0.812l-4.162,1.25 c-0.062,0.021-0.123,0.029-0.182,0.037l0.549-4.279l2.811-2.172c0.217-0.168,0.469-0.396,0.469-0.396s0.012-0.793-0.025-1.014 L89.516,64.4l-17.93,4.574c-0.482,0.123-0.822-0.178-0.761-0.67l0.522-4.143c0.063-0.496,0.483-1.058,0.938-1.261l17.271-7.609 l0.383-13.49c0.074-2.49,1.021-5.057,2.111-5.734c0.416-0.26,0.922-0.391,1.441-0.418h0.014c0.521,0.027,1.025,0.158,1.441,0.418 c1.092,0.678,2.037,3.244,2.111,5.734l0.383,13.49l17.271,7.609c0.455,0.203,0.875,0.765,0.938,1.261l0.523,4.143 C116.236,68.797,115.896,69.099,115.414,68.976z"/> </g> </g>
<g id="SVGRepo_iconCarrier"> <g> <path d="M121,21.982H2c-1.104,0-2,0.896-2,2v75.035c0,1.104,0.896,2,2,2h119c1.104,0,2-0.896,2-2V23.982 C123,22.879,122.104,21.982,121,21.982z M7.166,33.418h39.113v4.834H7.166V33.418z M14.791,86.31h-2.086v6.674h-2.314V86.31H8.299 v-1.894h6.492V86.31z M18.137,92.982h-2.326v-8.566h2.326V92.982z M23.729,91.207c0.379,0,0.746-0.053,1.102-0.158 c0.356-0.104,0.713-0.231,1.072-0.381v1.957c-0.715,0.316-1.523,0.476-2.426,0.476c-1.293,0-2.285-0.375-2.975-1.125 s-1.033-1.834-1.033-3.252c0-0.888,0.166-1.666,0.5-2.339c0.334-0.672,0.814-1.188,1.441-1.549c0.627-0.36,1.365-0.543,2.213-0.543 c0.926,0,1.811,0.201,2.654,0.604l-0.709,1.821c-0.316-0.147-0.633-0.272-0.949-0.375c-0.316-0.102-0.656-0.151-1.02-0.151 c-0.551,0-0.98,0.228-1.289,0.679c-0.309,0.45-0.463,1.071-0.463,1.864C21.848,90.383,22.475,91.207,23.729,91.207z M34.687,92.982 h-2.613l-1.693-3.275l-0.686,0.41v2.865h-2.326v-8.566h2.326v3.722c0.117-0.229,0.354-0.597,0.709-1.097l1.799-2.625h2.531 l-2.701,3.838L34.687,92.982z M40.494,86.273h-2.771v1.348h2.566v1.857h-2.566v1.617h2.771v1.887h-5.086v-8.566h5.086V86.273z M47.655,86.31h-2.086v6.674h-2.314V86.31h-2.092v-1.894h6.492V86.31z M62.334,65.084H7.166V60.25h55.168V65.084z M62.334,51.334 H7.166V46.5h55.168V51.334z M115.414,68.976L97.484,64.4l-0.424,13.551c-0.037,0.221-0.024,1.014-0.024,1.014 s0.251,0.229,0.468,0.396l2.811,2.172l0.549,4.279c-0.059-0.008-0.118-0.016-0.182-0.037l-4.162-1.25 c-0.522-0.182-0.617-0.561-0.606-0.812c-0.079,0.229-0.248,0.647-0.599,1.344c0,0-0.961,2.293-1.808,2.293h-0.014 c-0.834,0-1.808-2.293-1.808-2.293c-0.351-0.697-0.52-1.113-0.599-1.344c0.011,0.252-0.084,0.631-0.606,0.812l-4.162,1.25 c-0.062,0.021-0.123,0.029-0.182,0.037l0.549-4.279l2.811-2.172c0.217-0.168,0.469-0.396,0.469-0.396s0.012-0.793-0.025-1.014 L89.516,64.4l-17.93,4.574c-0.482,0.123-0.822-0.178-0.761-0.67l0.522-4.143c0.063-0.496,0.483-1.058,0.938-1.261l17.271-7.609 l0.383-13.49c0.074-2.49,1.021-5.057,2.111-5.734c0.416-0.26,0.922-0.391,1.441-0.418h0.014c0.521,0.027,1.025,0.158,1.441,0.418 c1.092,0.678,2.037,3.244,2.111,5.734l0.383,13.49l17.271,7.609c0.455,0.203,0.875,0.765,0.938,1.261l0.523,4.143 C116.236,68.797,115.896,69.099,115.414,68.976z"/> </g> </g>
</svg>