<?xml version="1.0" encoding="UTF-8"?>
<svg id="Layer_2" data-name="Layer 2" xmlns="http://www.w3.org/2000/svg" viewBox="0 0 532.58 439.23">
  <defs>
    <style>
      .cls-1 {
        fill: #000;
        stroke-width: 0px;
      }
    </style>
  </defs>
  <g id="Layer_2-2" data-name="Layer 2">
    <g>
      <g>
        <path class="cls-1" d="M482.47,206.78c-2.15,6.38-3.02,11.7-2.58,15.8.23,2.19.75,3.6,1.55,4.19.12-.07.27-.17.44-.29,1.65-1.19,3.43-3.02,5.27-5.44,1.26-1.66,2.51-3.53,3.73-5.58,0-.19,0-.37,0-.56-.11-8.27-.69-16.46-1.71-24.56-2.32,4.36-4.56,9.85-6.66,16.37l-.02.07Z"/>
        <path class="cls-1" d="M491.17,214.89c-.11-8.14-.69-16.41-1.71-24.6l-.12-.93-.44.83c-2.33,4.37-4.58,9.9-6.68,16.42l-.02.07c-2.16,6.42-3.04,11.78-2.6,15.92.24,2.31.79,3.75,1.66,4.4l.16.12.17-.1c.13-.08.28-.17.46-.3,1.68-1.2,3.47-3.05,5.34-5.5,1.26-1.66,2.52-3.55,3.75-5.61l.04-.07v-.65ZM481.46,226.4c-.64-.61-1.07-1.91-1.28-3.86-.43-4.06.43-9.33,2.57-15.67l.02-.08c1.96-6.07,4.05-11.27,6.2-15.48.95,7.85,1.49,15.78,1.59,23.58v.48c-1.2,2.01-2.43,3.86-3.67,5.48-1.83,2.4-3.58,4.21-5.21,5.38-.09.06-.17.12-.24.16Z"/>
      </g>
      <g>
        <path class="cls-1" d="M263.4,418.07c-.33-.32-.67-.55-1.21-.59-.48-.04-.91.07-1.32.38-.99.73-1.49,2.38-1.59,3.65-.12,1.47.14,2.98.97,3.83.36.38.76.56,1.24.6.54.04.91-.13,1.29-.39,1.34-.96,1.54-3.07,1.59-3.62.12-1.47-.14-3-.97-3.86ZM263.4,418.07c-.33-.32-.67-.55-1.21-.59-.48-.04-.91.07-1.32.38-.99.73-1.49,2.38-1.59,3.65-.12,1.47.14,2.98.97,3.83.36.38.76.56,1.24.6.54.04.91-.13,1.29-.39,1.34-.96,1.54-3.07,1.59-3.62.12-1.47-.14-3-.97-3.86ZM345.88,420.31l-7.09-20.25c-.81-2.3-3.35-3.54-5.67-2.77-19.3,6.45-39.51,9.72-60.07,9.72s-40.32-3.17-59.4-9.43c-2.31-.76-4.84.5-5.63,2.81l-6.97,20.29c-.39,1.14-.31,2.37.23,3.46.53,1.08,1.46,1.88,2.6,2.26,22.23,7.33,45.5,11.04,69.17,11.04s47.53-3.83,70.04-11.4c1.14-.38,2.06-1.19,2.58-2.27.53-1.09.61-2.32.21-3.46ZM322.51,426.28l-6.64,1.63-.69-3.8-9.75,2.61-1.21-4.92,5.39-12.24,8.29-2.04,2.48,10.1,2.39-.77,1.3,5.29-2.66.44,1.09,3.7ZM289.39,419.32c-.02-.4-.19-.77-.53-1.04-.35-.3-.77-.39-1.22-.37-.72.04-1.08.41-1.25.65-.31.42-.41,1.33-.38,1.88l-7.04.38c-.18-2.28.54-4.41,1.63-5.72,1.49-1.76,4.13-2.78,6.93-2.93,2.98-.16,5.36.7,6.9,2.06.91.82,1.97,2.18,2.09,4.3.1,1.85-.41,3.45-1.83,4.88-1.44,1.5-3.6,2.49-4.77,2.96v.2c1.31-.33,2.79-.64,4.19-.78l3.03-.31.32,5.93-19.71,1.07,7.79-7.47c.91-.86,1.59-1.51,2.66-2.87.59-.76,1.25-1.75,1.19-2.82ZM238.5,414.67c-.26-.38-.65-.57-1.09-.66-.7-.14-1.15.13-1.37.32-.4.33-.72,1.19-.83,1.73l-6.92-1.36c.38-2.26,1.6-4.14,2.98-5.14,1.88-1.34,4.68-1.68,7.44-1.14,2.93.57,5.03,1.99,6.18,3.69.68,1.02,1.38,2.6.97,4.68-.36,1.82-1.24,3.24-2.97,4.29-1.77,1.1-4.1,1.53-5.35,1.7l-.04.2c1.34,0,2.85.06,4.24.27l3.02.44-1.14,5.83-19.37-3.8,9.38-5.33c1.1-.61,1.92-1.07,3.28-2.13.75-.59,1.64-1.39,1.85-2.44.08-.4,0-.8-.26-1.14ZM271.27,422.58c-.17,2.02-.98,5.33-3.55,7.41-1.61,1.29-3.83,2.12-6.72,1.88-2.89-.24-4.95-1.43-6.32-2.96-2.19-2.48-2.45-5.87-2.28-7.89.17-1.99.98-5.3,3.55-7.38,1.61-1.29,3.83-2.12,6.72-1.88,2.89.24,4.94,1.43,6.32,2.96,2.19,2.48,2.45,5.87,2.29,7.86ZM313.23,414.78l-.2-.07c-.14.66-.35,1.1-.55,1.54l-1.27,2.73c-.18.4-.25.63-.62,1.11l.09.13c.52-.28.97-.45,1.55-.59l1.77-.43-.66-2.7c-.13-.53-.15-1.13-.11-1.7ZM262.19,417.47c-.48-.04-.91.07-1.32.38-.99.73-1.49,2.38-1.59,3.65-.12,1.47.14,2.98.97,3.83.36.38.76.56,1.24.6.54.04.91-.13,1.29-.39,1.34-.96,1.54-3.07,1.59-3.62.12-1.47-.14-3-.97-3.86-.33-.32-.67-.55-1.21-.59ZM263.4,418.07c-.33-.32-.67-.55-1.21-.59-.48-.04-.91.07-1.32.38-.99.73-1.49,2.38-1.59,3.65-.12,1.47.14,2.98.97,3.83.36.38.76.56,1.24.6.54.04.91-.13,1.29-.39,1.34-.96,1.54-3.07,1.59-3.62.12-1.47-.14-3-.97-3.86ZM263.4,418.07c-.33-.32-.67-.55-1.21-.59-.48-.04-.91.07-1.32.38-.99.73-1.49,2.38-1.59,3.65-.12,1.47.14,2.98.97,3.83.36.38.76.56,1.24.6.54.04.91-.13,1.29-.39,1.34-.96,1.54-3.07,1.59-3.62.12-1.47-.14-3-.97-3.86Z"/>
        <path class="cls-1" d="M347.57,419.72l-7.09-20.25c-1.13-3.22-4.68-4.95-7.93-3.87-19.12,6.39-39.13,9.63-59.5,9.63s-39.95-3.14-58.84-9.34c-3.23-1.06-6.77.7-7.88,3.93l-6.97,20.29c-.55,1.6-.44,3.32.32,4.84.75,1.51,2.04,2.63,3.64,3.16,22.41,7.39,45.87,11.13,69.73,11.13s47.91-3.87,70.61-11.49c1.59-.54,2.88-1.67,3.62-3.18.74-1.52.85-3.24.29-4.84ZM344.07,422.99c-.32.65-.87,1.13-1.55,1.36-22.33,7.5-45.7,11.3-69.47,11.3s-46.56-3.68-68.61-10.95c-.68-.23-1.23-.7-1.56-1.35-.32-.65-.37-1.39-.14-2.08l6.97-20.29c.38-1.12,1.44-1.83,2.56-1.83.27,0,.55.04.82.13,19.26,6.32,39.43,9.52,59.95,9.52s41.15-3.3,60.63-9.81c1.4-.47,2.94.28,3.42,1.66l7.09,20.25c.24.69.2,1.43-.12,2.08Z"/>
      </g>
      <path class="cls-1" d="M514.72,179.78c-.67-3.01-1.96-5.23-3.87-6.66-1.91-1.43-4.4-1.73-7.46-.9,1.43.58,2.5,3.54,3.23,8.88.72,5.34-.4,12.49-3.39,21.46-1.31,4.08-2.98,8.05-5,11.92-2.02,3.87-4.13,7.26-6.34,10.16-2.21,2.91-4.39,5.14-6.54,6.68-2.15,1.55-4.03,1.96-5.62,1.25-3.32-1.25-5.25-4.38-5.78-9.37-.53-4.99.42-11.1,2.86-18.34,2.74-8.48,5.68-15.28,8.83-20.42,3.15-5.13,6.3-8.99,9.46-11.56,3.16-2.57,6.27-3.93,9.35-4.08,3.07-.15,5.84.54,8.28,2.05-.24-1.93-1.12-3.6-2.64-5-1.53-1.4-3.08-2.38-4.66-2.94-3.6-1.07-7.46-.9-11.59.5-4.13,1.41-8.33,4.11-12.59,8.09-4.27,3.99-8.41,9.28-12.44,15.88-4.03,6.6-7.66,14.55-10.9,23.84-.17.46-.32.92-.47,1.37-2.31,5.62-5.25,10.6-8.86,14.92-4.34,5.2-9.13,9.93-14.34,14.19,2.65-8.01,5.38-16.19,8.22-24.53,2.83-8.34,5.41-15.97,7.74-22.89,2.79-8.03,5.46-15.9,7.99-23.6l-18.28,2.22-.65,2.12c-1.41-1.64-2.98-2.81-4.72-3.5-2.97-.84-6.23-.67-9.78.51-3.55,1.19-7.22,3.59-11,7.22-3.78,3.63-7.55,8.58-11.32,14.84-3.76,6.27-7.27,14.05-10.51,23.34-.72,2.02-1.35,3.98-1.9,5.9-2.15,5.98-4.29,10.95-6.43,14.91-2.83,5.25-5.73,8.05-8.71,8.41-1.93.24-2.76-.98-2.48-3.66.28-2.67,1.36-6.76,3.26-12.28l8.5-26.83c1.01-2.84.76-5.56-.77-8.17-1.52-2.6-3.93-4.46-7.24-5.57-.78-.21-1.64-.48-2.59-.82s-1.72-.77-2.31-1.3c-.6-.53-.87-1.25-.83-2.16.04-.91.58-2.03,1.63-3.37,2.61-3.33,3.68-6.29,3.22-8.87-.47-2.58-1.67-4.44-3.62-5.56-1.95-1.12-4.22-1.26-6.84-.41-2.61.85-4.69,3.02-6.22,6.53-1.42,3.19-1.92,6.27-1.48,9.23.43,2.97,1.4,5.64,2.9,8.02l-11.06,32.77c-1.87,4.21-4.25,8.17-7.15,11.87-3.33,4.25-6.85,7.85-10.57,10.79-3.71,2.94-7.46,5.06-11.22,6.34-3.77,1.29-6.91,1.48-9.43.58-3.14-.98-5.12-3.34-5.95-7.08-.83-3.75-.88-8.15-.14-13.22,1.66,2.51,3.99,4,6.99,4.47,3,.47,6.29-.01,9.89-1.43,3.6-1.42,7.19-3.81,10.78-7.19,3.58-3.38,6.72-7.64,9.42-12.8,1.96-3.71,3.21-7.37,3.76-10.98.54-3.61.56-6.89.05-9.85-.51-2.95-1.54-5.5-3.08-7.66-1.55-2.15-3.5-3.68-5.88-4.6-2.84-1.01-6.3-.97-10.39.13-4.09,1.1-8.33,3.43-12.73,6.98-4.4,3.55-8.74,8.46-13.03,14.71-4.29,6.26-8.06,14.03-11.31,23.32-.35,1.02-.67,2.03-.96,3.03-1.3,3.7-2.84,7.22-4.63,10.54-2.1,3.88-4.26,7.19-6.48,9.95-2.23,2.76-4.31,4.86-6.25,6.3-1.94,1.44-3.39,1.92-4.35,1.43-.78-.2-1.4-.99-1.87-2.37-.47-1.37-.64-3.43-.52-6.16.12-2.73.63-6.26,1.54-10.6.9-4.33,2.25-9.7,4.04-16.1,10.97-15.21,20.08-29.33,27.32-42.35,7.24-13.02,12.72-24.43,16.43-34.24,3.71-9.8,5.6-17.8,5.68-24,.08-6.19-1.56-10.07-4.92-11.62-3.67-1.66-7.54-.85-11.58,2.43-4.05,3.29-8.27,8.62-12.65,16.02-4.38,7.4-8.94,16.7-13.69,27.91-4.75,11.21-9.65,23.91-14.71,38.1-.96-1.69-2.54-2.93-4.75-3.72-2.97-.85-6.23-.67-9.78.51-3.55,1.19-7.22,3.59-11,7.22-3.78,3.63-7.56,8.58-11.32,14.84-3.76,6.27-7.34,14.05-10.74,23.37-.65,1.83-1.23,3.61-1.74,5.35-2.32,6.29-4.79,11.59-7.44,15.91-3.4,5.54-6.59,8.49-9.56,8.86-.89.11-1.37-.4-1.43-1.52-.06-1.12.49-3.4,1.65-6.86,1.16-3.45,3.03-8.29,5.59-14.55,2.56-6.25,5.94-14.44,10.14-24.57,1.29-3.01,1.97-5.8,2.04-8.37.06-2.56-.31-4.73-1.13-6.51-.82-1.78-2-3.1-3.54-3.97-1.54-.87-3.28-1.18-5.21-.95-4.01.49-8.34,2.75-12.98,6.78-4.64,4.04-9.38,9.67-14.24,16.89l7.15-21.23-18.06,2.2-27.92,83.04,18.51-2.25,4.48-13.44c2.74-7.27,5.8-14.35,9.18-21.25,3.38-6.89,6.68-12.99,9.88-18.28,3.2-5.29,6.15-9.57,8.85-12.84,2.69-3.27,4.71-4.99,6.05-5.15,1.63-.2,1.94,1.39.92,4.75-1.03,3.37-2.88,7.63-5.57,12.78-4.98,9.96-8.45,18.26-10.43,24.91-1.98,6.65-2.78,11.92-2.38,15.79.39,3.88,1.7,6.51,3.9,7.9,2.21,1.39,5.01,1.88,8.44,1.46,6.83-.83,12.69-4.75,17.58-11.75,1.09-1.57,2.16-3.27,3.21-5.1.88,5.96,3.17,9.86,6.87,11.68,2.56,1.2,5.24,1.51,8.03.95,2.8-.57,5.55-1.81,8.26-3.72,2.71-1.91,5.35-4.38,7.92-7.41,2.57-3.03,4.99-6.41,7.25-10.16.33,5.24,1.47,9.02,3.42,11.35,1.94,2.33,4.22,3.71,6.84,4.15,5.86,1.1,12.11-1.47,18.75-7.71,3.3-3.11,6.4-7.29,9.29-12.56.04.22.08.45.12.66.74,3.61,1.98,6.66,3.72,9.16,1.74,2.5,3.88,4.36,6.44,5.55,4.8,2.28,9.99,2.75,15.56,1.39,5.57-1.36,11.05-4.02,16.45-8,5.4-3.97,10.45-9,15.14-15.08,4.18-5.42,7.75-11.39,10.72-17.93,3.72-10.94,7.44-21.88,11.16-32.82,1.48,1.03,2.35,2.32,2.62,3.87.26,1.55.05,3.2-.64,4.94-.94,2.23-1.78,4.26-2.54,6.08-.76,1.83-1.55,3.73-2.36,5.72-.82,1.99-1.67,4.24-2.57,6.76-.9,2.52-1.9,5.51-2.98,8.96-3.28,10.21-3.98,17.83-2.08,22.88,1.9,5.05,5.97,7.19,12.21,6.44,6.69-.81,12.47-4.72,17.35-11.73,1.05-1.51,2.08-3.15,3.1-4.9.84,5.87,3.1,9.7,6.76,11.51,3.52,1.68,7.15,1.73,10.88.15,3.73-1.58,7.33-4.17,10.82-7.76l-2.64,6.2c-4.21,2.62-8.28,5.12-12.21,7.48-3.93,2.36-7.56,4.84-10.86,7.43-3.31,2.59-6.15,5.23-8.54,7.94-2.39,2.7-4.13,5.71-5.24,9.01-1.33,3.93-1.4,7.37-.22,10.32,1.19,2.95,3.4,5.28,6.62,7,4.17,2.06,8.44,2.14,12.81.25,4.37-1.89,8.61-5.2,12.71-9.92,4.1-4.72,7.99-10.59,11.66-17.6,3.67-7.01,6.89-14.68,9.65-23.01l.31-1.17c7.78-5.47,14.9-11.46,21.34-17.98,1.08-1.1,2.11-2.21,3.08-3.35.15,1.31.39,2.58.71,3.8,1.8,6.72,5.21,10.91,10.24,12.56,4.86,1.52,9.61,1.17,14.24-1.05,4.63-2.22,9.02-5.55,13.16-9.97,4.14-4.42,7.85-9.59,11.13-15.49,3.28-5.9,5.91-11.84,7.9-17.82,1.69-4.73,2.72-9.23,3.11-13.5.39-4.27.24-7.91-.42-10.92ZM307.43,222.3c1.31-4.08,3.08-8.14,5.31-12.19,2.22-4.04,4.58-7.57,7.09-10.59,2.5-3.02,5.01-5.28,7.54-6.8,2.53-1.51,4.76-1.78,6.69-.81,1.28.6,1.55,2.79.8,6.58-.75,3.79-2.8,8-6.16,12.63-2.6,3.48-5.22,6.4-7.87,8.76-2.65,2.36-5.05,4.09-7.18,5.17-2.13,1.09-3.82,1.45-5.07,1.07-1.25-.38-1.63-1.65-1.14-3.82ZM289.24,170.32c3.53-8.8,6.66-16.2,9.41-22.19,2.74-5.99,5.06-10.49,6.96-13.52,1.9-3.02,3.24-4.35,4.04-4,.98.64.78,3.04-.6,7.2-1.38,4.17-3.53,9.48-6.43,15.94-2.91,6.46-6.52,13.73-10.81,21.79-4.3,8.07-8.95,16.33-13.96,24.77,4.07-11.2,7.86-21.21,11.4-30.01ZM256.4,211.99c-2.44,7.24-4.34,13.95-5.7,20.15-1.31,4.08-2.9,8.12-4.75,12.12-1.86,4-3.73,7.47-5.64,10.41-1.9,2.95-3.73,5.28-5.48,7-1.75,1.72-3.19,2.35-4.3,1.88-1.1-.32-1.84-1.43-2.22-3.35-.39-1.91-.45-4.32-.2-7.22.25-2.89.77-6.09,1.55-9.58.78-3.49,1.78-7.04,3-10.66,1.31-4.08,2.93-8.12,4.86-12.13,1.92-4,3.88-7.49,5.86-10.44,1.98-2.96,3.89-5.26,5.72-6.92,1.83-1.65,3.47-2.19,4.89-1.61,1.28.6,2.1,1.78,2.47,3.55.36,1.77.34,4.03-.08,6.8ZM402.69,280.07c-1.95,3.78-3.86,6.99-5.73,9.64-1.86,2.64-3.7,4.6-5.51,5.87-1.8,1.27-3.44,1.47-4.9.6-1.63-1.01-2.16-2.83-1.57-5.46.78-3.57,3.35-7.19,7.73-10.89,4.38-3.7,9.63-7.59,15.78-11.65-1.91,4.15-3.84,8.12-5.79,11.9ZM428.83,210.25c-1.31,4.09-2.9,8.12-4.75,12.12-1.86,4-3.73,7.51-5.62,10.53-1.9,3.02-3.76,5.4-5.58,7.13-1.83,1.73-3.3,2.36-4.41,1.89-1.1-.32-1.84-1.43-2.22-3.35-.39-1.91-.41-4.32-.09-7.23.33-2.9.88-6.1,1.66-9.59.78-3.49,1.78-7.04,3-10.66,1.31-4.08,2.93-8.12,4.86-12.13,1.93-4,3.88-7.49,5.86-10.44,1.98-2.96,3.89-5.26,5.72-6.92,1.83-1.65,3.39-2.18,4.67-1.59,1.43.58,2.28,1.72,2.57,3.42.28,1.7.21,3.9-.22,6.59-.43,2.69-1.11,5.75-2.05,9.19-.94,3.44-2.08,7.12-3.41,11.05Z"/>
      <path class="cls-1" d="M327.54,242.22c.97-.76,1.92-1.59,2.87-2.46.04-.47.07-.93.1-1.4-1.36.93-2.73,1.76-4.1,2.46-.07.81-.14,1.61-.21,2.42.45-.33.89-.66,1.34-1.01Z"/>
      <path class="cls-1" d="M143.34,155.07c-5.42.78-10.82,1.6-16.22,2.48-1.59,1.52-3.15,3.1-4.67,4.72,5.85-.98,11.7-1.9,17.57-2.77,1.08-1.5,2.18-2.98,3.32-4.43Z"/>
      <path class="cls-1" d="M414.45,219.77h4.25c.6-1.29,1.16-2.6,1.7-3.91h-4.84c-.4,1.31-.77,2.61-1.11,3.91Z"/>
      <path class="cls-1" d="M280.24,219.77h5.7c.55-1.34,1.11-2.64,1.68-3.91h-4.7c-.88,1.29-1.78,2.6-2.69,3.91Z"/>
      <path class="cls-1" d="M271.28,241.97c-.1.47-.19.93-.28,1.38v6.54c.41-.47.83-.97,1.25-1.49.89-1.1,1.77-2.32,2.65-3.65v-17.35c-1.59,5.74-2.81,10.64-3.63,14.57Z"/>
      <path class="cls-1" d="M108.98,219.77c.27-.65.53-1.29.79-1.92.26-.66.53-1.32.8-1.98h-4.68c.16-13.73,1.98-27.06,5.27-39.81-2.09,2.9-4.11,5.87-6.05,8.9-2.07,10.72-3.14,21.71-3.14,32.86,0,5.87.3,11.7.88,17.47.04-.11.09-.23.13-.34,1.08-2.8,2.13-5.49,3.15-8.07-.13-2.36-.21-4.73-.23-7.11h3.09Z"/>
      <path class="cls-1" d="M135.56,275.48c-2.78-.42-5.55-.86-8.32-1.31-.17,1.32-.3,2.62-.39,3.89,2.48.4,4.96.79,7.45,1.18l1.26-3.75Z"/>
      <path class="cls-1" d="M328.5,199.2c-.56.45-1.12.96-1.68,1.51.04.68.08,1.36.12,2.05.66-1.25,1.19-2.44,1.56-3.56Z"/>
      <path class="cls-1" d="M170.63,275.24c-.24-2.37-.13-5.07.31-8.11-.26-.73-.52-1.47-.77-2.2-.79,1.81-1.55,3.62-2.29,5.45,1.04,2.82,2.17,5.63,3.39,8.43-.29-1.11-.5-2.3-.63-3.57Z"/>
      <path class="cls-1" d="M246.85,215.87c-.73,1.22-1.47,2.52-2.2,3.91h3.07c.37-1.29.76-2.59,1.16-3.91h-2.03Z"/>
      <path class="cls-1" d="M379.91,185.25c1.75.76,3.3,1.71,4.66,2.84-.88-4.32-1.96-8.63-3.24-12.91-.06,2.37-.76,4.81-2.11,7.3.23.92.47,1.85.68,2.77Z"/>
      <path class="cls-1" d="M171.27,278.81c.13.5.27.98.43,1.45.07,0,.13.02.2.02-.22-.49-.42-.98-.63-1.47Z"/>
      <path class="cls-1" d="M493.16,73.1s28.12,21.63,4.84,79.49c0,0,24.6-7.35,22.23,20.05,0,0,23.77-36.91,5.34-79.27,0,0-10.3-14.08-32.42-20.27Z"/>
      <path class="cls-1" d="M393.87,96.9c-15.85-15.85-34.26-28.2-54.3-36.67-2.05.58-4.1,1.19-6.14,1.83,22.72,8.85,43.04,22.53,59.7,39.78-21.18-4.55-42.62-7.89-64.19-10.01-6.86-6.83-14.29-13.47-22.26-19.92-1.35.58-2.7,1.18-4.05,1.79,7.13,5.71,13.84,11.56,20.07,17.56-7.34-.64-14.69-1.14-22.05-1.49-2.09-4.06-4.3-8.06-6.6-11.99-1.16.58-2.32,1.17-3.48,1.77,1.93,3.29,3.8,6.63,5.58,10.01-7.08-.29-14.16-.44-21.23-.46v-.66c-2.4,1.49-4.78,3.02-7.12,4.61,1.07-.01,2.15-.03,3.22-.04v52.81c-14.45.03-28.93.41-43.4,1.14,2.6-9.96,5.75-19.72,9.42-29.23-2.16,1.99-4.3,4.01-6.4,6.06-2.7,7.66-5.07,15.45-7.1,23.37-5.28.29-10.56.64-15.84,1.02-1.2,1.39-2.39,2.78-3.57,4.18,6.14-.47,12.28-.89,18.42-1.23-3.9,16.22-6.38,32.91-7.37,49.84.83,1,1.55,2.14,2.13,3.4.67,1.47,1.14,3.08,1.41,4.82.6-19.84,3.26-39.39,7.89-58.28,14.81-.76,29.62-1.16,44.41-1.19v5.75c1.44-3.38,2.87-6.6,4.29-9.65-.13,0-.26,0-.39,0v-52.81c7.76.03,15.53.21,23.29.56,2.19,4.34,4.26,8.75,6.21,13.22,1.26-.5,2.54-.83,3.81-1-1.76-4.05-3.61-8.05-5.56-11.99,8.15.43,16.29,1.03,24.42,1.8,17.32,17.44,30.86,35.95,40.35,55.14-14.98-1.56-30.01-2.76-45.04-3.58-.35-1.38-.72-2.75-1.09-4.12-.72,2.27-1.55,4.64-2.49,7.14-.09.23-.18.47-.27.7.26.01.52.02.78.04,2.16,8.85,3.9,17.84,5.19,26.93,1.31-.35,2.59-.62,3.82-.79-1.26-8.75-2.91-17.41-4.96-25.93,15.37.86,30.72,2.11,46.03,3.74,1.08,2.35,2.1,4.71,3.07,7.08.75.26,1.47.59,2.17,1,1.19.69,2.55,1.72,3.74,3.24-1.32-3.62-2.77-7.23-4.36-10.82,19.1,2.14,38.12,4.87,56.99,8.2.17.51.34,1.02.51,1.52,1.5.06,2.98.28,4.4.67-8.18-25.69-22.43-49.23-42.04-68.84ZM372.11,151.21c-4.14-8.69-9.11-17.26-14.89-25.7-6.91-10.08-14.92-19.86-23.98-29.31,21.7,2.31,43.27,5.87,64.54,10.65,13.58,15.26,24.41,33.01,31.71,52.47-19-3.31-38.15-6.02-57.37-8.12Z"/>
      <g>
        <path class="cls-1" d="M227.03,300.96c1.19-.22,2.49-.44,3.88-.64-1.18-3.84-2.29-7.72-3.31-11.62,14.47.72,28.95,1.11,43.4,1.14v6.69c1.37-.11,2.68-.22,3.91-.33v-6.36c7.69-.02,15.39-.14,23.09-.35,3.61-1.36,7.64-2.84,11.66-4.31-11.59.47-23.17.73-34.75.76v-10.36c-1.3.85-2.61,1.59-3.91,2.21v8.15c-14.09-.03-28.2-.4-42.31-1.09-.97.32-1.94.59-2.91.79-1.28.26-2.57.39-3.84.39-2.72,0-5.38-.6-7.91-1.78l-.11-.05c-.13-.06-.26-.14-.39-.2-3.02-.2-6.04-.41-9.06-.64-1.64,1.38-3.35,2.55-5.14,3.51,8.06.66,16.12,1.21,24.19,1.65,1.07,4.19,2.25,8.35,3.51,12.47Z"/>
        <path class="cls-1" d="M324.46,279.82c.64-2.88,1.24-5.77,1.79-8.68-1.46.83-2.93,1.59-4.41,2.26-.54,2.68-1.13,5.33-1.74,7.99,1.54-.55,3-1.08,4.36-1.56Z"/>
        <path class="cls-1" d="M238.89,332.6l3.57-1.57c-.28-.63-.57-1.26-.84-1.89h-4.25c.5,1.16,1.01,2.31,1.52,3.46Z"/>
        <path class="cls-1" d="M295.85,346.09c-2.09-2.02-3.61-3.45-3.61-3.45l-7.83,3.79c3.82-.08,7.63-.19,11.45-.34Z"/>
        <path class="cls-1" d="M435.39,257.18c-.04.12-.08.24-.12.36-1.21,4.94-2.63,9.79-4.26,14.55-.5.09-1,.17-1.5.26-.65,1.46-1.33,2.89-2.01,4.3.66-.11,1.33-.22,1.99-.34-7.3,19.47-18.13,37.22-31.7,52.47-21.27,4.79-42.84,8.34-64.54,10.65,9.06-9.45,17.07-19.22,23.98-29.3,5.01-7.31,9.4-14.72,13.18-22.22.18-.72.39-1.45.64-2.19.97-2.89,2.36-5.62,4.14-8.15,1.99-4.7,3.75-9.43,5.26-14.19-1.65,1.16-3.37,2.13-5.16,2.89-1.71,4.87-3.66,9.71-5.88,14.5-2.88.31-5.77.59-8.66.87,1.12,1.05,2.07,2.26,2.73,3.65,1.32-.13,2.64-.25,3.96-.39-.99,2.01-2.04,4-3.12,5.99-.06.48-.14.97-.27,1.48-.7,2.85-2.82,5.81-5.69,8.71-7.71,12.3-17.12,24.26-28.16,35.77.21,2.24.35,4.55.35,6.77,21.02-2.13,41.93-5.41,62.58-9.84-29.41,30.46-70.24,49.81-115.53,51.05,12.27-8.01,23.59-16.39,33.93-25.12-2.02-.08-3.68-.5-4.31-1.53,0,0,0,0,0,0-8.07,6.72-16.73,13.24-25.99,19.54,6.51-9.11,12.41-18.68,17.71-28.61-1.01-1.01-2-1.97-2.9-2.84-6.18,11.72-13.25,22.91-21.13,33.46v-28.71l-3.91,1.89v26.81c-4.86-6.5-9.41-13.25-13.63-20.22l-3.53,1.71c3.41,5.65,7.02,11.16,10.84,16.51-6.26-4.25-12.23-8.61-17.95-13.07l-3.94,1.91c7.99,6.28,16.49,12.38,25.52,18.27-16.35-.45-32.11-3.27-46.98-8.11l-5.27,2.43c18.03,6.34,37.21,9.65,56.89,9.65,45.68,0,88.62-17.79,120.92-50.09,23.7-23.7,39.58-53.14,46.36-85.19-1.59,1.23-3.2,2.45-4.84,3.63Z"/>
        <path class="cls-1" d="M163.97,349.6c.79-1.07,1.72-2.05,2.81-2.87-4.9-4.05-9.58-8.36-13.99-12.93,20.22,4.34,40.69,7.58,61.27,9.71l7.32-3.21c-.85-.08-1.7-.15-2.55-.23-3.57-3.59-6.97-7.23-10.21-10.91h-5.27c2.98,3.47,6.08,6.9,9.33,10.29-21.7-2.31-43.27-5.87-64.54-10.65-3.81-4.28-7.39-8.76-10.75-13.42-.92,1-1.92,1.9-3,2.71,5.28,7.27,11.17,14.19,17.65,20.67,3.83,3.83,7.81,7.44,11.92,10.86Z"/>
        <path class="cls-1" d="M188.7,310.13c3.67,5.35,7.66,10.62,11.94,15.79.56-1.06,1.26-2.33,2.08-3.73-8.72-10.7-16.09-21.74-22.05-33.02-1.2-.4-2.33-.93-3.38-1.6-2.61-1.64-4.48-4.1-5.59-7.32-2.39-.27-4.78-.54-7.16-.83l-1.26,3.78c3.51.42,7.02.84,10.53,1.22,4.14,8.69,9.11,17.26,14.89,25.7Z"/>
      </g>
      <g>
        <g>
          <path class="cls-1" d="M88.58,268.05c-3.71-13.6-5.96-27.81-6.55-42.45-1.8,3.29-3.68,6.72-5.63,10.3-4.08,7.46-7.88,15.36-11.3,23.48-1.42,3.38-2.72,6.78-3.9,10.2,2.39,9.82,5.49,19.46,9.26,28.9,2.17-2.72,4.35-5.79,6.49-9.19,3.16-5.03,6.32-10.66,9.39-16.75.75-1.49,1.49-2.99,2.23-4.5Z"/>
          <path class="cls-1" d="M88.87,267.97c-3.76-13.77-5.96-28.03-6.54-42.38l-.04-1.07-.52.94c-1.8,3.29-3.67,6.72-5.63,10.3-4.08,7.47-7.89,15.38-11.31,23.51-1.39,3.3-2.7,6.73-3.9,10.22l-.03.08.02.09c2.38,9.74,5.5,19.48,9.28,28.94l.19.48.32-.4c2.2-2.74,4.39-5.84,6.51-9.22,3.17-5.04,6.33-10.68,9.41-16.78.75-1.49,1.49-2.99,2.23-4.5l.05-.1-.03-.11ZM70.56,297.89c-3.67-9.26-6.71-18.78-9.04-28.3,1.19-3.44,2.49-6.84,3.86-10.1,3.41-8.11,7.21-16.01,11.28-23.46,1.77-3.25,3.48-6.36,5.12-9.36.64,14,2.82,27.9,6.48,41.34-.72,1.47-1.44,2.94-2.18,4.39-3.07,6.08-6.22,11.71-9.38,16.73-2.01,3.19-4.07,6.13-6.15,8.76Z"/>
        </g>
        <g>
          <path class="cls-1" d="M74.96,178.46c1.73-2.36,3.5-4.71,5.32-7.05l-14.02,6.59-2.95-3.52c-1.02-1.22-2.11-2.35-3.26-3.38-1.74,7.94-3.02,15.97-3.86,24.09.74,1.61,1.29,3.54,1.48,5.89.12,1.27.16,2.52.12,3.73,1.87-3.2,3.97-6.66,6.28-10.33,3.35-5.33,7.01-10.71,10.89-16.01Z"/>
          <path class="cls-1" d="M66.34,177.63l-2.8-3.34c-1.02-1.22-2.13-2.36-3.29-3.41l-.38-.34-.11.5c-1.73,7.89-3.03,16-3.86,24.12v.08s.03.07.03.07c.79,1.72,1.28,3.66,1.45,5.79.11,1.26.15,2.5.12,3.69l-.03,1.17.59-1.01c1.86-3.19,3.97-6.66,6.28-10.32,1.67-2.66,3.42-5.34,5.24-8.01,1.82-2.67,3.7-5.34,5.64-7.99,1.72-2.35,3.5-4.71,5.31-7.04l.76-.98-14.94,7.02ZM58.1,203.69c0-.87-.05-1.75-.13-2.64-.18-2.16-.68-4.15-1.47-5.91.82-7.9,2.07-15.79,3.73-23.47,1,.93,1.96,1.94,2.85,3l3.1,3.69,13.11-6.16c-1.55,2.02-3.09,4.05-4.56,6.08-3.88,5.3-7.55,10.7-10.9,16.03-2.08,3.3-4,6.45-5.72,9.38Z"/>
        </g>
        <g>
          <path class="cls-1" d="M471.48,255.44h0c-2.53,0-5.11-.4-7.65-1.2l-.08-.03c-.93-.3-1.91-.71-2.91-1.23-6.81,36.74-24.29,70.67-50.96,98.05-19.19,19.7-41.91,34.74-66.76,44.52.54.77.99,1.62,1.31,2.53l7.09,20.25c.29.82.46,1.66.53,2.5,2.83-1.1,5.64-2.25,8.43-3.47,25.8-11.32,48.89-27.33,68.64-47.6,19.74-20.27,35.14-43.77,45.77-69.85,6.67-16.37,11.26-33.33,13.76-50.69-2.02,1.41-4.1,2.64-6.21,3.65-3.55,1.7-7.24,2.57-10.95,2.57Z"/>
          <path class="cls-1" d="M488.47,248.97c-2.03,1.42-4.11,2.64-6.17,3.63-3.51,1.68-7.15,2.54-10.82,2.54h0c-2.5,0-5.05-.4-7.55-1.18l-.08-.03c-.98-.32-1.95-.73-2.87-1.21l-.36-.19-.07.4c-6.83,36.89-24.43,70.74-50.88,97.89-19.09,19.6-41.51,34.55-66.66,44.45l-.35.14.22.31c.54.77.97,1.6,1.27,2.46l7.09,20.25c.26.76.44,1.57.52,2.43l.04.39.37-.14c3.08-1.2,5.85-2.34,8.44-3.48,25.84-11.33,48.96-27.37,68.73-47.67,19.77-20.29,35.19-43.83,45.83-69.95,6.64-16.29,11.28-33.37,13.79-50.76l.1-.68-.56.39ZM352.3,420.42c-.1-.76-.27-1.49-.51-2.17l-7.09-20.25c-.28-.8-.66-1.57-1.14-2.29,25.08-9.93,47.46-24.89,66.52-44.46,26.44-27.14,44.05-60.96,50.96-97.81.84.42,1.71.78,2.6,1.07l.08.03c6.34,1.98,12.78,1.51,18.82-1.38,1.9-.91,3.81-2.01,5.69-3.29-2.52,17.11-7.11,33.91-13.65,49.95-10.61,26.05-25.99,49.52-45.71,69.76-19.71,20.24-42.77,36.23-68.54,47.53-2.49,1.09-5.13,2.18-8.06,3.33Z"/>
        </g>
        <g>
          <path class="cls-1" d="M466.79,163.65l-2.94,8.92c-1.03,3.11-2.09,6.29-3.17,9.5.36,1.9.69,3.82.99,5.75.67-1.21,1.35-2.39,2.04-3.52,4.28-7.02,8.81-12.78,13.45-17.13,2.15-2.01,4.31-3.74,6.49-5.2-2.85-10.77-6.54-21.33-11.06-31.63-9.24-21.04-21.61-40.27-36.86-57.36-.39.56-.83,1.09-1.34,1.57l-16.29,15.56c-.59.56-1.24,1.03-1.94,1.43,18.46,20.89,32.44,45.84,40.39,73.35l10.22-1.24Z"/>
          <path class="cls-1" d="M483.95,161.89c-2.86-10.79-6.58-21.45-11.07-31.67-9.23-21.01-21.65-40.34-36.91-57.44l-.25-.28-.21.31c-.38.56-.82,1.07-1.3,1.53l-16.29,15.56c-.55.52-1.18.99-1.88,1.39l-.32.18.24.27c18.63,21.08,32.57,46.4,40.33,73.23l.07.24,10.01-1.22-2.79,8.48c-1.03,3.11-2.09,6.29-3.17,9.5l-.03.08.02.08c.33,1.74.65,3.61.99,5.74l.14.86.42-.76c.69-1.25,1.38-2.43,2.04-3.51,4.27-6.99,8.77-12.74,13.4-17.07,2.12-1.99,4.29-3.73,6.45-5.17l.18-.12-.05-.21ZM461.83,186.92c-.28-1.76-.56-3.34-.84-4.83,1.07-3.18,2.13-6.34,3.14-9.43l3.09-9.37-10.44,1.27c-7.76-26.71-21.63-51.93-40.14-72.95.62-.38,1.18-.81,1.68-1.29l16.29-15.56c.42-.4.81-.84,1.16-1.31,15.11,16.98,27.41,36.16,36.56,57,4.45,10.13,8.14,20.68,10.99,31.38-2.12,1.44-4.26,3.16-6.35,5.11-4.67,4.37-9.21,10.15-13.51,17.19-.53.87-1.08,1.8-1.63,2.78Z"/>
        </g>
        <g>
          <path class="cls-1" d="M97.15,143.03c8.07-18.88,19.11-36.22,32.53-51.43-.74-.41-1.43-.9-2.06-1.5l-16.31-15.54c-.47-.45-.88-.93-1.25-1.45-16.53,18.56-29.64,39.57-39.03,62.61-.84,2.05-1.63,4.12-2.4,6.19,4.91,1.75,9.59,4.02,13.94,6.77l14.57-5.66Z"/>
          <path class="cls-1" d="M129.83,91.35c-.74-.41-1.41-.9-2-1.45l-16.31-15.54c-.44-.42-.85-.89-1.21-1.4l-.22-.31-.25.28c-16.55,18.58-29.7,39.68-39.08,62.69-.76,1.86-1.52,3.83-2.4,6.2l-.11.28.28.1c4.89,1.75,9.57,4.01,13.89,6.74l.13.08,14.83-5.76.05-.12c8.01-18.72,18.93-36,32.48-51.35l.25-.28-.33-.18ZM82.61,148.36c-4.24-2.66-8.81-4.88-13.59-6.61.83-2.24,1.57-4.12,2.29-5.9,9.31-22.84,22.34-43.78,38.73-62.25.33.42.68.82,1.07,1.19l16.31,15.54c.53.51,1.14.97,1.8,1.36-13.45,15.29-24.31,32.49-32.29,51.12l-14.32,5.56Z"/>
        </g>
        <g>
          <path class="cls-1" d="M152.24,366.13c-15.4-12.54-28.7-27.29-39.55-43.87-3.42-.95-6.53-2.72-9.24-5.27-4.76-4.45-7.4-10.57-7.85-18.19-.04-.63-.07-1.26-.09-1.9-.25.41-.5.82-.75,1.23-4.56,7.44-9.5,13.93-14.69,19.29-.13.13-.26.26-.39.39l-.03.03c10.72,20.7,24.68,39.49,41.5,55.85,2.81,2.74,5.69,5.38,8.63,7.95,4.31-2.84,14.23-9.36,23.19-14.93-.24-.19-.49-.38-.73-.58Z"/>
          <path class="cls-1" d="M194.64,420.82c.09-.76.26-1.49.49-2.17l6.97-20.29c.29-.84.68-1.64,1.18-2.4-3.24-1.27-6.43-2.63-9.59-4.07-7.68,5.17-17.52,11.62-25.82,16.47,7.44,4.1,15.13,7.78,23.06,11,1.26.51,2.51,1,3.7,1.46Z"/>
        </g>
      </g>
      <path class="cls-1" d="M168.11,42.33c.48.8.55,1.65.31,2.31-.34.99-1.16,1.5-1.72,1.84l-.36.22-2.97-4.95.52-.31c.56-.34,1.39-.7,2.28-.54.68.14,1.44.62,1.93,1.44Z"/>
      <path class="cls-1" d="M220.73,20.1c-.26-.9-.79-1.56-1.47-1.9-.52-.27-1.27-.43-2.18-.17-.97.28-1.5.82-1.76,1.29-.39.69-.47,1.62-.25,2.39.23.81.77,1.52,1.46,1.88.57.3,1.34.41,2.17.17.84-.24,1.43-.73,1.76-1.29.36-.61.51-1.47.26-2.37ZM220.73,20.1c-.26-.9-.79-1.56-1.47-1.9-.52-.27-1.27-.43-2.18-.17-.97.28-1.5.82-1.76,1.29-.39.69-.47,1.62-.25,2.39.23.81.77,1.52,1.46,1.88.57.3,1.34.41,2.17.17.84-.24,1.43-.73,1.76-1.29.36-.61.51-1.47.26-2.37ZM220.73,20.1c-.26-.9-.79-1.56-1.47-1.9-.52-.27-1.27-.43-2.18-.17-.97.28-1.5.82-1.76,1.29-.39.69-.47,1.62-.25,2.39.23.81.77,1.52,1.46,1.88.57.3,1.34.41,2.17.17.84-.24,1.43-.73,1.76-1.29.36-.61.51-1.47.26-2.37ZM220.73,20.1c-.26-.9-.79-1.56-1.47-1.9-.52-.27-1.27-.43-2.18-.17-.97.28-1.5.82-1.76,1.29-.39.69-.47,1.62-.25,2.39.23.81.77,1.52,1.46,1.88.57.3,1.34.41,2.17.17.84-.24,1.43-.73,1.76-1.29.36-.61.51-1.47.26-2.37ZM220.73,20.1c-.26-.9-.79-1.56-1.47-1.9-.52-.27-1.27-.43-2.18-.17-.97.28-1.5.82-1.76,1.29-.39.69-.47,1.62-.25,2.39.23.81.77,1.52,1.46,1.88.57.3,1.34.41,2.17.17.84-.24,1.43-.73,1.76-1.29.36-.61.51-1.47.26-2.37ZM266.18,10.19c-.2-.19-.51-.38-.98-.36l-.99.04.11,2.54.66-.03c.33-.01.84-.08,1.18-.39.18-.17.38-.46.36-.93-.02-.33-.12-.66-.34-.88ZM266.18,10.19c-.2-.19-.51-.38-.98-.36l-.99.04.11,2.54.66-.03c.33-.01.84-.08,1.18-.39.18-.17.38-.46.36-.93-.02-.33-.12-.66-.34-.88ZM220.73,20.1c-.26-.9-.79-1.56-1.47-1.9-.52-.27-1.27-.43-2.18-.17-.97.28-1.5.82-1.76,1.29-.39.69-.47,1.62-.25,2.39.23.81.77,1.52,1.46,1.88.57.3,1.34.41,2.17.17.84-.24,1.43-.73,1.76-1.29.36-.61.51-1.47.26-2.37ZM220.73,20.1c-.26-.9-.79-1.56-1.47-1.9-.52-.27-1.27-.43-2.18-.17-.97.28-1.5.82-1.76,1.29-.39.69-.47,1.62-.25,2.39.23.81.77,1.52,1.46,1.88.57.3,1.34.41,2.17.17.84-.24,1.43-.73,1.76-1.29.36-.61.51-1.47.26-2.37ZM266.18,10.19c-.2-.19-.51-.38-.98-.36l-.99.04.11,2.54.66-.03c.33-.01.84-.08,1.18-.39.18-.17.38-.46.36-.93-.02-.33-.12-.66-.34-.88ZM266.18,10.19c-.2-.19-.51-.38-.98-.36l-.99.04.11,2.54.66-.03c.33-.01.84-.08,1.18-.39.18-.17.38-.46.36-.93-.02-.33-.12-.66-.34-.88ZM220.73,20.1c-.26-.9-.79-1.56-1.47-1.9-.52-.27-1.27-.43-2.18-.17-.97.28-1.5.82-1.76,1.29-.39.69-.47,1.62-.25,2.39.23.81.77,1.52,1.46,1.88.57.3,1.34.41,2.17.17.84-.24,1.43-.73,1.76-1.29.36-.61.51-1.47.26-2.37ZM272.96,0c-30.39,0-59.77,6.09-87.33,18.1-26.01,11.33-49.24,27.41-69.03,47.79-.4.41-.62.96-.61,1.54.01.58.25,1.13.67,1.53l16.31,15.54c.85.81,2.22.78,3.04-.07,36.14-37.13,84.78-57.58,136.94-57.58,9.5,0,18.06-.26,27.28,1.08,16.52-7.33,31.81-12.51,45.86-16C322.45,3.39,298.46,0,272.96,0ZM173.97,44.98c-.34,1.27-1.3,3.22-3.74,4.69l-6.4,3.83-7.64-12.76,5.19-3.11c1.13-.68,4.05-2.3,7.11-1.63,1.36.3,3.17,1.17,4.58,3.52.79,1.32,1.55,3.18.91,5.46ZM178.78,44.79l-6.87-13.19,5.05-2.63,6.87,13.19-5.05,2.63ZM195.53,34.97c-.46,1.16-1.57,2.79-4.25,4.01-2.18.99-3.91,1.06-5.34,1.15l-.55.03-.17-4.53.74.15c.71.14,2.08.26,3.34-.32.71-.32.93-.62,1-.75.15-.29.09-.53,0-.74-.05-.12-.17-.32-.38-.39-.25-.09-.55-.02-1.13.12l-1.36.35c-.88.23-1.87.38-3.01-.03-1.05-.38-1.72-1.06-2.16-2.03-.57-1.26-.61-2.54-.07-3.86.61-1.55,1.91-2.97,4.18-4,1.14-.51,2.7-1,4.88-.79l.17,4.08c-.81-.12-2.22-.22-3.37.31-.28.13-.69.36-.88.69-.13.23-.13.4-.04.6.13.28.29.53,1.16.33l1.81-.4c1.38-.31,2.35-.16,2.97.05,1.28.42,1.94,1.37,2.31,2.18.53,1.16.69,2.38.16,3.77ZM206.51,32.73c-1.92.72-4.21.84-6.18,0-1.87-.78-3.32-2.37-4.06-4.34-.8-2.15-.63-4.31.23-6.11.67-1.37,2.01-3.16,4.76-4.18,1.1-.41,2.4-.71,3.71-.77l2.14,5.25c-.84-.35-2.28-.72-3.62-.22-.84.31-1.49.91-1.82,1.66-.31.71-.3,1.54-.03,2.27.28.75.84,1.37,1.61,1.68.59.23,1.42.37,2.48-.02,1.5-.56,2.21-1.8,2.48-2.43l1.79,5.26c-1.2,1.02-2.81,1.69-3.49,1.95ZM225.64,24.3c-.94,1.61-2.74,3.26-5.61,4.08-2.87.82-5.28.36-6.92-.51-1.5-.8-2.93-2.3-3.58-4.59-.65-2.27-.22-4.29.63-5.77.94-1.61,2.74-3.26,5.61-4.08,2.87-.82,5.28-.37,6.92.51,1.5.8,2.93,2.3,3.57,4.57.65,2.29.23,4.32-.63,5.79ZM239.06,23.6l-4.8.93-8.8-13.45,5.84-1.13,3.48,6.46c.3.53.57,1.36.72,1.88l.14-.03c-.09-.6-.12-1.36-.05-2.01l.77-7.28,5.84-1.13-3.14,15.75ZM246.33,22.38l-1.74-14.77,10.51-1.23.48,4.05-4.86.57.16,1.37,4.41-.52.46,3.88-4.41.52.17,1.42,5-.59.48,4.05-10.65,1.25ZM267.27,20.55l-2.45-4.24c-.08-.15-.15-.22-.23-.46l-.09.05.22,4.77-5.55.25-.68-14.86,7.07-.32c1.65-.08,3.37.03,4.86,1.32.83.72,1.57,1.83,1.65,3.59.06,1.31-.33,2.16-.75,2.69-.44.58-1.2,1.06-2.11,1.28v.13c.32.14.63.35.86.65l3.75,4.85-6.55.3ZM265.2,9.84l-.99.04.11,2.54.66-.03c.33-.01.84-.08,1.18-.39.18-.17.38-.46.36-.93-.02-.33-.12-.66-.34-.88-.2-.19-.51-.38-.98-.36ZM219.27,18.2c-.52-.27-1.27-.43-2.18-.17-.97.28-1.5.82-1.76,1.29-.39.69-.47,1.62-.25,2.39.23.81.77,1.52,1.46,1.88.57.3,1.34.41,2.17.17.84-.24,1.43-.73,1.76-1.29.36-.61.51-1.47.26-2.37-.26-.9-.79-1.56-1.47-1.9ZM220.73,20.1c-.26-.9-.79-1.56-1.47-1.9-.52-.27-1.27-.43-2.18-.17-.97.28-1.5.82-1.76,1.29-.39.69-.47,1.62-.25,2.39.23.81.77,1.52,1.46,1.88.57.3,1.34.41,2.17.17.84-.24,1.43-.73,1.76-1.29.36-.61.51-1.47.26-2.37ZM266.18,10.19c-.2-.19-.51-.38-.98-.36l-.99.04.11,2.54.66-.03c.33-.01.84-.08,1.18-.39.18-.17.38-.46.36-.93-.02-.33-.12-.66-.34-.88ZM266.18,10.19c-.2-.19-.51-.38-.98-.36l-.99.04.11,2.54.66-.03c.33-.01.84-.08,1.18-.39.18-.17.38-.46.36-.93-.02-.33-.12-.66-.34-.88ZM220.73,20.1c-.26-.9-.79-1.56-1.47-1.9-.52-.27-1.27-.43-2.18-.17-.97.28-1.5.82-1.76,1.29-.39.69-.47,1.62-.25,2.39.23.81.77,1.52,1.46,1.88.57.3,1.34.41,2.17.17.84-.24,1.43-.73,1.76-1.29.36-.61.51-1.47.26-2.37ZM220.73,20.1c-.26-.9-.79-1.56-1.47-1.9-.52-.27-1.27-.43-2.18-.17-.97.28-1.5.82-1.76,1.29-.39.69-.47,1.62-.25,2.39.23.81.77,1.52,1.46,1.88.57.3,1.34.41,2.17.17.84-.24,1.43-.73,1.76-1.29.36-.61.51-1.47.26-2.37ZM266.18,10.19c-.2-.19-.51-.38-.98-.36l-.99.04.11,2.54.66-.03c.33-.01.84-.08,1.18-.39.18-.17.38-.46.36-.93-.02-.33-.12-.66-.34-.88ZM266.18,10.19c-.2-.19-.51-.38-.98-.36l-.99.04.11,2.54.66-.03c.33-.01.84-.08,1.18-.39.18-.17.38-.46.36-.93-.02-.33-.12-.66-.34-.88ZM220.73,20.1c-.26-.9-.79-1.56-1.47-1.9-.52-.27-1.27-.43-2.18-.17-.97.28-1.5.82-1.76,1.29-.39.69-.47,1.62-.25,2.39.23.81.77,1.52,1.46,1.88.57.3,1.34.41,2.17.17.84-.24,1.43-.73,1.76-1.29.36-.61.51-1.47.26-2.37ZM220.73,20.1c-.26-.9-.79-1.56-1.47-1.9-.52-.27-1.27-.43-2.18-.17-.97.28-1.5.82-1.76,1.29-.39.69-.47,1.62-.25,2.39.23.81.77,1.52,1.46,1.88.57.3,1.34.41,2.17.17.84-.24,1.43-.73,1.76-1.29.36-.61.51-1.47.26-2.37ZM220.73,20.1c-.26-.9-.79-1.56-1.47-1.9-.52-.27-1.27-.43-2.18-.17-.97.28-1.5.82-1.76,1.29-.39.69-.47,1.62-.25,2.39.23.81.77,1.52,1.46,1.88.57.3,1.34.41,2.17.17.84-.24,1.43-.73,1.76-1.29.36-.61.51-1.47.26-2.37Z"/>
      <path class="cls-1" d="M175.73,351.45s3.64-5.33,16.5-2.42l9.42,2.04s6.41,2.16,12.58.38,39.48-18.46,46.84-26.02l-49.16-1.87c-1.52-.06-2.27-1.87-1.24-2.99l8.2-8.85s1.9-5.55,23.73-8.36c21.83-2.81,33.23-2.17,33.23-2.17,0,0,7.84-.69,15.33-3.71,7.49-3.02,34.49-13.54,34.49-13.54,0,0,9.16-4.04,19.6-1.89s11.51,2.83,12.8,7.28c1.3,4.45-4.32,10.54-10.77,13.36s-126.3,67.68-126.3,67.68c0,0-6.4,4.14-17.18.21-10.77-3.92-29.11-11.45-29.11-11.45,0,0-5.51-2.36-1.33-5.78,4.18-3.42,2.35-1.88,2.35-1.88Z"/>
      <path class="cls-1" d="M294.25,337.23l25.77-14.38s5.72,14.62,1.42,25.12c-3.35,8.17-6.85,5.84-8.24,4.4-.57-.59-1.16-1.17-1.81-1.68l-17.14-13.46Z"/>
      <path class="cls-1" d="M165.35,365.67l36.86,13.29s-118.22,92.06-182.81,6.67c0,0,32.77,39.36,98.28,3.85,0,0,1.84,3.74-1.23,6.69l48.9-30.51Z"/>
      <path class="cls-1" d="M23.01,305.64s-21.07,35.01-10.14,65.73c0,0,10.78,16.37,24.48,21.34,0,0-10.32-24.36,0-58.88,0,0-14.09-6.55-14.34-28.19Z"/>
      <path class="cls-1" d="M458.26,19.26c-14.96-3.27-68.39-28.05-159.25,16.41C170.69,98.44,108.02,238.97,108.02,238.97h0c-.44,1.1-.87,2.22-1.32,3.34-5.66,14.06-11.8,27.9-19.1,41.22-4.41,8.04-9.15,15.87-15.36,22.7-3.4,3.73-7.09,7.12-12.09,8.59-5.36,1.57-9.91-1.25-10.67-6.73-.96-6.88-.56-13.76.74-20.56,2.67-13.92,7.39-27.21,13.79-39.79,8.27-16.24,17.1-32.2,25.78-48.24,5.85-10.82,12.17-21.36,19.76-31.08,5.64-7.22,11.65-14.08,18.85-19.67.16-.05.41-.25.8-.63,4.17-4.2,13.93-8.11,13.93-8.11l-2.71-7.36-5.02,2.07c-17.18,6.68-34.36,13.35-51.51,20.08-1.46.57-2.53.52-3.88-.36-7.7-5.02-16.06-8.51-25.25-9.52C13.96,140.42-3.69,175.08.64,201.94c3.16,19.63,23.59,29.31,40.47,19.77,7.77-4.39,11.66-12.11,10.41-20.64-1-6.81-7.68-9.84-13.67-6.12.06.42.13.87.21,1.33,1.53,8.79-4.6,16.31-13.5,16.56-7.39.2-13.2-4.02-15.65-12.07-2.99-9.83-2.05-19.55,4.29-27.72,14.92-19.25,39.46-19.02,53.3-3.63,1.02,1.13,1.77,1.26,3.15.6,10.44-5,20.93-9.9,31.4-14.83.58-.27,1.19-.49,2.34-.95-3.43,3.67-6.52,6.77-9.39,10.07-19,21.86-33.86,46.34-45.87,72.6-6.91,15.11-12.98,30.53-15.68,47.04-1.43,8.74-1.56,17.41,1.17,26.01,2.77,8.69,12.49,16.69,23.72,14.2,5.57-1.24,10.48-3.63,14.76-7.31,7.39-6.36,12.92-14.23,17.95-22.47,7.98-13.08,13.71-27.23,19.64-41.28.39-.92.8-1.83,1.21-2.74.11,1.39-.2,2.59-.55,3.78-1.87,6.46-3.95,12.86-5.59,19.38-2.29,9.14-3.79,18.41-2.53,27.88.92,6.94,4.22,12.45,10.96,14.89,6.68,2.42,13.15,1.37,18.73-3.28,2.41-2.01,4.04-4.54,4.03-8.2-7.43-.53-11.68-4.57-13.72-11.37-1.75-5.84-1.67-11.76-1.04-17.68.69-6.5,2.02-12.85,3.69-19.13.72-1.84,77.04-180.12,245.09-209.85,66.77-11.81,105.47,6.04,151.96,31.96-26.77-30.19-49.34-48.95-63.69-59.45Z"/>
      <path class="cls-1" d="M146.73,219.77h7.56l1.31-3.91h-6.46c-.79,1.25-1.59,2.56-2.41,3.91Z"/>
      <path class="cls-1" d="M148.14,106.86c18.86-4.24,37.94-7.51,57.15-9.81,1.54-1.5,3.09-2.99,4.65-4.48-19.2,2.13-38.28,5.22-57.16,9.27,27.95-28.95,66.23-47.85,108.84-50.72,2.16-1.43,4.34-2.84,6.54-4.23-43.88,1.2-84.96,18.85-116.12,50.01-10.72,10.72-19.83,22.62-27.23,35.39l6.11-2.37c5.08-8.18,10.84-15.9,17.22-23.06Z"/>
      <path class="cls-1" d="M429.11,65.88c-6.41-6.58-13.18-12.71-20.29-18.38-12.61.09-26.06,1.5-40.57,4.68,15.04,8.68,28.98,19.48,41.46,32.26.41.42.96.65,1.56.65.56,0,1.09-.21,1.48-.59l16.29-15.56c.42-.4.66-.95.67-1.53.01-.58-.21-1.13-.61-1.54h0Z"/>
    </g>
  </g>
</svg>