<?xml version="1.0" encoding="UTF-8"?>
<svg id="Layer_2" data-name="Layer 2" xmlns="http://www.w3.org/2000/svg" viewBox="0 0 164.93 156.77">
  <defs>
    <style>
      .cls-1 {
        fill: #000;
        stroke-width: 0px;
      }
    </style>
  </defs>
  <g id="Layer_2-2" data-name="Layer 2">
    <path class="cls-1" d="M0,49.36c3.65.04,7.29.11,10.94.08,1.02,0,1.67.31,2.28,1.13,3.54,4.79,7.11,9.57,10.74,14.29.42.55,1.26,1.09,1.91,1.09,14.34.06,28.68.05,43.02.04.31,0,.62-.06,1.21-.11C63.22,43.92,56.4,22.05,49.51,0c5.41,0,10.62-.03,15.82.05.5,0,1.13.69,1.45,1.22,8.7,13.86,17.37,27.75,26.05,41.63,4.55,7.28,9.12,14.55,13.63,21.86.59.95,1.22,1.27,2.32,1.27,14.29-.03,28.57-.03,42.86-.02,6.34,0,11.01,3.33,12.8,9.03,2.18,6.94-3.14,14.91-10.39,15.55-1.01.09-2.04.12-3.06.12-13.96,0-27.93.03-41.89-.03-1.34,0-2.09.39-2.81,1.55-13.07,21.01-26.2,41.97-39.28,62.98-.71,1.14-1.45,1.58-2.81,1.55-4.82-.09-9.65-.04-14.69-.04,6.88-22.01,13.69-43.84,20.58-65.9-.74-.04-1.3-.1-1.86-.1-13.96,0-27.93,0-41.89-.03-1.13,0-1.85.33-2.53,1.26-3.49,4.76-7.08,9.45-10.59,14.2-.61.82-1.26,1.14-2.28,1.13-3.65-.03-7.29.05-10.94.08,0-.21,0-.43,0-.64.09-.13.22-.25.26-.39,2.58-9.01,5.17-18.01,7.7-27.04.19-.67.09-1.5-.1-2.19-1.25-4.54-2.55-9.07-3.87-13.6C2.68,59.01,1.33,54.51,0,50c0-.21,0-.43,0-.64Z"/>
  </g>
</svg>