<svg xmlns="http://www.w3.org/2000/svg" xmlns:xlink="http://www.w3.org/1999/xlink" width="105" zoomAndPan="magnify" viewBox="0 0 78.75 78.749999" height="105" preserveAspectRatio="xMidYMid meet" version="1.0"><defs><clipPath id="8aded51727"><path d="M 0 0 L 78.113281 0 L 78.113281 78.113281 L 0 78.113281 Z M 0 0 " clip-rule="nonzero"/></clipPath><clipPath id="92a0477d1a"><path d="M 39.058594 0 C 17.488281 0 0 17.488281 0 39.058594 C 0 60.628906 17.488281 78.113281 39.058594 78.113281 C 60.628906 78.113281 78.113281 60.628906 78.113281 39.058594 C 78.113281 17.488281 60.628906 0 39.058594 0 Z M 39.058594 0 " clip-rule="nonzero"/></clipPath><clipPath id="833d9da788"><path d="M 13.304688 13.304688 L 64.808594 13.304688 L 64.808594 64.808594 L 13.304688 64.808594 Z M 13.304688 13.304688 " clip-rule="nonzero"/></clipPath><clipPath id="ec789311c8"><path d="M 64.808594 39.058594 L 39.058594 13.304688 L 39.058594 26.179688 L 13.304688 26.179688 L 13.304688 51.933594 L 39.058594 51.933594 L 39.058594 64.808594 Z M 64.808594 39.058594 " clip-rule="nonzero"/></clipPath></defs><g clip-path="url(#8aded51727)"><g clip-path="url(#92a0477d1a)"><path fill="#f37335" d="M 0 0 L 78.113281 0 L 78.113281 78.113281 L 0 78.113281 Z M 0 0 " fill-opacity="1" fill-rule="nonzero"/></g></g><g clip-path="url(#833d9da788)"><g clip-path="url(#ec789311c8)"><path fill="#fdc830" d="M 13.304688 13.304688 L 64.808594 13.304688 L 64.808594 64.808594 L 13.304688 64.808594 Z M 13.304688 13.304688 " fill-opacity="1" fill-rule="nonzero"/></g></g></svg>