<?xml version="1.0" encoding="UTF-8"?>
<!DOCTYPE svg PUBLIC "-//W3C//DTD SVG 1.0//EN" "http://www.w3.org/TR/2001/REC-SVG-20010904/DTD/svg10.dtd">
<svg height="1046.6" preserveAspectRatio="xMidYMid meet" version="1.0" viewBox="-1215.8 -105.8 1862.3 1046.6" width="1862.3" xmlns="http://www.w3.org/2000/svg" xmlns:xlink="http://www.w3.org/1999/xlink" zoomAndPan="magnify"><g id="change1_1"><path d="M415.611-99.141c-67.602-3.378-135.615,7.786-198.645,31.638h-0.083L-142.753,72.026L-569.107-92.921 c-31.227-12.894-67.21-5.314-90.877,18.744c-0.453,0.412-0.886,1.071-1.298,1.483l-44.244,44.985 c-14.851,14.995-10.649,40.207,8.219,49.682l298.668,149.375l-307.237,119.138c-30.958-8.238-61.958-16.561-92.937-24.882 c-73.431-19.856-148.984-40.454-227.317-40.948c-54.852-0.412-109.086,10.464-159.839,29.208c-1.895,0.782-3.79,1.647-5.623,2.678 v-0.083c-20.619,12.111-24.162,40.784-7.086,57.509c39.877,38.478,79.816,77.613,120.147,116.007 c43.317,41.278,87.623,82.721,139.076,116.172c23.626,15.283,49.27,29.043,78.21,35.593c46.242,10.382,90.96,0.536,133.392-9.393 c16.375-3.831,32.565-7.991,48.858-12.111c23.873-5.521,47.746-12.729,71.248-21.628L561.773,85.086 c6.427-2.267,11.782-5.273,16.231-8.075c36.911-23.316,47.951-72.833,24.635-109.745c-8.321-13.1-20.269-23.976-35.099-30.485 C520.084-85.052,467.93-96.463,415.611-99.141z M-1035.544,845.556c-26.365,0-47.622,21.258-47.622,47.622 c0,26.365,21.257,47.623,47.622,47.623H598.932c26.365,0,47.623-21.258,47.623-47.623c0-26.364-21.258-47.622-47.623-47.622 H-1035.544z"/></g></svg>