<?xml version="1.0" encoding="UTF-8"?>
<svg id="Layer_2" data-name="Layer 2" xmlns="http://www.w3.org/2000/svg" viewBox="0 0 1434.95 801.08">
  <defs>
    <style>
      .cls-1 {
        fill: none;
        stroke: #fff;
        stroke-miterlimit: 10;
      }
    </style>
  </defs>
  <g id="Layer_2-2" data-name="Layer 2">
    <g>
      <path class="cls-1" d="M.47,772.38c14.26-42.79,88.23-143.83,234.9-149.77,146.67-5.94,137.26,41.6,185.35,66.57,48.09,24.96,79,4.75,71.87-14.26s-34.47-55.87,8.32-71.32c42.79-15.45,53.25,13.08,226.92-28.53,173.67-41.6,138.01-286.47,129.69-330.45-8.32-43.98,1.19-208.4,179.49-240.3,178.3-31.9,322.13,147.59,322.13,147.59"/>
      <path class="cls-1" d="M11.5,776.49c14.26-42.79,88.23-143.83,234.9-149.77,146.67-5.94,137.26,41.6,185.35,66.57,48.09,24.96,79,4.75,71.87-14.26-7.13-19.02-34.47-55.87,8.32-71.32,42.79-15.45,53.25,13.08,226.92-28.53,173.67-41.6,138.01-286.47,129.69-330.45-8.32-43.98,1.19-208.4,179.49-240.3,178.3-31.9,322.13,147.59,322.13,147.59"/>
      <path class="cls-1" d="M21.7,780.6c14.26-42.79,88.23-143.83,234.9-149.77,146.67-5.94,137.26,41.6,185.35,66.57,48.09,24.96,79,4.75,71.87-14.26-7.13-19.02-34.47-55.87,8.32-71.32,42.79-15.45,53.25,13.08,226.92-28.53,173.67-41.6,138.01-286.47,129.69-330.45-8.32-43.98,1.19-208.4,179.49-240.3s322.13,147.59,322.13,147.59"/>
      <path class="cls-1" d="M32.73,784.71c14.26-42.79,88.23-143.83,234.9-149.77,146.67-5.94,137.26,41.6,185.35,66.57,48.09,24.96,79,4.75,71.87-14.26-7.13-19.02-34.47-55.87,8.32-71.32,42.79-15.45,53.25,13.08,226.92-28.53s138.01-286.47,129.69-330.45c-8.32-43.98,1.19-208.4,179.49-240.3,178.3-31.9,322.13,147.59,322.13,147.59"/>
      <path class="cls-1" d="M43.64,788.59c14.26-42.79,88.23-143.83,234.9-149.77,146.67-5.94,137.26,41.6,185.35,66.57,48.09,24.96,79,4.75,71.87-14.26-7.13-19.02-34.47-55.87,8.32-71.32s53.25,13.08,226.92-28.53c173.67-41.6,138.01-286.47,129.69-330.45-8.32-43.98,1.19-208.4,179.49-240.3,178.3-31.9,322.13,147.59,322.13,147.59"/>
      <path class="cls-1" d="M54.67,792.7c14.26-42.79,88.23-143.83,234.9-149.77,146.67-5.94,137.26,41.6,185.35,66.57,48.09,24.96,79,4.75,71.87-14.26s-34.47-55.87,8.32-71.32c42.79-15.45,53.25,13.08,226.92-28.53s138.01-286.47,129.69-330.45c-8.32-43.98,1.19-208.4,179.49-240.3,178.3-31.9,322.13,147.59,322.13,147.59"/>
      <path class="cls-1" d="M64.87,796.81c14.26-42.79,88.23-143.83,234.9-149.77,146.67-5.94,137.26,41.6,185.35,66.57,48.09,24.96,79,4.75,71.87-14.26-7.13-19.02-34.47-55.87,8.32-71.32,42.79-15.45,53.25,13.08,226.92-28.53,173.67-41.6,138.01-286.47,129.69-330.45-8.32-43.98,1.19-208.4,179.49-240.3,178.3-31.9,322.13,147.59,322.13,147.59"/>
      <path class="cls-1" d="M75.9,800.92c14.26-42.79,88.23-143.83,234.9-149.77,146.67-5.94,137.26,41.6,185.35,66.57,48.09,24.96,79,4.75,71.87-14.26-7.13-19.02-34.47-55.87,8.32-71.32,42.79-15.45,53.25,13.08,226.92-28.53,173.67-41.6,138.01-286.47,129.69-330.45-8.32-43.98,1.19-208.4,179.49-240.3,178.3-31.9,322.13,147.59,322.13,147.59"/>
    </g>
  </g>
</svg>