<?xml version="1.0" encoding="UTF-8"?>
<!DOCTYPE svg PUBLIC "-//W3C//DTD SVG 1.0//EN" "http://www.w3.org/TR/2001/REC-SVG-20010904/DTD/svg10.dtd">
<svg height="678.3" preserveAspectRatio="xMidYMid meet" version="1.0" viewBox="107.3 1160.9 2786.0 678.3" width="2786.0" xmlns="http://www.w3.org/2000/svg" xmlns:xlink="http://www.w3.org/1999/xlink" zoomAndPan="magnify"><g id="change1_1"><path d="M107.3 1160.9H142.9V1839.2H107.3z"/><path d="M410.9 1160.9H446.5V1839.2H410.9z"/><path d="M607.3 1160.9H642.9V1839.2H607.3z"/><path d="M839.5 1160.9H875.1V1839.2H839.5z"/><path d="M946.4 1160.9H982V1839.2H946.4z"/><path d="M1178.9 1160.9H1214.5V1839.2H1178.9z"/><path d="M1429.1 1160.9H1464.6999999999998V1839.2H1429.1z"/><path d="M1607.9 1160.9H1643.5V1839.2H1607.9z"/><path d="M1731.8 1160.9H1767.3999999999999V1839.2H1731.8z"/><path d="M2106.6 1160.9H2142.2V1839.2H2106.6z"/><path d="M2376.2 1160.9H2411.7999999999997V1839.2H2376.2z"/><path d="M2572.3 1160.9H2607.9V1839.2H2572.3z"/><path d="M2661.1 1160.9H2696.7V1839.2H2661.1z"/><path d="M2857.7 1160.9H2893.2999999999997V1839.2H2857.7z"/><path d="M1000.9 1160.9H1054V1839.2H1000.9z"/><path d="M1786.5 1160.9H1839.6V1839.2H1786.5z"/><path d="M1910.8 1160.9H1963.8999999999999V1839.2H1910.8z"/><path d="M2179.9 1160.9H2233V1839.2H2179.9z"/><path d="M2465.8 1160.9H2518.9V1839.2H2465.8z"/><path d="M2750.3 1160.9H2803.4V1839.2H2750.3z"/><path d="M1983.3 1160.9H2053V1839.2H1983.3z"/><path d="M161.2 1160.9H179V1839.2H161.2z"/><path d="M214.5 1160.9H232.3V1839.2H214.5z"/><path d="M303.6 1160.9H321.3V1839.2H303.6z"/><path d="M340.4 1160.9H358.09999999999997V1839.2H340.4z"/><path d="M500.1 1160.9H517.8000000000001V1839.2H500.1z"/><path d="M571.6 1160.9H589.3000000000001V1839.2H571.6z"/><path d="M696.8 1160.9H714.5V1839.2H696.8z"/><path d="M768 1160.9H785.7V1839.2H768z"/><path d="M892.9 1160.9H910.6V1839.2H892.9z"/><path d="M1089.7 1160.9H1107.4V1839.2H1089.7z"/><path d="M1143.5 1160.9H1161.2V1839.2H1143.5z"/><path d="M1286.5 1160.9H1304.2V1839.2H1286.5z"/><path d="M1339.9 1160.9H1357.6000000000001V1839.2H1339.9z"/><path d="M1482.6 1160.9H1500.3V1839.2H1482.6z"/><path d="M1571.8 1160.9H1589.5V1839.2H1571.8z"/><path d="M1679.3 1160.9H1697V1839.2H1679.3z"/><path d="M1874.2 1160.9H1891.9V1839.2H1874.2z"/><path d="M2070.8 1160.9H2088.5V1839.2H2070.8z"/><path d="M2267.9 1160.9H2285.6V1839.2H2267.9z"/><path d="M2338.4 1160.9H2356.1V1839.2H2338.4z"/><path d="M2536.5 1160.9H2554.2V1839.2H2536.5z"/><path d="M2822 1160.9H2839.7V1839.2H2822z"/></g></svg>