<?xml version="1.0" encoding="UTF-8" standalone="no"?>
<svg xmlns="http://www.w3.org/2000/svg" xmlns:xlink="http://www.w3.org/1999/xlink" fill="#ffffff" height="78.2" preserveAspectRatio="xMidYMid meet" version="1" viewBox="0.0 -0.6 451.2 78.2" width="451.2" zoomAndPan="magnify"><g id="change1_1"><path d="M250.5,77.1c-3.6,0-7.4-0.2-11.2-0.4c-9.5-0.6-17.8-3.9-22.4-8.8c-0.4-0.5-0.8-0.9-1.2-1.4c-0.9-1.1-1.8-2.2-3-3 c-2.9-2-6.9-1.7-9.9-1.3c-2.9,0.4-5.8,1.1-8.7,1.7c-3.3,0.7-6.7,1.5-10.1,1.9c-5.5,0.7-11.2,0.1-16.8-0.6l-0.3,0 c-12.2-1.4-23.9-4.7-34.7-10c-9.3-4.5-18-10.3-26.4-15.9C95.6,32.5,85,25.5,73.3,20.6C51.7,11.6,21.1,8,0.1,24.8L0,24.7 c21-16.9,51.7-13.3,73.4-4.3c11.8,4.9,22.3,11.9,32.6,18.8c8.4,5.6,17.1,11.4,26.3,15.9c10.8,5.3,22.4,8.6,34.6,10l0.3,0 c5.5,0.6,11.2,1.2,16.7,0.6c3.4-0.4,6.8-1.2,10.1-1.9c2.8-0.6,5.8-1.3,8.7-1.7c3.1-0.5,7.1-0.7,10.1,1.3c1.2,0.8,2.1,1.9,3,3 c0.4,0.5,0.8,1,1.2,1.4c4.5,4.8,12.8,8.1,22.3,8.7c12.9,0.8,24.4,1.1,34.1-4.5c6.9-4,11.9-10.4,16.4-16.7c4.2-5.9,8.4-12,12.2-18.2 c0.9-1.5,1.7-2.9,2.4-4.4c1.9-3.6,3.7-7.1,7.3-9.6c5.7-4,16.1-8.4,33.2-6.4c4.5,0.5,9.5,1.1,13.8,3.4c7.4,3.9,12.8,10.3,18.1,16.5 c0.9,1.1,1.9,2.2,2.8,3.3c0.4,0.4,0.7,0.8,1.1,1.3c2.7,3.1,5.7,6.7,9.5,8c4.2,1.4,8.8,1.5,13.2,1.6c1.7,0,3.4,0.1,5,0.2 c15.8,1,31.5,8,42.8,19l-0.1,0.1c-11.3-11.1-26.9-18-42.7-19c-1.7-0.1-3.4-0.1-5-0.2c-4.5-0.1-9.1-0.2-13.3-1.6 c-3.8-1.3-6.8-4.9-9.5-8c-0.4-0.4-0.7-0.9-1.1-1.3c-0.9-1.1-1.9-2.2-2.8-3.3c-5.2-6.2-10.7-12.6-18-16.5c-4.2-2.2-9.3-2.8-13.8-3.4 c-17-2-27.4,2.3-33,6.4c-3.6,2.5-5.4,5.9-7.3,9.6c-0.8,1.4-1.5,2.9-2.5,4.4c-3.9,6.2-8,12.3-12.2,18.2c-4.5,6.3-9.5,12.7-16.4,16.7 C266.7,76,259,77.1,250.5,77.1z M258.2,74.8c4.9-0.6,9.1-1.8,12.8-3.8c2.8-1.5,5.4-3.4,8-6c3.2-3.1,6.1-6.8,8.6-10 c2.4-3.1,4.4-5.8,6.3-8.5c0.9-1.3,1.8-2.6,2.8-4c1.2-1.7,2.2-3.2,3.2-4.6c1-1.5,1.8-3,2.7-4.4c0.4-0.8,0.9-1.6,1.4-2.4 c1.4-2.4,3.1-4.9,5.9-6.9c3.6-2.6,7.8-4.5,12.6-5.8c3-0.8,6.2-1.3,9.5-1.5c3.3-0.2,6.8-0.2,10.4,0.1c2.1,0.2,4.8,0.4,7.3,0.9 c2.5,0.5,4.5,1.1,6.3,2c3.5,1.7,6.9,4.2,10.5,7.5c2.9,2.8,5.5,5.8,8.1,8.8c0.8,0.9,1.7,1.9,2.5,2.9c0.4,0.4,0.8,0.9,1.1,1.3 c1,1.1,1.9,2.2,3,3.3c2.4,2.5,4.5,3.9,6.6,4.7c4.5,1.6,9.4,1.6,14.2,1.7c1.4,0,2.8,0,4.1,0.1c8.5,0.4,16.5,2.1,23.9,5 c7.6,3.1,14.4,7.4,20.3,12.8l0.1-0.1c-5.9-5.5-12.7-9.8-20.3-12.9c-7.4-3-15.4-4.7-23.9-5.1c-1.4-0.1-2.8-0.1-4.1-0.1 c-4.7-0.1-9.7-0.1-14.1-1.7c-2.1-0.7-4.1-2.2-6.5-4.6c-1.1-1.1-2-2.2-3-3.3c-0.4-0.4-0.8-0.9-1.1-1.3c-0.8-0.9-1.7-1.9-2.5-2.9 c-2.6-3-5.2-6-8.1-8.8c-3.5-3.4-7-5.8-10.5-7.6c-1.8-0.9-3.9-1.6-6.4-2c-2.5-0.5-5.2-0.7-7.3-0.9c-3.6-0.3-7.1-0.4-10.4-0.1 c-3.4,0.2-6.6,0.8-9.6,1.5c-4.8,1.2-9,3.2-12.6,5.8c-2.8,2-4.5,4.5-6,6.9c-0.5,0.8-0.9,1.6-1.4,2.4c-0.8,1.5-1.7,3-2.7,4.4 c-1,1.4-2,2.9-3.2,4.6c-1,1.4-1.9,2.7-2.8,4c-1.9,2.7-3.9,5.3-6.3,8.5c-2.5,3.2-5.4,6.9-8.6,10c-2.6,2.5-5.2,4.5-8,5.9 c-3.7,2-7.8,3.2-12.7,3.8c-5.9,0.7-12.1,0.4-17.9-0.1c-1-0.1-2.1-0.2-3.1-0.3c-3.7-0.3-7.5-1.1-11-2.2c-4.8-1.5-8.6-3.7-11.3-6.4 c-0.4-0.4-0.8-0.9-1.3-1.4c-0.9-1-1.9-2.1-3.1-2.9c-3.1-2-7-1.7-10.2-1.2c-3,0.5-6,1.2-8.9,1.8c-1,0.2-2.1,0.5-3.1,0.7 c-2,0.4-4.3,0.9-6.8,1.3c-5.4,0.7-10.9,0.3-17-0.4c-1.8-0.2-3.6-0.4-5.6-0.7c-10.9-1.7-20.6-4.5-28.9-8.4c-9.3-4.3-18-10-26.3-15.6 C94,32.4,84,25.8,72.9,21.3c-12.2-5-25-7.4-36.9-7.1c-13.4,0.4-25.2,4.5-34.1,11.7L2,26.1c20.2-16.5,49.8-13.2,70.8-4.6 C83.9,26,93.9,32.6,103.6,39c8.4,5.5,17,11.2,26.4,15.6c8.3,3.8,18,6.7,28.9,8.4c2,0.3,3.8,0.6,5.6,0.7c6.1,0.6,11.6,1.1,17,0.4 c2.5-0.3,4.8-0.8,6.8-1.3c1-0.2,2.1-0.5,3.1-0.7c2.9-0.7,5.9-1.4,8.9-1.8c3.1-0.5,7.1-0.8,10.1,1.2c1.2,0.8,2.1,1.8,3,2.9 c0.4,0.5,0.8,0.9,1.3,1.4c2.7,2.8,6.6,4.9,11.4,6.5c3.5,1.1,7.3,1.9,11,2.2c1,0.1,2.1,0.2,3.1,0.3c3.4,0.3,7,0.5,10.5,0.5 C253.2,75.2,255.7,75.1,258.2,74.8z M255.8,73.2c4.9-0.4,9-1.5,12.7-3.3c2.8-1.4,5.5-3.2,8.1-5.6c3.2-3,6.2-6.5,8.7-9.7 c0.5-0.6,0.9-1.1,1.4-1.7c1.7-2.1,3.4-4.1,5-6.2c0.9-1.2,1.9-2.4,2.8-3.7c1-1.4,2.1-2.8,3.2-4.3c1.1-1.5,2-3,2.9-4.5 c0.4-0.7,0.8-1.4,1.2-2c1.5-2.4,3.2-4.8,6-6.8c3.6-2.6,7.8-4.7,12.4-6c2.9-0.8,6-1.5,9.3-1.8c3.2-0.4,6.7-0.4,10.2-0.3 c2.2,0.1,4.7,0.3,7.2,0.6c2.4,0.4,4.5,1,6.3,1.8c3.6,1.6,7,3.9,10.6,7.1c3.1,2.8,5.9,5.9,8.6,9c0.7,0.8,1.5,1.7,2.2,2.5 c0.4,0.4,0.8,0.9,1.2,1.3c1,1.1,1.9,2.2,3,3.3c2.4,2.4,4.5,3.9,6.6,4.7c4.8,1.7,10.1,1.8,15.3,1.8c1,0,2.1,0,3.1,0 c9.1,0.2,17.1,1.6,24.5,4.3c7.9,2.9,14.9,7.1,21.1,12.5l0.1-0.1c-6.2-5.4-13.3-9.7-21.2-12.6c-7.4-2.7-15.4-4.1-24.5-4.3 c-1,0-2.1,0-3.1,0c-5.1,0-10.4-0.1-15.2-1.8c-2.1-0.7-4.1-2.2-6.5-4.6c-1-1.1-2-2.2-3-3.3c-0.4-0.5-0.8-0.9-1.2-1.3 c-0.7-0.8-1.5-1.7-2.2-2.5c-2.7-3.1-5.5-6.2-8.6-9c-3.6-3.2-7-5.6-10.6-7.2c-1.9-0.8-3.9-1.4-6.4-1.8c-2.5-0.4-5-0.5-7.2-0.7 c-3.5-0.2-7-0.1-10.2,0.3c-3.3,0.4-6.5,1-9.4,1.8c-4.7,1.4-8.9,3.4-12.5,6c-2.8,2-4.6,4.5-6.1,6.9c-0.4,0.7-0.8,1.4-1.3,2 c-0.9,1.5-1.8,3.1-2.9,4.5c-1.1,1.5-2.2,3-3.2,4.3c-0.9,1.2-1.9,2.5-2.8,3.7c-1.6,2.1-3.2,4.1-5,6.2c-0.5,0.6-0.9,1.1-1.4,1.7 c-2.6,3.1-5.5,6.7-8.7,9.6c-2.6,2.4-5.2,4.2-8.1,5.6c-3.6,1.8-7.8,2.9-12.6,3.3c-5.9,0.5-12.2-0.1-17.7-0.6c-1-0.1-2.1-0.2-3.1-0.3 c-3.5-0.4-7.3-1.2-11-2.4c-4.8-1.5-8.6-3.6-11.4-6.2c-0.4-0.4-0.9-0.9-1.3-1.3c-0.9-1-1.9-2.1-3.1-2.8c-3.1-1.9-7.1-1.6-10.3-1.1 c-3.1,0.5-6.2,1.2-9.2,1.9c-1,0.2-1.9,0.4-2.9,0.7c-2.1,0.5-4.4,1-6.8,1.3c-5.7,0.9-11.5,0.4-17-0.1c-1.7-0.2-3.5-0.4-5.6-0.7 c-12-1.8-21.1-4.2-28.7-7.5c-9.3-4.1-17.9-9.7-26.2-15.2c-9.2-6-18.6-12.2-29.2-16.4c-11.8-4.7-24.2-7-35.7-6.6 c-12.9,0.5-24.3,4.5-32.9,11.6L4,27.4c8.6-7.1,19.9-11.1,32.8-11.6c11.5-0.4,23.8,1.8,35.6,6.5c10.5,4.2,20,10.4,29.1,16.4 c8.3,5.4,16.9,11.1,26.3,15.2c7.6,3.3,16.7,5.7,28.7,7.6c2.1,0.3,3.9,0.6,5.6,0.7c5.2,0.5,11.3,1,17,0.1c2.4-0.4,4.7-0.9,6.8-1.3 c1-0.2,1.9-0.4,2.9-0.7c3-0.7,6.1-1.4,9.2-1.9c3.1-0.5,7.1-0.8,10.2,1c1.2,0.7,2.2,1.8,3.1,2.8c0.4,0.4,0.8,0.9,1.3,1.3 c2.8,2.7,6.6,4.8,11.5,6.3c3.7,1.2,7.5,2,11,2.4c1,0.1,2.1,0.2,3.1,0.3c4,0.4,8.4,0.8,12.8,0.8C252.5,73.4,254.1,73.3,255.8,73.2z M253.3,71.6c4.8-0.3,8.9-1.2,12.6-2.8c2.9-1.3,5.5-3,8.2-5.2c3-2.6,5.8-5.8,8.3-8.7l0.6-0.6c0.7-0.8,1.5-1.7,2.2-2.5 c1.5-1.7,2.9-3.2,4.2-4.8l2.8-3.4c1-1.2,2.2-2.6,3.3-4.1c1.2-1.5,2.2-3.1,3.2-4.7c0.4-0.6,0.7-1.1,1.1-1.7c1.5-2.3,3.4-4.8,6.1-6.8 c3.6-2.7,7.7-4.7,12.3-6.2c2.8-0.9,5.9-1.6,9.1-2.1c3.2-0.5,6.5-0.7,10-0.6c2.1,0,4.7,0.1,7.1,0.4c2.4,0.3,4.4,0.8,6.3,1.6 c3.6,1.5,7.1,3.7,10.7,6.8c3.2,2.8,6.2,6,9,9.2c0.6,0.7,1.3,1.4,1.9,2.1c0.4,0.4,0.8,0.9,1.3,1.4c0.9,1.1,1.9,2.2,3,3.2 c2.4,2.4,4.5,3.9,6.6,4.7c5.9,2.1,12.6,2,18.4,1.8c8.9-0.2,17.3,1,25.1,3.5c8,2.6,15.6,6.9,21.9,12.2l0.1-0.1 c-6.3-5.3-13.9-9.6-22-12.2c-7.8-2.6-16.3-3.7-25.2-3.5c-5.8,0.1-12.4,0.3-18.3-1.8c-2.1-0.7-4.1-2.2-6.5-4.6c-1-1-2-2.1-3-3.2 c-0.4-0.5-0.8-0.9-1.3-1.4c-0.6-0.7-1.3-1.4-1.9-2.1c-2.8-3.2-5.8-6.4-9-9.2c-3.6-3.1-7.1-5.3-10.7-6.8c-1.9-0.8-3.9-1.3-6.3-1.6 c-2.5-0.3-5.1-0.4-7.2-0.4c-3.5-0.1-6.8,0.1-10,0.6c-3.3,0.5-6.3,1.2-9.2,2.1c-4.6,1.5-8.7,3.6-12.4,6.3c-2.8,2-4.6,4.5-6.1,6.8 c-0.4,0.6-0.7,1.1-1.1,1.7c-1,1.6-2,3.2-3.2,4.7c-1.1,1.4-2.3,2.8-3.3,4.1l-2.8,3.4c-1.3,1.6-2.7,3.2-4.2,4.8 c-0.7,0.8-1.5,1.6-2.2,2.5l-0.6,0.6c-2.5,2.8-5.3,6.1-8.3,8.6c-2.6,2.2-5.2,3.9-8.1,5.2c-3.6,1.6-7.7,2.5-12.5,2.8 c-5.6,0.3-11.5-0.4-17.4-1.2c-1.1-0.1-2.1-0.3-3.1-0.4c-3.3-0.5-7-1.3-10.9-2.5c-4.8-1.5-8.7-3.5-11.5-6.1c-0.4-0.4-0.9-0.8-1.3-1.3 c-1-1-2-2-3.2-2.7c-3.2-1.8-7.2-1.5-10.4-1c-3.2,0.5-6.4,1.3-9.4,2c-0.9,0.2-1.7,0.4-2.6,0.6c-2.5,0.6-4.6,1-6.8,1.4 c-5.7,0.9-11.6,0.6-17,0.1c-2.1-0.2-4.1-0.5-5.6-0.7c-9.2-1.3-19.7-3.1-28.5-6.7c-9.3-3.8-17.8-9.4-26.1-14.7 C90.9,32.7,81.9,26.9,72,23c-11.4-4.5-23.4-6.6-34.5-6.1C25,17.6,14,21.5,5.8,28.5l0.1,0.1c8.3-6.9,19.2-10.9,31.6-11.4 c11.1-0.5,23,1.6,34.4,6c9.9,3.9,18.9,9.7,27.5,15.3c8.2,5.3,16.8,10.9,26.1,14.7c8.8,3.6,19.4,5.4,28.6,6.7 c1.5,0.2,3.6,0.5,5.6,0.7c5.4,0.5,11.3,0.8,17-0.1c2.2-0.4,4.3-0.8,6.8-1.4c0.9-0.2,1.7-0.4,2.6-0.6c3.1-0.7,6.3-1.5,9.4-2 c3.2-0.5,7.2-0.9,10.3,0.9c1.2,0.7,2.2,1.7,3.2,2.7c0.4,0.4,0.9,0.9,1.3,1.3c2.8,2.6,6.7,4.6,11.6,6.1c4,1.2,7.6,2.1,10.9,2.5 c1,0.1,2,0.3,3.1,0.4c5,0.6,9.9,1.2,14.7,1.2C251.5,71.6,252.4,71.6,253.3,71.6z M250.9,69.9c4.8-0.1,8.8-0.8,12.5-2.3 c2.9-1.2,5.7-2.8,8.2-4.9c2.8-2.3,5.5-5.1,7.8-7.6c0.4-0.4,0.8-0.9,1.2-1.3c0.9-1,1.8-1.9,2.7-2.7c1.3-1.4,2.6-2.6,3.8-4 c0.9-1,1.8-2,2.8-3.1l0.3-0.3c1-1.1,2-2.2,3.1-3.5c1.3-1.5,2.5-3.2,3.6-4.9c0.3-0.4,0.6-0.9,0.9-1.3c1.6-2.3,3.5-4.8,6.2-6.7 c3.6-2.7,7.7-4.9,12.2-6.5c2.8-1,5.8-1.8,9-2.4c3.2-0.6,6.5-0.9,9.8-1c2.3,0,4.7-0.1,7.1,0.2c2.4,0.2,4.4,0.6,6.3,1.3 c3.7,1.4,7.2,3.4,10.7,6.4c3.4,2.8,6.5,6.1,9.4,9.4c0.6,0.6,1.1,1.2,1.7,1.8c0.4,0.5,0.9,0.9,1.3,1.4c0.9,1,1.9,2.1,3,3.1 c2.4,2.4,4.5,3.9,6.6,4.7c5.8,2.1,12.1,2,18.2,1.9l0.3,0c7.1-0.1,16.4,0,25.7,2.7c8.3,2.4,16.1,6.5,22.7,11.8l0.1-0.2 c-6.6-5.3-14.5-9.4-22.8-11.9c-9.3-2.7-18.7-2.9-25.8-2.8l-0.3,0c-6.1,0.1-12.4,0.3-18.1-1.9c-2.1-0.8-4.1-2.2-6.6-4.6 c-1-1-2-2.1-2.9-3.1c-0.4-0.5-0.9-1-1.3-1.4c-0.6-0.6-1.1-1.2-1.7-1.8c-3-3.2-6.1-6.6-9.4-9.4c-3.6-2.9-7.1-5-10.8-6.4 c-1.9-0.7-3.9-1.1-6.3-1.3c-2.4-0.2-4.8-0.2-7.1-0.2c-3.4,0.1-6.7,0.4-9.8,1c-3.2,0.6-6.2,1.4-9,2.4c-4.5,1.6-8.6,3.8-12.2,6.5 c-2.7,2-4.6,4.5-6.2,6.8c-0.3,0.4-0.6,0.9-0.9,1.3c-1.1,1.6-2.3,3.3-3.6,4.9c-1,1.2-2.1,2.4-3.1,3.5l-0.3,0.3c-0.9,1-1.8,2-2.8,3.1 c-1.2,1.3-2.4,2.6-3.8,4c-0.9,0.9-1.8,1.8-2.7,2.7c-0.4,0.4-0.8,0.8-1.2,1.3c-2.4,2.5-5,5.4-7.8,7.6c-2.5,2.1-5.3,3.7-8.2,4.9 c-3.6,1.5-7.7,2.2-12.4,2.3c-5.7,0.1-11.8-0.9-17.2-1.7c-1.1-0.2-2.1-0.3-3-0.5c-3-0.5-6.4-1.4-10.9-2.7c-4.8-1.5-8.7-3.4-11.6-5.9 c-0.5-0.4-0.9-0.8-1.3-1.2c-1-0.9-2-1.9-3.2-2.6c-3.2-1.8-7.3-1.4-10.5-0.8c-3.3,0.5-6.6,1.3-9.7,2.1c-0.8,0.2-1.6,0.4-2.3,0.6 c-2.3,0.5-4.5,1.1-6.8,1.5c-6.1,1.1-12.3,0.7-17,0.3c-1.8-0.2-3.5-0.4-5.6-0.7L150,58c-9.6-1.3-18.8-2.6-26.7-5.6 c-9.3-3.6-17.7-8.9-25.8-14.2c-8.2-5.3-16.7-10.7-26-14.3c-11.1-4.2-22.6-6.1-33.2-5.5C26.2,19,15.6,23,7.7,29.7l0.1,0.1 c7.9-6.8,18.5-10.7,30.5-11.3c10.7-0.6,22.1,1.3,33.2,5.5c9.4,3.6,17.8,9,26,14.2c8.1,5.2,16.5,10.6,25.8,14.2 c7.9,3,17,4.3,26.7,5.6l1.7,0.2c2.1,0.3,3.9,0.5,5.6,0.7c4.7,0.4,10.9,0.7,17-0.3c2.3-0.4,4.5-0.9,6.8-1.5c0.8-0.2,1.6-0.4,2.3-0.6 c3.2-0.8,6.4-1.6,9.7-2.1c3.2-0.5,7.2-0.9,10.4,0.8c1.2,0.7,2.2,1.6,3.2,2.6c0.4,0.4,0.9,0.8,1.3,1.2c2.9,2.5,6.8,4.4,11.7,5.9 c4.4,1.3,7.9,2.2,10.9,2.7c1,0.2,2,0.3,3,0.5c5.1,0.8,10.9,1.7,16.5,1.7C250.4,69.9,250.7,69.9,250.9,69.9z M260.9,66.5 c2.9-1.1,5.7-2.6,8.3-4.5c2.6-2,5.1-4.5,7.4-6.8c0.6-0.6,1.2-1.2,1.8-1.8c1-1,2-1.9,3-2.8c1.2-1.1,2.4-2.2,3.5-3.3 c0.9-0.9,1.7-1.8,2.7-2.8l0.1-0.1c1-1,2.1-2.2,3.3-3.4c1.5-1.6,2.7-3.3,4-5.1c0.2-0.3,0.4-0.5,0.6-0.8c1.6-2.2,3.5-4.6,6.2-6.7 c3.6-2.7,7.7-5,12-6.7c2.7-1.1,5.6-1.9,8.8-2.7c3.1-0.7,6.3-1.1,9.6-1.3c2.2-0.1,4.6-0.2,7-0.1c2.3,0.1,4.4,0.5,6.2,1.1 c3.7,1.2,7.3,3.2,10.8,6c3.5,2.8,6.7,6.2,9.8,9.5c0.5,0.5,0.9,1,1.4,1.5c0.4,0.5,0.9,1,1.4,1.5c0.9,1,1.9,2.1,2.9,3.1 c2.5,2.4,4.6,3.9,6.7,4.7c5.8,2.2,12.3,2.1,18.4,1.9c8.4-0.3,17.4-0.3,26.3,2c8.5,2.2,16.7,6.2,23.5,11.5l0.1-0.2 c-6.9-5.3-15-9.3-23.6-11.5c-8.9-2.3-18-2.3-26.4-2c-6.1,0.2-12.6,0.3-18.4-1.9c-2.1-0.8-4.2-2.2-6.6-4.6c-1-1-2-2.1-2.9-3.1 c-0.5-0.5-0.9-1-1.4-1.5c-0.5-0.5-0.9-1-1.4-1.5c-3.1-3.3-6.3-6.7-9.9-9.5c-3.6-2.8-7.2-4.8-10.9-6c-1.9-0.6-3.9-1-6.3-1.1 c-2.4-0.1-4.8,0-7,0.1c-3.3,0.2-6.5,0.6-9.6,1.3c-3.1,0.7-6.1,1.6-8.8,2.7c-4.4,1.7-8.5,4-12.1,6.7c-2.8,2.1-4.7,4.6-6.3,6.7 c-0.2,0.3-0.4,0.5-0.6,0.8c-1.3,1.8-2.6,3.5-4,5.1c-1.1,1.2-2.2,2.3-3.3,3.4l-0.1,0.1c-1,1-1.9,1.9-2.7,2.8 c-1.1,1.1-2.2,2.2-3.5,3.3c-1,0.9-2,1.8-3,2.8c-0.6,0.6-1.2,1.2-1.8,1.8c-2.2,2.2-4.8,4.8-7.4,6.8c-2.5,1.9-5.3,3.4-8.2,4.5 c-3.6,1.3-7.6,1.9-12.3,1.8c-5.3-0.1-10.7-1.1-16.3-2.1l-0.6-0.1c-1.1-0.2-2.1-0.4-3-0.6c-3.4-0.7-7-1.7-10.8-2.9 c-4.9-1.4-8.8-3.3-11.7-5.7c-0.5-0.4-0.9-0.8-1.3-1.2c-1-0.9-2.1-1.8-3.3-2.5c-3.3-1.7-7.4-1.3-10.6-0.7c-3.4,0.6-6.8,1.4-10,2.2 c-0.7,0.2-1.4,0.3-2.1,0.5c-2.2,0.5-4.5,1.1-6.8,1.5c-4.9,0.9-10.3,1.1-17,0.6c-1.8-0.1-3.6-0.4-5.6-0.6c-1.9-0.2-3.8-0.5-5.6-0.7 c-8.2-1-15.9-1.9-22.6-4.3c-9.2-3.3-17.5-8.5-25.5-13.6c-7.7-4.9-15.7-10-24.6-13.3c-10.7-4-21.7-5.7-32-5 C27.3,20.5,17.4,24.3,9.6,31l0.1,0.1C17.5,24.5,27.3,20.7,39,20C49.3,19.3,60.3,21,71,25c8.8,3.3,16.8,8.4,24.6,13.3 c8,5.1,16.3,10.3,25.5,13.6c6.7,2.4,14.4,3.3,22.6,4.3c1.8,0.2,3.7,0.5,5.6,0.7c2,0.3,3.8,0.5,5.6,0.6c6.7,0.5,12.1,0.3,17-0.6 c2.3-0.4,4.6-1,6.8-1.5c0.7-0.2,1.4-0.3,2.1-0.5c3.3-0.8,6.6-1.7,10-2.2c3.2-0.5,7.3-0.9,10.5,0.7c1.2,0.6,2.3,1.6,3.3,2.5 c0.4,0.4,0.9,0.8,1.3,1.2c2.9,2.3,6.9,4.3,11.7,5.7c3.8,1.1,7.4,2.2,10.8,2.9c0.9,0.2,1.9,0.4,3,0.6l0.6,0.1c5.7,1,11.1,2,16.4,2.1 c0.3,0,0.6,0,0.9,0C253.7,68.3,257.5,67.7,260.9,66.5z M258.3,65.4c3-1,5.7-2.3,8.3-4.2c2.4-1.7,4.9-4,7-6c0.8-0.8,1.6-1.5,2.3-2.1 c1.1-1,2.2-1.9,3.3-2.8c1.1-0.9,2.2-1.8,3.2-2.7c1-0.9,1.9-1.7,2.7-2.5c1.1-1,2.3-2,3.5-3.3c1.7-1.7,3.1-3.5,4.6-5.5l0.2-0.3 c1.7-2.2,3.6-4.6,6.3-6.7c3.6-2.8,7.6-5.1,11.9-6.9c2.7-1.1,5.5-2.1,8.6-2.9c3-0.8,6.2-1.4,9.4-1.7c2.1-0.2,4.5-0.4,6.9-0.3 c2.3,0,4.3,0.3,6.2,0.9c3.8,1.1,7.4,2.9,10.9,5.6c3.7,2.8,7,6.2,10.3,9.6c0.4,0.4,0.8,0.8,1.2,1.2c0.5,0.5,0.9,1,1.4,1.5 c0.9,1,1.9,2,2.9,3c1.6,1.5,3.9,3.6,6.7,4.7c5.9,2.3,12.4,2.3,18.5,1.9c9.1-0.5,17.9-0.8,26.9,1.2c8.8,2,17.2,5.9,24.3,11.2l0.1-0.2 c-7.1-5.3-15.6-9.2-24.4-11.2c-9-2.1-17.9-1.8-27-1.2c-6.1,0.4-12.5,0.4-18.4-1.9c-2.7-1-5.1-3.1-6.6-4.6c-1-1-2-2-2.9-3 c-0.5-0.5-0.9-1-1.4-1.5c-0.4-0.4-0.8-0.8-1.2-1.2c-3.2-3.4-6.6-6.9-10.3-9.6c-3.6-2.7-7.2-4.5-11-5.6c-1.9-0.6-3.9-0.8-6.3-0.9 c-2.4-0.1-4.8,0.1-6.9,0.3c-3.2,0.3-6.4,0.9-9.4,1.7c-3.1,0.8-5.9,1.8-8.6,2.9c-4.3,1.8-8.3,4.2-11.9,6.9c-2.7,2.1-4.6,4.4-6.3,6.7 l-0.2,0.3c-1.5,2-2.9,3.8-4.6,5.4c-1.2,1.2-2.4,2.3-3.5,3.2c-0.8,0.8-1.7,1.6-2.7,2.5c-1,0.9-2.1,1.8-3.2,2.7 c-1.1,0.9-2.2,1.8-3.3,2.8c-0.7,0.7-1.5,1.4-2.3,2.1c-2.3,2.1-4.6,4.3-7,6c-2.6,1.8-5.3,3.2-8.3,4.1c-3.6,1.1-7.6,1.6-12.2,1.3 c-4.9-0.3-9.9-1.3-15.2-2.4l-1.6-0.3c-1.1-0.2-2.1-0.4-3-0.6c-2.4-0.5-4.9-1.3-7.5-2.1c-1.1-0.3-2.2-0.6-3.3-1 c-4.9-1.4-8.9-3.3-11.8-5.5c-0.5-0.4-0.9-0.7-1.4-1.1c-1-0.9-2.1-1.7-3.3-2.4c-3.3-1.6-7.5-1.2-10.7-0.6c-3.5,0.6-7,1.5-10.4,2.3 c-0.6,0.1-1.2,0.3-1.7,0.4l-0.4,0.1c-2.1,0.5-4.2,1.1-6.4,1.5c-5,1-10.5,1.3-17,0.8c-1.8-0.1-3.7-0.4-5.4-0.6l-0.2,0 c-2.8-0.4-5.6-0.6-8.3-0.9c-7.2-0.7-13.9-1.4-19.7-3.3c-9.1-2.9-17.2-8-25-12.9c-7.3-4.6-14.9-9.3-23.2-12.3 c-10.3-3.7-20.9-5.3-30.8-4.5C28.5,22,19,25.7,11.5,32.3l0.1,0.1c7.4-6.5,16.9-10.2,28.2-11.1c9.8-0.7,20.5,0.8,30.7,4.5 c8.4,3,15.9,7.7,23.2,12.3c7.8,4.9,16,10,25.1,13c5.8,1.9,12.6,2.6,19.8,3.3c2.7,0.3,5.5,0.6,8.3,0.9l0.2,0c1.8,0.2,3.6,0.5,5.4,0.6 c6.5,0.5,12,0.2,17-0.8c2.1-0.4,4.3-1,6.4-1.5l0.4-0.1c0.6-0.1,1.2-0.3,1.7-0.4c3.4-0.9,6.9-1.8,10.4-2.3c3.2-0.6,7.3-1,10.6,0.6 c1.2,0.6,2.3,1.5,3.3,2.3c0.4,0.4,0.9,0.8,1.4,1.1c2.9,2.2,6.9,4.1,11.8,5.5c1.1,0.3,2.2,0.6,3.3,1c2.6,0.8,5.1,1.5,7.5,2.1 c0.9,0.2,1.9,0.4,3,0.6l1.6,0.3c5.3,1.1,10.3,2.1,15.2,2.4c0.9,0.1,1.7,0.1,2.6,0.1C252.2,66.8,255.4,66.3,258.3,65.4z M255.8,64.3 c3.1-0.8,5.8-2.1,8.4-3.8c2.3-1.5,4.5-3.5,6.7-5.4c1-0.9,1.9-1.7,2.8-2.4c1.2-1,2.4-1.9,3.6-2.7c1.1-0.8,2.1-1.5,3-2.2 c0.9-0.7,1.7-1.4,2.6-2.1l0.1-0.1c1.1-0.8,2.3-1.8,3.5-3c1.7-1.6,3.3-3.4,4.9-5.5c1.9-2.3,3.8-4.6,6.4-6.6c3.6-2.8,7.6-5.2,11.8-7.1 c2.6-1.2,5.3-2.3,8.4-3.2c3-1,6-1.6,9.2-2c2.1-0.3,4.4-0.5,6.8-0.6c2.2,0,4.3,0.2,6.2,0.7c3.8,1,7.4,2.7,11,5.2 c3.8,2.7,7.3,6.3,10.6,9.7l0.9,1c0.5,0.5,1,1,1.5,1.5c0.9,1,1.9,2,2.9,3c1.6,1.5,4,3.6,6.7,4.7c6.3,2.5,13.2,2.3,18.5,1.9 c8.9-0.7,18.2-1.4,27.6,0.4c9.1,1.8,17.8,5.6,25.1,10.8l0.1-0.2c-7.4-5.3-16.1-9-25.2-10.9c-9.4-1.9-18.7-1.1-27.6-0.5 c-5.3,0.4-12.1,0.6-18.4-1.9c-2.7-1.1-5.1-3.2-6.6-4.7c-1-1-2-2-2.9-3c-0.5-0.5-1-1-1.5-1.5l-0.9-1c-3.4-3.4-6.8-7-10.7-9.7 c-3.6-2.6-7.2-4.3-11.1-5.2c-1.9-0.5-4-0.7-6.2-0.7c-2.4,0-4.7,0.3-6.8,0.6c-3.2,0.4-6.2,1.1-9.2,2c-3.1,1-5.8,2-8.4,3.2 c-4.2,1.9-8.2,4.3-11.8,7.1c-2.6,2-4.5,4.3-6.4,6.6c-1.7,2.1-3.2,3.9-4.9,5.5c-1.2,1.1-2.5,2.1-3.5,3l-0.1,0.1 c-0.9,0.7-1.8,1.4-2.6,2.1c-0.9,0.8-1.9,1.5-3,2.2c-1.2,0.8-2.4,1.7-3.6,2.7c-0.9,0.7-1.8,1.5-2.8,2.4c-2.2,1.9-4.4,3.9-6.7,5.4 c-2.6,1.7-5.3,3-8.3,3.8c-3.6,1-7.5,1.2-12.1,0.8c-4.6-0.4-9.2-1.5-14-2.7c-0.8-0.2-1.7-0.4-2.5-0.6c-1.1-0.3-2-0.5-2.9-0.7 c-1.8-0.5-3.6-1-5.6-1.6c-1.7-0.5-3.4-1-5.2-1.5c-4.9-1.4-8.9-3.2-11.9-5.3c-0.5-0.3-0.9-0.7-1.4-1.1c-1-0.8-2.1-1.7-3.4-2.3 c-3.4-1.5-7.6-1.1-10.8-0.5c-3.6,0.6-7.2,1.6-10.7,2.5l-2.3,0.6c-1.9,0.5-3.9,1-5.9,1.4c-5.2,1.1-10.7,1.5-17,1 c-1.7-0.1-3.4-0.3-5.1-0.5l-0.6-0.1c-3.5-0.4-6.9-0.7-10.3-0.9c-6.4-0.5-12.5-0.9-17.6-2.4c-9-2.6-16.9-7.5-24.6-12.3 c-6.9-4.3-14-8.7-21.9-11.4c-9.9-3.4-20.1-4.8-29.6-4c-10.8,0.9-20,4.6-27.1,11l0.1,0.1c7.1-6.4,16.2-10,27-11 c9.4-0.8,19.6,0.6,29.5,4c7.9,2.7,15,7.2,21.9,11.4c7.7,4.8,15.6,9.7,24.6,12.3c5.2,1.5,11.3,2,17.7,2.4c3.3,0.2,6.8,0.5,10.2,0.9 l0.6,0.1c1.7,0.2,3.4,0.4,5.1,0.5c6.3,0.4,11.9,0.1,17-1c2-0.4,4-0.9,5.9-1.4l2.3-0.6c3.5-0.9,7.1-1.8,10.7-2.5 c3.2-0.6,7.4-1,10.7,0.5c1.3,0.6,2.3,1.4,3.4,2.2c0.5,0.4,0.9,0.7,1.4,1.1c3,2.1,7,3.9,11.9,5.3c1.8,0.5,3.5,1,5.2,1.5 c1.9,0.6,3.8,1.2,5.6,1.6c0.9,0.2,1.9,0.5,2.9,0.7c0.8,0.2,1.7,0.4,2.5,0.6c4.9,1.2,9.5,2.3,14.1,2.7c1.4,0.1,2.8,0.2,4.1,0.2 C250.7,65.3,253.3,65,255.8,64.3z M253.3,63.2c3.1-0.7,5.9-1.8,8.4-3.5c2.2-1.4,4.3-3.1,6.4-4.9c1.1-0.9,2.2-1.8,3.2-2.6 c1.3-1,2.6-1.8,3.8-2.6c1-0.6,1.9-1.2,2.8-1.8c0.7-0.5,1.4-1,2.1-1.5l0.6-0.4c1.1-0.7,2.3-1.6,3.6-2.7c1.9-1.6,3.6-3.6,5.1-5.3 c2-2.4,3.9-4.6,6.5-6.6c3.7-2.8,7.6-5.3,11.6-7.4c2.5-1.3,5.2-2.4,8.2-3.5c3-1.1,5.9-1.9,9-2.4c2-0.3,4.3-0.7,6.7-0.8 c2.2-0.1,4.3,0,6.1,0.4c3.9,0.8,7.5,2.4,11.1,4.8c4,2.7,7.6,6.3,11,9.8l0.7,0.7c0.5,0.5,1,1,1.5,1.6c0.9,1,1.9,2,2.9,2.9 c1.6,1.5,4,3.6,6.7,4.7c5.1,2,11,2.7,18.5,1.9l1.3-0.1c9.2-0.9,17.9-1.7,26.9-0.2c9.3,1.6,18.3,5.3,26,10.5l0.1-0.2 c-7.7-5.3-16.7-8.9-26-10.5c-9-1.5-17.7-0.7-26.9,0.2l-1.3,0.1c-7.5,0.7-13.4,0.1-18.4-1.9c-2.7-1.1-5.1-3.2-6.7-4.7 c-1-0.9-2-1.9-2.9-2.9c-0.5-0.5-1-1.1-1.5-1.6l-0.7-0.7c-3.5-3.5-7.1-7.1-11.1-9.8c-3.6-2.4-7.3-4-11.2-4.9c-1.9-0.4-4-0.6-6.2-0.4 c-2.4,0.1-4.8,0.5-6.7,0.8c-3.1,0.5-6,1.3-9,2.4c-3,1.1-5.7,2.2-8.2,3.5c-4.1,2-8,4.5-11.7,7.4c-2.5,2-4.4,4.1-6.5,6.6 c-1.5,1.7-3.2,3.7-5.1,5.3c-1.3,1.1-2.5,2-3.6,2.7l-0.6,0.4c-0.7,0.5-1.4,1-2.1,1.5c-0.8,0.6-1.8,1.2-2.7,1.8 c-1.2,0.8-2.5,1.6-3.8,2.6c-1,0.8-2.1,1.6-3.2,2.6c-2.1,1.7-4.2,3.5-6.4,4.9c-2.6,1.6-5.3,2.7-8.4,3.4c-3.6,0.8-7.5,0.9-11.9,0.3 c-4.2-0.6-8.5-1.7-13-2.9c-1.1-0.3-2.2-0.6-3.3-0.9c-1.1-0.3-2-0.5-2.9-0.8c-1.4-0.4-2.8-0.9-4.3-1.4c-2-0.7-4.1-1.3-6.3-2 c-4.9-1.4-8.9-3.1-12-5.1c-0.5-0.3-1-0.7-1.4-1c-1.1-0.8-2.2-1.6-3.4-2.1c-3.4-1.5-7.6-1-10.9-0.4c-3.8,0.7-7.5,1.7-11.1,2.6l-1,0.3 c-0.4,0.1-0.9,0.2-1.3,0.4c-1.8,0.5-3.6,1-5.4,1.4c-5.3,1.2-11,1.6-17,1.3c-1.6-0.1-3.2-0.3-4.8-0.5l-0.9-0.1 c-4-0.5-7.9-0.6-11.8-0.8c-5.8-0.3-11.3-0.5-16-1.7c-8.8-2.3-16.5-7-24-11.5c-6.5-4-13.3-8.1-20.7-10.6c-9.5-3.2-19.3-4.4-28.4-3.5 c-10.4,1-19.1,4.7-25.9,10.9l0.1,0.1c6.8-6.2,15.5-9.8,25.8-10.8c9-0.9,18.8,0.3,28.3,3.5c7.4,2.5,14.2,6.6,20.7,10.6 c7.5,4.6,15.2,9.3,24.1,11.6c4.7,1.2,10.2,1.4,16,1.7c3.8,0.2,7.8,0.3,11.7,0.8l0.9,0.1c1.6,0.2,3.2,0.4,4.8,0.5 c6,0.4,11.8-0.1,17-1.3c1.8-0.4,3.7-0.9,5.4-1.4c0.4-0.1,0.9-0.2,1.3-0.4l1-0.3c3.6-1,7.4-2,11.1-2.6c3.3-0.6,7.4-1.1,10.8,0.4 c1.3,0.5,2.4,1.3,3.4,2.1c0.5,0.3,0.9,0.7,1.4,1c3,2,7.1,3.8,12,5.1c2.2,0.6,4.3,1.3,6.3,2c1.5,0.5,2.9,1,4.4,1.4 c0.9,0.3,1.9,0.5,2.9,0.8c1.1,0.3,2.2,0.6,3.3,0.9c4.5,1.2,8.8,2.4,13,2.9c1.9,0.3,3.8,0.4,5.5,0.4 C249.1,63.9,251.2,63.7,253.3,63.2z M250.7,62.1c3.1-0.6,5.9-1.6,8.5-3.1c2.1-1.2,4.2-2.8,6.2-4.4c1.3-1,2.4-1.9,3.6-2.7 c1.4-1,2.8-1.7,4.1-2.4c0.9-0.5,1.8-0.9,2.5-1.4c0.6-0.4,1.2-0.7,1.8-1.1c0.3-0.2,0.6-0.3,0.9-0.5c0.9-0.5,2.3-1.4,3.7-2.4 c2-1.5,3.7-3.4,5.2-5.1c1.9-2.2,3.9-4.5,6.5-6.5c3.6-2.8,7.6-5.5,11.5-7.6c2.4-1.3,5-2.6,8-3.8c2.9-1.2,5.8-2.1,8.8-2.7 c1.9-0.4,4.2-0.8,6.6-1.1c2.2-0.2,4.2-0.1,6.1,0.2c3.9,0.7,7.6,2.2,11.2,4.4c4.1,2.6,7.8,6.3,11.4,9.9l0.5,0.5c0.5,0.5,1,1,1.6,1.6 c0.9,0.9,1.9,1.9,2.9,2.9c2.6,2.4,4.6,3.8,6.7,4.7c5.2,2.1,11.3,2.8,18.5,2c1-0.1,2-0.2,2.9-0.3c8.8-1,17.2-2,25.9-0.7 c9.6,1.4,18.8,4.9,26.8,10.2l0.1-0.2c-8-5.2-17.2-8.8-26.8-10.2c-8.7-1.3-17.1-0.3-25.9,0.7c-1,0.1-2,0.2-2.9,0.3 c-7.2,0.8-13.2,0.2-18.5-1.9c-2.1-0.9-4.1-2.3-6.7-4.7c-1-0.9-2-1.9-2.9-2.9c-0.5-0.5-1.1-1.1-1.6-1.6l-0.5-0.5 c-3.6-3.6-7.3-7.2-11.5-9.9c-3.6-2.3-7.4-3.8-11.3-4.5c-1.9-0.3-4-0.4-6.2-0.2c-2.4,0.2-4.7,0.7-6.7,1.1c-3,0.6-5.9,1.5-8.8,2.8 c-3,1.2-5.6,2.5-8,3.8c-4,2.1-7.8,4.7-11.5,7.6c-2.6,2-4.6,4.3-6.6,6.5c-1.5,1.7-3.3,3.6-5.2,5.1c-1.4,1.1-2.8,1.9-3.7,2.4 c-0.3,0.2-0.6,0.3-0.9,0.5c-0.6,0.4-1.2,0.7-1.8,1.1c-0.8,0.5-1.6,0.9-2.5,1.4c-1.3,0.7-2.7,1.4-4.1,2.4c-1.1,0.8-2.3,1.7-3.6,2.7 c-2,1.6-4.1,3.2-6.2,4.4c-2.6,1.5-5.3,2.5-8.4,3.1c-3.5,0.7-7.4,0.6-11.8-0.2c-3.9-0.7-7.8-1.9-12-3.1c-1.3-0.4-2.7-0.8-4.1-1.2 c-1-0.3-2-0.6-2.9-0.9c-1.1-0.4-2.2-0.8-3.4-1.2c-2.3-0.8-4.6-1.6-7.2-2.3c-4.9-1.3-9-3-12.1-4.9c-0.5-0.3-1-0.6-1.4-1 c-1.1-0.8-2.2-1.5-3.5-2c-3.5-1.4-7.7-0.9-11-0.3c-3.9,0.7-7.8,1.8-11.6,2.8l-0.6,0.2c-0.6,0.2-1.2,0.3-1.8,0.5 c-1.6,0.4-3.3,0.9-5,1.3c-5.4,1.3-11.1,1.8-17,1.5c-1.5-0.1-3.1-0.3-4.5-0.4c-0.4,0-0.7-0.1-1.1-0.1c-4.4-0.5-8.8-0.5-12.9-0.6 c-5.3-0.1-10.3-0.1-14.6-1.1C103.5,47,96,42.5,88.7,38.1c-6.1-3.7-12.5-7.5-19.5-9.8c-9.1-2.9-18.5-4-27.1-3 c-9.9,1.1-18.3,4.7-24.8,10.8l0.1,0.1c6.5-6,14.8-9.6,24.7-10.7c8.6-1,18,0.1,27.1,3c7,2.2,13.3,6.1,19.5,9.8 c7.3,4.4,14.8,8.9,23.5,10.8c4.3,1,9.3,1,14.7,1.1c4.2,0,8.5,0.1,12.9,0.6c0.4,0,0.7,0.1,1.1,0.1c1.5,0.2,3,0.3,4.6,0.4 c5.9,0.3,11.6-0.2,17-1.5c1.7-0.4,3.3-0.9,5-1.3c0.6-0.2,1.2-0.3,1.8-0.5l0.6-0.2c3.8-1,7.6-2.1,11.5-2.8c3.3-0.6,7.5-1.1,10.9,0.2 c1.3,0.5,2.4,1.3,3.5,2c0.5,0.3,0.9,0.7,1.4,1c3.1,1.9,7.1,3.6,12.1,4.9c2.6,0.7,4.9,1.5,7.2,2.3c1.2,0.4,2.3,0.8,3.4,1.2 c0.9,0.3,1.8,0.6,2.9,0.9c1.4,0.4,2.8,0.8,4.1,1.2c4.1,1.3,8.1,2.4,12,3.1c2.4,0.4,4.7,0.6,6.8,0.6 C247.4,62.5,249.1,62.4,250.7,62.1z M248.2,61c3.2-0.4,6-1.3,8.6-2.7c2-1.1,4-2.6,6-4c1.4-1,2.7-2,3.9-2.7c1.5-0.9,3-1.6,4.3-2.1 c0.8-0.4,1.6-0.7,2.3-1.1c0.5-0.3,1-0.5,1.6-0.8c0.3-0.2,0.7-0.3,1.1-0.5c1.4-0.7,2.6-1.4,3.7-2.2c1.7-1.1,3.3-2.7,5.4-4.9l0.4-0.4 c1.9-2,3.8-4.1,6.2-6.1c3.6-2.9,7.6-5.6,11.4-7.8c2.3-1.4,4.9-2.7,7.8-4.1c2.9-1.3,5.7-2.4,8.6-3.1c1.8-0.4,4.1-1,6.5-1.3 c2.1-0.3,4.2-0.3,6.1,0c3.9,0.5,7.7,1.9,11.3,4.1c4.3,2.6,8.1,6.3,11.8,9.9l0.3,0.3c0.5,0.5,1.1,1.1,1.6,1.6C358,34,359,35,360,35.9 c2.6,2.4,4.7,3.8,6.8,4.7c5.3,2.2,11.6,2.9,18.6,2c1.4-0.2,2.9-0.4,4.3-0.6c8.6-1.2,16.6-2.3,25.1-1.3c9.8,1.2,19.4,4.6,27.6,9.8 l0.1-0.2c-8.2-5.2-17.8-8.6-27.7-9.9c-8.5-1-16.6,0.1-25.2,1.3c-1.4,0.2-2.8,0.4-4.3,0.6c-6.9,0.9-13.2,0.2-18.5-2 c-2.1-0.9-4.2-2.3-6.7-4.7c-1-0.9-1.9-1.9-2.9-2.8c-0.6-0.6-1.1-1.1-1.6-1.6l-0.3-0.3c-3.7-3.6-7.5-7.3-11.8-9.9 c-3.6-2.2-7.4-3.6-11.4-4.1c-1.9-0.3-4-0.3-6.1,0c-2.5,0.3-4.8,0.9-6.6,1.3c-2.9,0.7-5.7,1.8-8.6,3.1c-2.9,1.4-5.5,2.7-7.8,4.1 c-3.8,2.2-7.7,4.9-11.4,7.8c-2.5,1.9-4.4,4-6.3,6.1l-0.4,0.4c-2.1,2.2-3.7,3.7-5.4,4.9c-1.1,0.8-2.3,1.5-3.7,2.2 c-0.4,0.2-0.7,0.3-1.1,0.5c-0.5,0.3-1.1,0.5-1.6,0.8c-0.7,0.4-1.5,0.7-2.3,1.1c-1.3,0.6-2.8,1.2-4.4,2.2c-1.2,0.7-2.5,1.7-3.9,2.7 c-2,1.4-4,2.9-6,4c-2.6,1.4-5.4,2.3-8.5,2.7c-3.5,0.5-7.3,0.3-11.7-0.7c-3.6-0.8-7.2-2-11-3.3c-1.6-0.5-3.2-1.1-4.8-1.6 c-1-0.3-2-0.6-2.8-1c-0.9-0.3-1.8-0.7-2.8-1c-2.5-0.9-5-1.9-7.8-2.6c-5-1.3-9-2.9-12.1-4.7c-0.5-0.3-1-0.6-1.4-0.9 c-1.1-0.7-2.2-1.5-3.6-1.9c-3.5-1.3-7.8-0.8-11.1-0.1c-4.2,0.8-8.2,1.9-12.2,3c-0.7,0.2-1.5,0.4-2.2,0.6c-1.5,0.4-3,0.9-4.5,1.2 c-5.6,1.4-11.3,2-17,1.7c-1.5-0.1-2.9-0.2-4.4-0.4c-0.4,0-0.8-0.1-1.3-0.1c-4.8-0.5-9.4-0.4-13.9-0.3c-4.9,0.1-9.5,0.2-13.5-0.5 c-8.4-1.5-15.7-5.9-22.8-10c-5.8-3.4-11.8-7-18.4-9C60,26.5,51,25.7,42.8,26.7c-9.5,1.2-17.4,4.8-23.6,10.7l0.1,0.1 c6.2-5.9,14.1-9.4,23.5-10.6c8.2-1,17.1-0.2,25.8,2.5c6.6,2,12.6,5.5,18.4,9c7.1,4.2,14.4,8.5,22.8,10c4,0.7,8.6,0.6,13.5,0.5 c4.5-0.1,9.1-0.2,13.9,0.3c0.4,0,0.8,0.1,1.3,0.1c1.4,0.2,2.9,0.3,4.4,0.4c5.7,0.3,11.5-0.3,17-1.8c1.5-0.4,3.1-0.8,4.5-1.2 c0.7-0.2,1.5-0.4,2.2-0.6c3.9-1.1,8-2.2,12.2-3c3.3-0.6,7.6-1.1,11,0.1c1.3,0.5,2.4,1.2,3.5,1.9c0.5,0.3,1,0.6,1.5,0.9 c3.1,1.9,7.1,3.4,12.2,4.7c2.8,0.7,5.4,1.7,7.8,2.6c1,0.4,1.9,0.7,2.8,1c0.9,0.3,1.8,0.6,2.9,1c1.6,0.5,3.3,1.1,4.8,1.6 c3.8,1.3,7.4,2.5,11,3.3c2.9,0.6,5.6,1,8,1C245.8,61.2,247,61.1,248.2,61z M245.7,59.9c3.2-0.3,6-1.1,8.6-2.4c1.9-1,3.9-2.3,5.8-3.6 c1.5-1,2.9-2,4.2-2.7c1.6-0.9,3.2-1.4,4.6-1.9c0.8-0.2,1.5-0.5,2.1-0.8c0.5-0.2,0.9-0.4,1.4-0.5c0.4-0.1,0.8-0.3,1.2-0.4 c1.3-0.5,2.6-1.2,3.8-1.9c1.7-1.1,3.5-2.6,5.5-4.7c0.3-0.3,0.5-0.5,0.8-0.8c1.8-1.9,3.7-3.8,5.9-5.6c3.7-3,7.6-5.7,11.2-8 c2.3-1.4,4.7-2.8,7.6-4.3c2.8-1.5,5.6-2.6,8.4-3.5c2.5-0.8,4.5-1.2,6.5-1.6c2.1-0.4,4.2-0.4,6.1-0.2c4,0.4,7.8,1.6,11.4,3.7 c4.4,2.5,8.4,6.3,12.2,10l0.1,0.1c0.6,0.5,1.1,1.1,1.7,1.6c0.9,0.9,1.9,1.9,2.9,2.8c2.6,2.4,4.7,3.8,6.8,4.7c5.5,2.3,11.8,3,18.6,2 c1.8-0.3,3.6-0.6,5.4-0.8c8.4-1.3,16.3-2.6,24.6-1.8c10.1,1,19.9,4.3,28.4,9.5l0.1-0.2C433,43.3,423.2,40,413,39 c-8.4-0.8-16.3,0.4-24.7,1.8c-1.8,0.3-3.6,0.6-5.4,0.8c-6.8,1-13,0.3-18.5-2c-2.1-0.9-4.2-2.3-6.7-4.7c-1-0.9-1.9-1.8-2.9-2.8 c-0.6-0.6-1.1-1.1-1.7-1.6l-0.1-0.1c-3.8-3.7-7.8-7.4-12.2-10c-3.6-2.1-7.5-3.3-11.5-3.7c-1.9-0.2-4-0.1-6.1,0.2 c-2,0.3-4,0.8-6.5,1.6c-2.8,0.8-5.6,2-8.4,3.5c-2.9,1.5-5.4,2.9-7.6,4.3c-3.7,2.3-7.6,5.1-11.2,8c-2.3,1.8-4.1,3.8-5.9,5.7 c-0.3,0.3-0.5,0.5-0.8,0.8c-2,2.1-3.8,3.6-5.5,4.7c-1.2,0.7-2.5,1.4-3.8,1.9c-0.4,0.2-0.8,0.3-1.2,0.4c-0.5,0.2-1,0.3-1.4,0.5 c-0.6,0.3-1.3,0.5-2.1,0.7c-1.4,0.5-3,1-4.6,1.9c-1.3,0.7-2.7,1.7-4.2,2.7c-1.9,1.3-3.9,2.7-5.8,3.6c-2.6,1.3-5.4,2.1-8.5,2.4 c-3.5,0.3-7.3-0.1-11.6-1.2c-3.3-0.9-6.6-2.1-10.1-3.4c-1.8-0.7-3.6-1.3-5.5-2c-1-0.3-1.9-0.7-2.8-1c-0.7-0.3-1.5-0.6-2.3-0.9 c-2.6-1-5.2-2.1-8.3-2.9c-5.1-1.3-9.1-2.8-12.2-4.5c-0.5-0.3-1-0.6-1.5-0.9c-1.1-0.7-2.3-1.4-3.6-1.8c-3.6-1.2-7.9-0.7-11.2,0 c-4,0.8-7.9,1.8-12.2,3c-0.9,0.2-1.8,0.5-2.6,0.8c-1.4,0.4-2.8,0.8-4.1,1.2c-5.7,1.5-11.4,2.2-17,2c-1.4-0.1-2.9-0.2-4.2-0.3 c-0.5,0-0.9-0.1-1.4-0.1c-9.4-0.9-18.4-0.4-25.7,0l-1.6,0.1c-6.4-2.3-12.3-5.3-18-8.2c-6.8-3.5-13.7-7-21.3-9.2 c-8.4-2.4-16.9-3.1-24.7-2c-9,1.3-16.6,4.8-22.5,10.5l0.1,0.1c5.8-5.7,13.4-9.2,22.3-10.5c7.8-1.1,16.3-0.4,24.6,2 c7.6,2.2,14.6,5.8,21.3,9.2c5.7,2.9,11.7,6,18.1,8.2l0,0l1.6-0.1c7.2-0.4,16.2-0.8,25.6,0c0.5,0,0.9,0.1,1.4,0.1 c1.4,0.1,2.8,0.3,4.3,0.3c5.6,0.2,11.3-0.4,17.1-2c1.4-0.4,2.8-0.8,4.1-1.2c0.9-0.3,1.8-0.5,2.6-0.8c4.3-1.2,8.2-2.3,12.2-3 c3.3-0.6,7.6-1.2,11.2,0c1.3,0.4,2.5,1.1,3.6,1.8c0.5,0.3,1,0.6,1.5,0.9c3.2,1.7,7.2,3.2,12.3,4.5c3,0.8,5.7,1.9,8.3,2.9 c0.8,0.3,1.5,0.6,2.3,0.9c0.9,0.3,1.8,0.7,2.8,1c1.9,0.6,3.7,1.3,5.5,2c3.5,1.3,6.8,2.5,10.1,3.4c3.3,0.9,6.4,1.3,9.2,1.3 C244,60,244.9,59.9,245.7,59.9z M243.1,58.8c3.2-0.2,6-0.8,8.7-2c1.9-0.9,3.8-2.1,5.7-3.3c1.6-1,3.1-2,4.5-2.6 c1.7-0.8,3.4-1.2,4.8-1.6c0.7-0.2,1.3-0.3,1.9-0.5c0.4-0.1,0.9-0.2,1.3-0.3c0.4-0.1,0.8-0.2,1.3-0.3c0.9-0.3,2.3-0.7,3.9-1.6 c1.8-1,3.6-2.5,5.7-4.5c0.4-0.4,0.8-0.8,1.2-1.2c1.7-1.7,3.5-3.5,5.6-5.2c3.7-3,7.6-5.9,11.1-8.3c2.2-1.5,4.5-2.9,7.4-4.6 c2.8-1.6,5.4-2.9,8.2-3.8c2.4-0.8,4.4-1.4,6.4-1.8c2.1-0.4,4.1-0.6,6-0.5c4,0.2,7.9,1.3,11.5,3.3c4.6,2.5,8.5,6.2,12.4,9.9 c0.6,0.5,1.1,1.1,1.7,1.7c0.9,0.9,1.9,1.8,2.8,2.7c2.6,2.4,4.7,3.8,6.8,4.7c5.6,2.4,12,3.1,18.6,2c2.1-0.4,4.3-0.7,6.4-1.1 c8.2-1.5,16-2.9,24.3-2.3c10.4,0.8,20.5,4,29.2,9.1l0.1-0.2c-8.8-5.2-18.9-8.4-29.3-9.2c-8.3-0.6-16.1,0.8-24.3,2.3 c-2.1,0.4-4.2,0.8-6.4,1.1c-6.6,1.1-13,0.4-18.5-2c-2.1-0.9-4.2-2.3-6.8-4.7c-1-0.9-1.9-1.8-2.8-2.7c-0.6-0.6-1.2-1.1-1.7-1.7 c-3.9-3.6-7.8-7.4-12.4-9.9c-3.7-2-7.6-3.1-11.6-3.3c-1.9-0.1-4,0-6.1,0.5c-1.9,0.4-4,1-6.4,1.8c-2.8,1-5.4,2.2-8.2,3.8 c-2.9,1.7-5.3,3.2-7.4,4.6c-3.5,2.4-7.4,5.2-11.1,8.3c-2.1,1.7-3.9,3.5-5.6,5.2c-0.4,0.4-0.8,0.8-1.2,1.2c-2,2-3.9,3.4-5.6,4.4 c-1.6,0.9-2.9,1.4-3.8,1.6c-0.5,0.1-0.9,0.2-1.3,0.3c-0.4,0.1-0.9,0.2-1.3,0.3c-0.6,0.2-1.2,0.3-1.9,0.5c-1.5,0.3-3.2,0.7-4.9,1.6 c-1.4,0.7-2.9,1.6-4.5,2.7c-1.9,1.2-3.8,2.4-5.7,3.3c-2.6,1.2-5.4,1.8-8.6,2c-3.5,0.2-7.2-0.4-11.5-1.7c-3.1-0.9-6.1-2.2-9.3-3.5 c-2-0.8-4-1.6-6.1-2.4c-1-0.4-1.9-0.7-2.8-1.1c-0.6-0.3-1.2-0.5-1.9-0.8c-2.7-1.2-5.4-2.3-8.6-3.2c-5.1-1.3-9.2-2.7-12.3-4.3 c-0.5-0.3-1-0.5-1.5-0.8c-1.2-0.6-2.3-1.3-3.7-1.7c-3.7-1.1-8-0.6-11.4,0.1c-4.2,0.8-8.3,2-12.2,3.1c-1,0.3-2,0.6-3,0.9 c-1.2,0.4-2.5,0.8-3.8,1.1c-5.9,1.6-11.6,2.4-17,2.2c-1.4,0-2.8-0.2-4.1-0.3c-0.5,0-1-0.1-1.5-0.1c-9.9-0.9-19.2,0-27.1,0.9 c-6.1-2-11.8-4.8-17.3-7.5C81.7,36.2,75,32.9,67.8,31c-8-2.1-16.1-2.7-23.5-1.5c-8.6,1.4-15.7,4.9-21.3,10.4l0.1,0.1 c5.5-5.5,12.6-9,21.2-10.4c7.4-1.2,15.5-0.7,23.4,1.5c7.2,1.9,13.6,5.1,20.3,8.3c5.5,2.7,11.2,5.5,17.3,7.5l0,0l0,0 c7.9-0.9,17.1-1.8,27.1-0.9c0.5,0,1,0.1,1.5,0.1c1.4,0.1,2.8,0.3,4.1,0.3c5.4,0.2,11.2-0.6,17.1-2.2c1.3-0.4,2.5-0.7,3.8-1.1 c1-0.3,2-0.6,3-0.9c3.9-1.1,8.1-2.3,12.2-3.1c3.3-0.6,7.7-1.2,11.3-0.1c1.3,0.4,2.5,1.1,3.6,1.7c0.5,0.3,1,0.5,1.5,0.8 c3.2,1.6,7.2,3.1,12.4,4.3c3.2,0.8,5.9,2,8.6,3.1c0.6,0.3,1.3,0.5,1.9,0.8c0.9,0.4,1.8,0.7,2.8,1.1c2.1,0.8,4.1,1.6,6.1,2.4 c3.2,1.3,6.3,2.6,9.3,3.5c3.8,1.2,7.1,1.7,10.3,1.7C242.3,58.8,242.7,58.8,243.1,58.8z M240.6,57.6c3.2,0,6.1-0.6,8.7-1.7 c1.8-0.8,3.7-1.9,5.6-3c1.7-1,3.3-2,4.7-2.6c1.8-0.8,3.6-1,5.1-1.2c0.6-0.1,1.1-0.2,1.6-0.2c0.4-0.1,0.8-0.1,1.2-0.2 c0.4-0.1,0.9-0.1,1.4-0.2c0.9-0.2,2.3-0.5,3.9-1.4c1.9-0.9,3.8-2.3,5.8-4.3c0.6-0.5,1.1-1.1,1.7-1.7c1.6-1.5,3.2-3.1,5.1-4.7 c3.9-3.2,7.6-6.1,10.9-8.5c2.7-1.9,5.3-3.6,7.2-4.9c2.7-1.8,5.3-3.1,8-4.2c2.3-0.9,4.3-1.6,6.3-2c2.1-0.5,4.1-0.7,6-0.7 c4,0.1,7.9,1.1,11.6,2.9c4.7,2.4,8.9,6.3,12.5,9.7c0.6,0.6,1.2,1.1,1.8,1.7c0.9,0.9,1.9,1.8,2.8,2.6c2.6,2.4,4.7,3.8,6.8,4.7 c5.7,2.5,12.1,3.2,18.7,2c2.4-0.4,4.9-0.9,7.2-1.4c8.1-1.6,15.8-3.2,24.1-2.7c10.6,0.6,21,3.6,30,8.8l0.1-0.2 c-9-5.2-19.5-8.3-30.1-8.8c-8.3-0.4-16,1.1-24.1,2.8c-2.3,0.5-4.8,1-7.2,1.4c-6.5,1.2-12.9,0.5-18.5-2c-2.1-0.9-4.2-2.4-6.8-4.7 c-1-0.9-1.9-1.8-2.8-2.6c-0.6-0.6-1.2-1.2-1.8-1.7c-3.7-3.4-7.9-7.3-12.6-9.7c-3.7-1.9-7.6-2.8-11.7-2.9c-1.9,0-4,0.2-6.1,0.7 c-2,0.5-4,1.1-6.3,2.1c-2.7,1.1-5.3,2.4-8,4.2c-2,1.3-4.6,3-7.2,4.9c-3.4,2.4-7,5.3-11,8.5c-1.9,1.5-3.5,3.1-5.1,4.7 c-0.6,0.6-1.1,1.1-1.7,1.6c-2,1.9-3.9,3.3-5.8,4.2c-1.6,0.8-3,1.2-3.9,1.3c-0.5,0.1-0.9,0.1-1.4,0.2c-0.4,0-0.8,0.1-1.2,0.2 c-0.5,0.1-1,0.2-1.6,0.2c-1.6,0.2-3.3,0.4-5.2,1.2c-1.4,0.6-3.1,1.6-4.8,2.6c-1.8,1.1-3.8,2.2-5.6,3c-2.6,1.1-5.4,1.6-8.7,1.6 c-0.1,0-0.1,0-0.2,0c-3.4,0-7.1-0.7-11.2-2.2c-2.8-1-5.6-2.3-8.6-3.6c-2.1-1-4.3-2-6.6-2.9c-0.9-0.4-1.9-0.8-2.8-1.2 c-0.5-0.2-1-0.5-1.6-0.7c-2.7-1.3-5.5-2.6-8.9-3.4c-5.2-1.3-9.2-2.6-12.4-4.1c-0.5-0.2-1-0.5-1.5-0.7c-1.2-0.6-2.4-1.2-3.8-1.6 c-3.7-1.1-8.1-0.4-11.5,0.2c-4.3,0.8-8.6,2.1-12.2,3.1c-1.1,0.3-2.3,0.7-3.4,1c-1.1,0.3-2.3,0.7-3.4,1c-6.1,1.8-11.6,2.6-17,2.4 c-1.3,0-2.7-0.2-4-0.3c-0.5,0-1.1-0.1-1.6-0.1c-10.5-0.8-20.4,0.6-26.9,1.7c-5.9-1.8-11.3-4.4-16.5-6.8c-6.4-3-12.5-5.8-19.3-7.5 c-16.8-4.2-32.7-0.7-42.4,9.3l0.1,0.1c9.7-10,25.4-13.4,42.2-9.3c6.8,1.7,12.9,4.5,19.3,7.5c5.2,2.4,10.7,5,16.5,6.8l0,0l0,0 c6.5-1.1,16.4-2.6,26.9-1.7c0.5,0,1.1,0.1,1.6,0.1c1.3,0.1,2.7,0.2,4,0.3c5.4,0.1,10.9-0.7,17.1-2.5c1.1-0.3,2.3-0.7,3.4-1 c1.1-0.3,2.3-0.7,3.4-1c3.7-1.1,7.9-2.3,12.2-3.1c3.4-0.7,7.7-1.3,11.4-0.2c1.3,0.4,2.5,1,3.7,1.6c0.5,0.2,1,0.5,1.5,0.7 c3.2,1.5,7.3,2.9,12.5,4.2c3.3,0.8,6.1,2.1,8.8,3.4c0.5,0.2,1.1,0.5,1.6,0.7c0.9,0.4,1.8,0.8,2.8,1.2c2.3,0.9,4.5,1.9,6.6,2.9 c3,1.3,5.7,2.6,8.6,3.6c4.2,1.5,7.8,2.2,11.3,2.2C240.5,57.6,240.6,57.6,240.6,57.6z M246.9,55.2c1.8-0.7,3.7-1.7,5.5-2.7 c1.8-1,3.5-1.9,5-2.5c1.9-0.7,3.9-0.7,5.4-0.8c0.5,0,1,0,1.4-0.1c0.4,0,0.8,0,1.2,0c0.4,0,0.9,0,1.4,0c1.2-0.1,2.6-0.5,4-1.1 c1.9-0.8,3.9-2.2,6-4c0.8-0.7,1.5-1.4,2.3-2.1c1.5-1.4,3-2.8,4.6-4.2c4.3-3.5,7.8-6.4,10.8-8.7c2.3-1.7,4.4-3.3,7-5.2 c2.7-1.9,5.2-3.4,7.8-4.5c2.2-1,4.3-1.7,6.2-2.3c2-0.6,4.1-0.9,6-0.9c4.1-0.1,8,0.8,11.7,2.5c4.8,2.3,9.2,6.3,12.7,9.5 c0.6,0.6,1.2,1.1,1.9,1.7c0.9,0.9,1.9,1.8,2.8,2.6c1.8,1.6,4.2,3.5,6.9,4.7c5.8,2.6,12.3,3.3,18.7,2.1c2.7-0.5,5.4-1.1,7.9-1.7 c8.1-1.8,15.7-3.5,24-3.2c10.9,0.4,21.5,3.3,30.8,8.5l0.1-0.2c-9.3-5.2-20-8.1-30.9-8.5c-8.3-0.3-15.9,1.4-24,3.2 c-2.6,0.6-5.2,1.2-7.9,1.7c-6.4,1.2-12.8,0.5-18.6-2c-2.7-1.2-5-3.1-6.8-4.7c-1-0.8-1.9-1.7-2.8-2.6c-0.6-0.6-1.2-1.2-1.9-1.7 c-3.5-3.2-7.9-7.2-12.7-9.6c-3.7-1.8-7.7-2.6-11.8-2.5c-2,0-4,0.3-6,0.9c-2,0.6-4,1.3-6.2,2.3c-2.6,1.2-5.1,2.6-7.8,4.5 c-2.6,1.9-4.8,3.4-7,5.2c-3,2.3-6.5,5.2-10.8,8.7c-1.7,1.4-3.2,2.8-4.6,4.2c-0.8,0.7-1.5,1.4-2.3,2.1c-2,1.8-4,3.2-5.9,4 c-1.3,0.6-2.7,1-3.9,1.1c-0.5,0-1,0-1.4,0c-0.4,0-0.8,0-1.2,0c-0.4,0-0.9,0-1.4,0.1c-1.6,0-3.5,0.1-5.5,0.8c-1.5,0.5-3.2,1.5-5,2.5 c-1.8,1-3.7,2.1-5.5,2.7c-2.6,1-5.5,1.4-8.7,1.3c-3.4-0.1-7.1-1-11.3-2.7c-2.6-1.1-5.2-2.3-7.9-3.7c-2.3-1.1-4.6-2.3-7.1-3.4 c-0.9-0.4-1.8-0.8-2.7-1.3c-0.4-0.2-0.9-0.4-1.3-0.7c-2.8-1.4-5.6-2.8-9.1-3.6c-5.3-1.3-9.3-2.5-12.5-3.9c-0.5-0.2-1-0.5-1.5-0.7 c-1.2-0.6-2.4-1.2-3.8-1.5c-3.8-1-8.2-0.3-11.6,0.3c-4.2,0.8-8.4,2-12.3,3.2c-1.2,0.4-2.5,0.8-3.7,1.2c-1,0.3-2,0.6-3,1 c-6.2,1.9-11.8,2.8-17,2.7c-1.3,0-2.6-0.1-3.9-0.3c-0.6-0.1-1.2-0.1-1.7-0.1c-8.2-0.6-17.2,0.3-26.8,2.6c-5.6-1.6-10.7-3.9-15.7-6.1 c-6.1-2.7-11.9-5.2-18.4-6.7c-7.2-1.6-14.5-1.8-21-0.5c-7.7,1.5-14.1,5-19,10.2l0.1,0.1c4.9-5.2,11.2-8.6,18.9-10.1 c6.5-1.3,13.8-1.1,21,0.5c6.5,1.5,12.2,4,18.3,6.7c5,2.2,10.1,4.5,15.7,6.1l0,0l0,0c9.6-2.3,18.6-3.2,26.7-2.6 c0.6,0,1.2,0.1,1.7,0.1c1.3,0.1,2.6,0.2,3.9,0.3c5.2,0.1,10.8-0.8,17.1-2.7c1-0.3,2-0.6,3-1c1.2-0.4,2.5-0.8,3.7-1.2 c3.9-1.2,8-2.4,12.2-3.2c3.4-0.7,7.7-1.3,11.5-0.3c1.4,0.4,2.5,0.9,3.8,1.5c0.5,0.2,1,0.5,1.5,0.7c3.2,1.4,7.2,2.7,12.6,4 c3.5,0.8,6.3,2.2,9,3.6c0.4,0.2,0.9,0.4,1.3,0.7c0.9,0.4,1.8,0.9,2.7,1.3c2.5,1.1,4.8,2.2,7.1,3.3c2.7,1.3,5.3,2.6,7.9,3.7 c4.2,1.7,7.9,2.6,11.3,2.7c0.4,0,0.7,0,1.1,0C242,56.6,244.5,56.1,246.9,55.2z M244.4,54.5c1.7-0.6,3.6-1.5,5.4-2.5 c1.9-1,3.7-1.9,5.2-2.3c2-0.6,4.3-0.7,6.8-0.3c0.8,0.1,1.5,0.2,2.6,0.2c1.2,0,2.6-0.3,4.1-0.8c2-0.8,4.1-2,6.1-3.8 c1-0.8,1.9-1.7,2.9-2.6c1.3-1.2,2.6-2.4,4.1-3.6c1.2-1,2.4-2,3.6-3c2.5-2.1,4.9-4.1,7.1-5.9c2.2-1.9,4.4-3.6,6.6-5.2l0.3-0.2 c2.6-2.1,5-3.6,7.6-4.9c2.2-1.1,4.2-1.9,6.1-2.5c2-0.6,4-1,6-1.1c4.1-0.2,8.1,0.5,11.8,2.1c4.6,2,8.5,5.4,12.9,9.4 c0.6,0.6,1.3,1.2,1.9,1.8c0.9,0.8,1.8,1.7,2.8,2.5c1.8,1.6,4.2,3.5,6.9,4.7c5.9,2.7,12.4,3.4,18.7,2.1c2.9-0.6,5.8-1.3,8.6-2 c7.8-1.9,15.3-3.7,23.3-3.7c0.2,0,0.4,0,0.6,0c11.1,0.2,22.1,3,31.6,8.1l0.1-0.2c-9.6-5.2-20.6-8-31.7-8.2c-0.2,0-0.4,0-0.6,0 c-8,0-15.5,1.8-23.3,3.7c-2.8,0.7-5.7,1.4-8.6,2c-6.3,1.3-12.7,0.6-18.6-2.1c-2.7-1.2-5.1-3.2-6.8-4.7c-0.9-0.8-1.9-1.7-2.8-2.5 c-0.6-0.6-1.3-1.2-1.9-1.8c-4.3-3.9-8.3-7.3-12.9-9.4c-3.7-1.7-7.7-2.4-11.9-2.2c-2,0.1-4,0.5-6,1.2c-2,0.6-4,1.5-6.1,2.5 c-2.6,1.3-5,2.8-7.6,4.9l-0.3,0.2c-2.1,1.7-4.3,3.4-6.6,5.2c-2.2,1.8-4.6,3.8-7.1,5.9c-1.2,1-2.4,2-3.6,3c-1.5,1.2-2.8,2.4-4.1,3.6 c-1,0.9-1.9,1.8-2.9,2.6c-2.1,1.8-4.1,3.1-6.1,3.8c-1.4,0.5-2.9,0.8-4,0.8c-1,0-1.7-0.1-2.5-0.2c-2.5-0.4-4.8-0.3-6.9,0.3 c-1.6,0.5-3.4,1.4-5.3,2.4c-1.8,0.9-3.7,1.9-5.4,2.5c-2.7,0.9-5.5,1.2-8.8,0.9c-3.4-0.3-7-1.3-11.1-3.2c-2.4-1.1-4.7-2.4-7.2-3.7 c-2.4-1.3-4.9-2.6-7.5-3.8c-0.9-0.4-1.8-0.9-2.7-1.3c-0.4-0.2-0.7-0.4-1.1-0.6c-2.8-1.5-5.6-3-9.2-3.8c-3.4-0.8-8.4-2-12.6-3.8 c-0.5-0.2-1-0.4-1.5-0.6c-1.2-0.5-2.5-1.1-3.9-1.4c-3.9-0.9-8.3-0.2-11.7,0.4c-4.4,0.9-8.7,2.1-12.3,3.3c-1.3,0.4-2.7,0.9-4.1,1.3 c-0.9,0.3-1.8,0.6-2.7,0.9c-6.1,2-11.5,2.9-16.5,2.9c-0.2,0-0.3,0-0.5,0c-1.3,0-2.6-0.1-3.9-0.2c-0.6,0-1.2-0.1-1.8-0.1 c-10.6-0.7-20.3,1.5-26.6,3.4c-5.3-1.4-10.2-3.4-14.9-5.3c-5.8-2.4-11.2-4.6-17.4-5.8c-6.8-1.4-13.7-1.3-19.8,0 c-7.2,1.6-13.2,5-17.8,10.1l0.1,0.1c4.6-5,10.5-8.4,17.7-10c6.1-1.4,13-1.4,19.7,0c6.1,1.2,11.6,3.5,17.3,5.8 c4.7,1.9,9.6,3.9,15,5.3l0,0l0,0c6.3-2,16-4.1,26.6-3.4c0.6,0,1.2,0.1,1.8,0.1c1.3,0.1,2.6,0.2,3.9,0.2c0.2,0,0.3,0,0.5,0 c5,0,10.4-1,16.5-2.9c0.9-0.3,1.8-0.6,2.7-0.9c1.3-0.4,2.7-0.9,4.1-1.3c3.6-1.1,7.9-2.4,12.3-3.2c3.4-0.7,7.8-1.3,11.6-0.4 c1.4,0.3,2.6,0.9,3.9,1.4c0.5,0.2,1,0.4,1.5,0.6c4.2,1.7,9.2,3,12.6,3.8c3.6,0.8,6.4,2.4,9.2,3.8c0.4,0.2,0.7,0.4,1.1,0.6 c0.9,0.5,1.8,0.9,2.7,1.3c2.6,1.2,5.1,2.6,7.5,3.8c2.5,1.3,4.8,2.6,7.2,3.7c4.1,1.9,7.8,2.9,11.2,3.2c0.8,0.1,1.5,0.1,2.2,0.1 C240.1,55.5,242.3,55.2,244.4,54.5z M241.9,53.7c1.7-0.5,3.6-1.4,5.3-2.2c2-0.9,3.8-1.8,5.4-2.2c2.2-0.5,4.4-0.1,6,0.2 c0.3,0.1,0.6,0.1,0.9,0.1c0.4,0.1,0.7,0.1,1,0.2c0.5,0.1,0.9,0.2,1.5,0.3c1.2,0.1,2.7-0.1,4.1-0.5c2-0.7,4.2-1.9,6.3-3.6 c1.2-1,2.3-2,3.6-3.1c1.1-1,2.3-2,3.5-3.1c3.6-3.1,7.1-6.1,10.2-8.9l0.3-0.3c1.7-1.5,3.4-2.9,5-4.3c0.6-0.5,1.1-1,1.7-1.4 c2.6-2.2,4.9-3.9,7.4-5.2c2.1-1.2,4.1-2.1,6-2.8c2-0.7,4-1.2,5.9-1.4c4.1-0.4,8.1,0.2,11.9,1.7c4.7,2,8.8,5.5,13,9.2 c0.7,0.6,1.3,1.2,2,1.8c0.9,0.8,1.8,1.7,2.8,2.5c1.8,1.6,4.2,3.5,6.9,4.7c6,2.8,12.5,3.5,18.7,2.1c3.1-0.7,6.2-1.5,9.2-2.3 c8-2.1,15.6-4.1,23.9-4.2c0.1,0,0.2,0,0.3,0c11.3,0,22.4,2.7,32.2,7.8l0.1-0.2c-9.8-5.1-21-7.8-32.3-7.8c-0.1,0-0.2,0-0.3,0 c-8.3,0.1-15.9,2-24,4.2c-3,0.8-6.1,1.6-9.2,2.3c-6.2,1.4-12.6,0.7-18.6-2.1c-2.7-1.2-5.1-3.2-6.9-4.7c-0.9-0.8-1.9-1.7-2.8-2.5 c-0.7-0.6-1.3-1.2-2-1.8c-4.2-3.7-8.4-7.3-13.1-9.2c-3.8-1.6-7.8-2.2-12-1.8c-2,0.2-4,0.7-6,1.4c-2,0.7-4,1.6-6.1,2.8 c-2.5,1.4-4.8,3-7.4,5.3c-0.6,0.5-1.1,1-1.7,1.4c-1.6,1.4-3.3,2.8-5,4.3l-0.3,0.3c-3.1,2.7-6.6,5.8-10.2,8.8c-1.2,1-2.4,2.1-3.5,3.1 c-1.2,1.1-2.4,2.1-3.6,3.1c-2.1,1.7-4.2,2.9-6.2,3.6c-1.4,0.5-2.9,0.7-4,0.5c-0.6-0.1-1-0.2-1.5-0.3c-0.4-0.1-0.7-0.2-1.1-0.2 c-0.3,0-0.6-0.1-0.9-0.1c-1.6-0.3-3.8-0.7-6.1-0.2c-1.6,0.4-3.5,1.3-5.5,2.2c-1.8,0.9-3.6,1.7-5.3,2.2c-2.7,0.8-5.6,1-8.8,0.6 c-3.4-0.4-7-1.6-11-3.7c-2.2-1.1-4.4-2.4-6.6-3.7c-2.5-1.5-5.1-3-7.8-4.4c-0.9-0.4-1.8-0.9-2.7-1.4c-0.3-0.2-0.6-0.4-1-0.5 c-2.8-1.6-5.7-3.2-9.4-4c-3.8-0.9-8.6-2-12.7-3.6c-0.5-0.2-1-0.4-1.5-0.6c-1.3-0.5-2.6-1-4-1.3c-3.9-0.8-8.4-0.1-11.8,0.6 c-4.5,0.9-8.9,2.2-12.3,3.3c-1.5,0.5-2.9,1-4.4,1.5c-0.8,0.3-1.6,0.5-2.4,0.8c-6.6,2.2-12,3.2-17,3.1c-1.3,0-2.6-0.1-3.8-0.2 c-0.6,0-1.2-0.1-1.9-0.1c-11.5-0.7-21.5,2.4-26.5,4.3c-5-1.2-9.6-2.9-14.1-4.6c-5.5-2.1-10.6-4-16.4-5c-6.4-1.1-12.9-0.9-18.6,0.5 c-6.8,1.7-12.4,5-16.6,9.9l0.1,0.1c4.3-4.9,9.8-8.2,16.5-9.9c5.7-1.4,12.1-1.6,18.5-0.5c5.8,1,10.9,2.9,16.4,5 c4.5,1.7,9.1,3.4,14.1,4.6l0,0l0,0c4.9-1.9,14.9-5,26.4-4.3c0.6,0,1.2,0.1,1.9,0.1c1.3,0.1,2.5,0.2,3.8,0.2c0.1,0,0.2,0,0.3,0 c5,0,10.3-1,16.8-3.2c0.8-0.3,1.6-0.5,2.4-0.8c1.4-0.5,2.9-1,4.4-1.5c3.4-1.1,7.8-2.4,12.3-3.3c3.4-0.7,7.8-1.4,11.7-0.6 c1.4,0.3,2.6,0.8,3.9,1.3c0.5,0.2,1,0.4,1.5,0.6c4.1,1.5,9,2.7,12.7,3.6c3.7,0.8,6.5,2.5,9.3,4c0.3,0.2,0.6,0.4,1,0.5 c0.9,0.5,1.8,1,2.7,1.4c2.8,1.4,5.3,2.9,7.8,4.4c2.3,1.3,4.4,2.6,6.6,3.7c4.1,2.1,7.7,3.3,11.1,3.7c1.1,0.1,2.2,0.2,3.2,0.2 C238.3,54.5,240.1,54.3,241.9,53.7z M239.4,53c1.7-0.4,3.5-1.2,5.3-2c2-0.9,4-1.8,5.6-2c2.4-0.4,4.6,0.2,6.3,0.7 c0.2,0.1,0.4,0.1,0.6,0.2c0.3,0.1,0.7,0.2,1,0.3c0.5,0.2,0.9,0.4,1.5,0.5c1.2,0.2,2.7,0.1,4.2-0.3c2.1-0.6,4.3-1.7,6.4-3.4 c1.4-1.1,2.8-2.4,4.3-3.7c0.9-0.8,1.9-1.6,2.8-2.5c3.1-2.7,6.4-5.6,10.4-9.4c1.1-1.1,2.2-2.1,3.3-3.1c1.1-1,2.1-2,3.1-2.9 c2.5-2.4,4.8-4.1,7.2-5.6c2-1.2,4-2.2,5.9-3c2-0.8,3.9-1.3,5.9-1.6c4.2-0.6,8.2-0.1,12,1.4c4.8,1.9,9,5.3,13.2,9 c0.7,0.6,1.4,1.2,2,1.8c0.9,0.8,1.8,1.6,2.8,2.4c1.8,1.6,4.3,3.5,6.9,4.8c6.2,2.9,12.5,3.6,18.8,2.1c3.3-0.8,6.6-1.7,9.7-2.6 c8.1-2.3,15.7-4.4,24-4.6c11.6-0.3,23.1,2.3,33.3,7.5l0.1-0.2c-10.2-5.1-21.7-7.7-33.3-7.5c-8.4,0.2-16,2.3-24.1,4.6 c-3.2,0.9-6.4,1.8-9.7,2.6c-6.2,1.5-12.5,0.8-18.6-2.1c-2.7-1.2-5.1-3.2-6.9-4.7c-0.9-0.8-1.9-1.6-2.8-2.4c-0.7-0.6-1.4-1.2-2-1.8 c-4.2-3.7-8.4-7.2-13.2-9.1c-3.8-1.5-7.9-1.9-12.1-1.4c-2,0.3-4,0.8-6,1.6c-2,0.8-3.9,1.8-6,3c-2.4,1.5-4.7,3.2-7.2,5.6 c-1,1-2.1,1.9-3.1,2.9c-1.1,1-2.2,2-3.3,3.1c-4,3.7-7.3,6.7-10.4,9.4c-1,0.8-1.9,1.7-2.8,2.5c-1.5,1.3-2.9,2.5-4.3,3.7 c-2.1,1.6-4.3,2.8-6.4,3.4c-1.5,0.4-2.9,0.5-4.1,0.3c-0.6-0.1-1-0.3-1.5-0.5c-0.3-0.1-0.7-0.3-1-0.4c-0.2,0-0.4-0.1-0.6-0.2 c-1.7-0.5-4-1.1-6.4-0.7c-1.7,0.3-3.6,1.1-5.7,2.1c-1.8,0.8-3.6,1.6-5.3,2c-2.7,0.7-5.6,0.8-8.9,0.2c-3.4-0.6-6.9-1.9-10.9-4.2 c-2-1.1-4-2.4-6.1-3.7c-2.6-1.6-5.3-3.3-8.1-4.9c-0.9-0.5-1.8-1-2.6-1.5c-0.3-0.2-0.5-0.3-0.8-0.5c-2.8-1.7-5.7-3.4-9.4-4.3 c-4.3-1-8.8-2-12.8-3.4c-0.5-0.2-1-0.3-1.5-0.5c-1.3-0.5-2.6-1-4.1-1.2c-4-0.8-8.5,0-11.9,0.7c-3.6,0.7-7.4,1.8-12.3,3.4 c-1.6,0.5-3.1,1.1-4.7,1.6c-0.7,0.2-1.4,0.5-2.1,0.7c-6.8,2.3-12,3.4-17,3.4c0,0,0,0,0,0c-1.2,0-2.5-0.1-3.8-0.2 c-0.6,0-1.3-0.1-1.9-0.1c-11.8-0.7-21.5,2.9-26.3,5.1c-4.7-1-9.1-2.4-13.3-3.9c-5.2-1.8-10-3.4-15.5-4.2c-6-0.8-12-0.5-17.4,1.1 c-6.3,1.8-11.5,5.1-15.5,9.8l0.1,0.1c3.5-4.1,13.5-13.4,32.7-10.8c5.4,0.7,10.3,2.4,15.4,4.1c4.2,1.4,8.6,2.9,13.3,3.9l0,0l0,0 c4.8-2.2,14.5-5.7,26.2-5.1c0.6,0,1.3,0.1,1.9,0.1c1.2,0.1,2.5,0.2,3.8,0.2c0,0,0,0,0,0c5,0,10.3-1,17-3.4c0.7-0.2,1.4-0.5,2.1-0.7 c1.5-0.5,3.1-1.1,4.7-1.6c4.9-1.6,8.7-2.6,12.3-3.4c3.4-0.7,7.8-1.4,11.8-0.7c1.4,0.3,2.7,0.7,4,1.2c0.5,0.2,1,0.4,1.5,0.5 c4,1.4,8.5,2.4,12.8,3.4c3.7,0.8,6.6,2.6,9.4,4.2c0.3,0.2,0.5,0.3,0.8,0.5c0.9,0.5,1.8,1,2.6,1.5c2.9,1.5,5.6,3.2,8.1,4.9 c2.1,1.3,4.1,2.6,6.1,3.7c4,2.3,7.6,3.6,11,4.2c1.4,0.3,2.8,0.4,4.2,0.4C236.3,53.6,237.9,53.4,239.4,53z M237,52.2 c1.7-0.4,3.5-1.1,5.2-1.8c2.1-0.9,4.1-1.7,5.8-1.9c2.5-0.3,5,0.7,6.7,1.4l0.3,0.1c0.3,0.1,0.6,0.3,1,0.5c0.5,0.2,1,0.5,1.5,0.7 c1.2,0.4,2.7,0.4,4.3,0c2.1-0.5,4.4-1.6,6.6-3.2c1.7-1.3,3.4-2.7,5.1-4.3c0.7-0.6,1.4-1.2,2.1-1.8c3.2-2.8,6.7-6,10.3-9.6 c0.5-0.5,1.1-1.1,1.6-1.6c1.6-1.6,3.2-3.2,4.6-4.7c2.4-2.5,4.7-4.4,7-5.9c2-1.3,3.9-2.4,5.9-3.3c1.9-0.9,3.9-1.5,5.9-1.8 c4.2-0.7,8.2-0.4,12.1,1c4.9,1.8,9.1,5.2,13.3,8.9c0.7,0.6,1.4,1.2,2.1,1.9c0.9,0.8,1.8,1.6,2.7,2.4c1.8,1.5,4.3,3.5,7,4.8 c6.3,3,12.6,3.7,18.8,2.1c3.5-0.9,6.9-1.9,10.2-2.9c8.1-2.4,15.7-4.7,24.1-5.1c11.9-0.5,23.7,2,34.1,7.1l0.1-0.2 c-10.4-5.1-22.3-7.6-34.2-7.1c-8.4,0.3-16.1,2.6-24.2,5.1c-3.3,1-6.7,2-10.2,2.9c-6.2,1.6-12.4,0.8-18.7-2.1 c-2.6-1.3-5.1-3.2-6.9-4.7c-0.9-0.8-1.8-1.6-2.7-2.4c-0.7-0.6-1.4-1.3-2.1-1.9c-4.3-3.7-8.5-7.1-13.4-8.9c-3.9-1.4-7.9-1.7-12.2-1 c-2,0.3-4,1-5.9,1.8c-2,0.9-3.9,2-5.9,3.3c-2.3,1.6-4.6,3.5-7,6c-1.5,1.5-3,3.1-4.6,4.7c-0.5,0.5-1.1,1.1-1.6,1.6 c-3.6,3.6-7,6.8-10.3,9.6c-0.7,0.6-1.4,1.2-2.1,1.8c-1.8,1.5-3.4,3-5.1,4.3c-2.1,1.6-4.4,2.7-6.5,3.2c-1.5,0.3-3,0.3-4.2,0 c-0.6-0.2-1.1-0.4-1.5-0.7c-0.3-0.2-0.6-0.3-1-0.5l-0.3-0.1c-1.7-0.7-4.2-1.7-6.7-1.4c-1.7,0.2-3.7,1-5.9,1.9 c-1.8,0.7-3.6,1.5-5.2,1.8c-2.8,0.6-5.7,0.6-8.9-0.1c-3.3-0.7-6.9-2.3-10.8-4.7c-1.9-1.2-3.7-2.4-5.6-3.7c-2.7-1.8-5.4-3.7-8.4-5.4 c-0.9-0.5-1.7-1-2.6-1.6c-0.2-0.1-0.5-0.3-0.7-0.5c-2.8-1.8-5.7-3.6-9.5-4.4c-4.5-1-9-2-12.9-3.2c-0.5-0.1-1-0.3-1.4-0.5 c-1.3-0.4-2.7-0.9-4.2-1.1c-4.1-0.7-8.6,0.1-12,0.8c-3.6,0.8-7.6,1.8-12.3,3.4c-1.6,0.5-3.3,1.2-5,1.8c-0.6,0.2-1.2,0.4-1.8,0.6 c-4.6,1.7-10.8,3.6-17,3.6c0,0-0.1,0-0.1,0c-1.2,0-2.4-0.1-3.6-0.2c-0.6,0-1.3-0.1-2-0.1c-12.5-0.6-22.4,3.9-26.2,5.9 c-4.4-0.8-8.5-2-12.4-3.1c-4.9-1.4-9.5-2.8-14.5-3.3c-6-0.6-20.9-0.7-30.5,11.3l0.2,0.1C44.1,35.8,59,35.8,65,36.4 c5.1,0.5,9.7,1.9,14.5,3.3c3.9,1.2,8,2.4,12.5,3.1l0,0l0,0c3.7-2,13.6-6.5,26.1-5.9c0.7,0,1.3,0.1,2,0.1c1.2,0.1,2.4,0.2,3.6,0.2 c0,0,0.1,0,0.1,0c6.3,0,12.4-2,17.1-3.6c0.6-0.2,1.2-0.4,1.8-0.6c1.6-0.6,3.3-1.2,5-1.7c4.8-1.6,8.7-2.6,12.3-3.4 c3.4-0.7,7.9-1.5,11.9-0.8c1.4,0.2,2.8,0.7,4.1,1.1c0.5,0.2,1,0.3,1.4,0.5c4,1.2,8.4,2.2,12.9,3.2c3.8,0.8,6.7,2.7,9.4,4.4 c0.2,0.2,0.5,0.3,0.7,0.5c0.9,0.6,1.8,1.1,2.6,1.6c3,1.7,5.7,3.6,8.4,5.4c1.9,1.3,3.7,2.6,5.6,3.7c4,2.4,7.5,4,10.9,4.7 c1.8,0.4,3.4,0.6,5,0.6C234.3,52.7,235.7,52.5,237,52.2z M259.5,51.9c2.2-0.4,4.5-1.4,6.8-3c2-1.4,4-3.1,6-4.9 c0.4-0.4,0.9-0.7,1.3-1.1c3.3-2.9,6.7-6.2,10.1-9.8c1.9-2.1,4.1-4.4,6.1-6.6c2.4-2.7,4.5-4.6,6.8-6.3c1.9-1.4,3.8-2.5,5.8-3.5 c1.9-0.9,3.9-1.6,5.9-2c4.2-0.9,8.3-0.7,12.2,0.6c5,1.7,9.4,5.2,13.5,8.7c0.7,0.6,1.5,1.3,2.2,1.9c0.9,0.8,1.8,1.6,2.7,2.3 c1.9,1.5,4.3,3.5,7,4.8c6.3,3.1,12.7,3.8,18.8,2.2c3.6-1,7.2-2.1,10.7-3.2c8.1-2.6,15.8-5,24.3-5.5c12.1-0.7,24.2,1.7,34.9,6.8 l0.1-0.2c-10.7-5.1-22.8-7.5-35-6.8c-8.5,0.5-16.2,2.9-24.4,5.5c-3.5,1.1-7,2.2-10.7,3.2c-6.1,1.6-12.4,0.9-18.7-2.1 c-2.6-1.3-5.1-3.2-6.9-4.7c-0.9-0.8-1.8-1.6-2.7-2.3c-0.7-0.6-1.4-1.3-2.2-1.9c-4.1-3.5-8.6-7.1-13.6-8.7c-3.9-1.3-8-1.5-12.3-0.6 c-2,0.4-4,1.1-5.9,2.1c-2,1-3.9,2.1-5.8,3.5c-2.3,1.7-4.4,3.6-6.8,6.3c-2,2.2-4.2,4.5-6.1,6.6c-3.4,3.6-6.8,6.9-10.1,9.8 c-0.4,0.4-0.9,0.8-1.3,1.1c-2,1.8-4,3.5-6,4.9c-2.2,1.6-4.5,2.6-6.7,3c-1.6,0.3-3.1,0.2-4.2-0.3c-0.6-0.2-1.1-0.5-1.5-0.8 c-0.3-0.2-0.6-0.4-0.9-0.6c-1.5-0.8-4.2-2.2-7.1-2.1c-1.8,0.1-3.8,0.9-6.1,1.7c-1.7,0.7-3.5,1.3-5.2,1.6c-2.8,0.5-5.7,0.4-9-0.5 c-3.3-0.9-6.8-2.6-10.7-5.2c-1.7-1.2-3.4-2.4-5.2-3.7c-2.7-2-5.5-4.1-8.6-5.9c-0.8-0.5-1.7-1-2.6-1.6l-0.6-0.4 c-2.8-1.9-5.7-3.8-9.6-4.6l-0.7-0.1c-4.2-0.9-8.5-1.8-12.3-2.8c-0.5-0.1-0.9-0.3-1.4-0.4c-1.4-0.4-2.8-0.8-4.3-1 c-4.2-0.6-8.7,0.2-12.1,0.9c-3.7,0.8-7.6,1.9-12.4,3.5c-1.7,0.6-3.5,1.2-5.2,1.9c-0.5,0.2-1,0.4-1.5,0.6c-5,1.9-10.9,3.8-17,3.8 c-1.2,0-2.5-0.1-3.6-0.1c-0.7,0-1.4-0.1-2-0.1c-12.7-0.5-22.4,4.5-26,6.8c-4.1-0.5-7.9-1.5-11.5-2.4c-4.6-1.1-8.9-2.2-13.6-2.5 c-5.3-0.3-10.4,0.4-14.9,2.1c-5.4,2-9.8,5.2-13.2,9.6l0.2,0.1c3.3-4.4,7.7-7.6,13.1-9.5c4.5-1.6,9.6-2.3,14.9-2.1 c4.7,0.3,9,1.3,13.6,2.5c3.7,0.9,7.4,1.9,11.6,2.4l0,0l0,0c3.6-2.2,13.2-7.3,25.9-6.8c0.7,0,1.4,0.1,2,0.1c1.2,0.1,2.4,0.2,3.7,0.1 c6.1-0.1,12.1-2,17.1-3.9c0.5-0.2,1-0.4,1.5-0.6c1.7-0.7,3.5-1.3,5.2-1.9c4.7-1.6,8.6-2.7,12.3-3.5c3.4-0.7,7.9-1.5,12-0.9 c1.5,0.2,2.8,0.6,4.2,1c0.5,0.1,0.9,0.3,1.4,0.4c3.8,1.1,8.1,2,12.3,2.8l0.7,0.1c3.9,0.8,6.7,2.7,9.5,4.6l0.6,0.4 c0.9,0.6,1.8,1.1,2.6,1.6c3.1,1.8,5.9,3.9,8.6,5.9c1.8,1.3,3.4,2.6,5.2,3.7c3.9,2.6,7.4,4.3,10.8,5.2c3.3,0.9,6.2,1,9.1,0.5 c1.6-0.3,3.4-1,5.2-1.6c2.2-0.8,4.3-1.6,6-1.7c2.8-0.2,5.5,1.3,6.9,2c0.3,0.2,0.6,0.4,0.9,0.6c0.5,0.3,1,0.6,1.6,0.9 c0.7,0.3,1.6,0.4,2.6,0.4C258.3,52,258.9,52,259.5,51.9z M257.2,52.7c2.2-0.3,4.7-1.3,6.9-2.8c2.4-1.6,4.6-3.6,7-5.6l0.4-0.4 c3.3-2.9,6.7-6.3,10-10.1c1.8-2.1,3.9-4.5,5.9-6.9c2.3-2.8,4.4-4.9,6.6-6.7c1.8-1.5,3.7-2.7,5.7-3.8c1.9-1,3.9-1.8,5.8-2.3 c4.2-1.1,8.4-1,12.2,0.2c5.1,1.6,9.5,5.1,13.7,8.5c0.7,0.6,1.5,1.3,2.2,1.9c0.9,0.8,1.8,1.5,2.7,2.3c1.9,1.5,4.3,3.5,7,4.8 c6.4,3.2,12.7,3.9,18.8,2.2c3.8-1.1,7.5-2.3,11.1-3.5c8.2-2.8,15.9-5.3,24.5-6c12.4-0.9,24.7,1.4,35.7,6.5l0.1-0.2 c-11-5.1-23.4-7.4-35.8-6.5c-8.6,0.6-16.4,3.2-24.5,6c-3.6,1.2-7.3,2.5-11.1,3.5c-6,1.7-12.3,1-18.7-2.2c-2.6-1.3-5.1-3.2-7-4.7 c-0.9-0.7-1.8-1.5-2.7-2.3c-0.7-0.6-1.5-1.3-2.2-1.9c-4.1-3.5-8.6-7-13.7-8.6c-3.9-1.2-8.1-1.3-12.4-0.2c-2,0.5-4,1.3-5.9,2.3 c-2,1.1-3.9,2.3-5.7,3.8c-2.2,1.8-4.3,3.8-6.6,6.7c-2,2.4-4.1,4.8-5.9,6.9c-3.3,3.7-6.6,7.1-10,10l-0.4,0.4c-2.4,2.1-4.6,4-6.9,5.6 c-2.2,1.5-4.6,2.5-6.8,2.7c-1.6,0.2-3.1,0-4.3-0.5c-0.6-0.3-1.1-0.7-1.5-1c-0.3-0.2-0.6-0.5-0.9-0.7c-2.6-1.7-5-2.6-7.1-2.7 c0,0-0.1,0-0.1,0c-1.8,0-4,0.8-6.2,1.5c-1.7,0.6-3.5,1.2-5.1,1.4c-2.8,0.4-5.8,0.2-9-0.8c-3.3-1-6.8-2.9-10.6-5.7 c-1.6-1.2-3.1-2.4-4.8-3.7c-2.8-2.2-5.6-4.5-8.8-6.5c-0.8-0.5-1.6-1.1-2.5-1.7l-0.5-0.4c-2.8-2-5.6-4-9.6-4.8 c-0.9-0.2-1.8-0.4-2.8-0.6c-3.6-0.7-7.1-1.4-10.3-2.2c-0.5-0.1-0.9-0.2-1.4-0.3c-1.4-0.4-2.9-0.7-4.4-0.9c-4.3-0.5-9,0.3-12.2,1 c-3.7,0.8-7.7,1.9-12.4,3.5c-1.8,0.6-3.7,1.4-5.5,2.1c-0.4,0.2-0.8,0.3-1.2,0.5c-5.3,2.1-11.1,4-17,4.1c-1.2,0-2.4-0.1-3.6-0.1 c-0.7,0-1.4-0.1-2.1-0.1c-9-0.3-18.6,2.5-25.8,7.6c-3.8-0.3-7.3-1-10.6-1.7C72.5,38.8,68.5,38,64,38c0,0-0.1,0-0.1,0 c-6.4,0-18.1,1.6-25.6,12l0.2,0.1c7.4-10.4,19-12,25.4-12c0,0,0.1,0,0.1,0c4.4,0,8.5,0.8,12.8,1.7c3.4,0.7,6.8,1.3,10.7,1.7l0,0l0,0 c7.2-5.1,16.8-7.9,25.7-7.6c0.7,0,1.4,0.1,2.1,0.1c1.2,0.1,2.4,0.2,3.6,0.1c6-0.1,11.7-2,17.1-4.1c0.4-0.2,0.8-0.3,1.2-0.5 c1.8-0.7,3.7-1.4,5.5-2.1c4.7-1.6,8.6-2.7,12.4-3.5c3.1-0.7,7.8-1.5,12.1-1c1.5,0.2,2.9,0.5,4.4,0.9c0.5,0.1,0.9,0.2,1.4,0.3 c3.2,0.8,6.7,1.5,10.3,2.2c0.9,0.2,1.8,0.4,2.8,0.6c3.9,0.8,6.8,2.8,9.5,4.8l0.5,0.4c0.9,0.6,1.7,1.2,2.6,1.7c3.2,2,6,4.3,8.8,6.5 c1.6,1.3,3.2,2.5,4.8,3.7c3.8,2.8,7.3,4.7,10.6,5.7c3.3,1,6.3,1.3,9.1,0.9c1.6-0.2,3.4-0.9,5.1-1.5c2.1-0.7,4.3-1.5,6.1-1.5 c0,0,0.1,0,0.1,0c2.1,0,4.4,0.9,7,2.6c0.3,0.2,0.6,0.4,0.9,0.7c0.5,0.4,1,0.8,1.6,1.1c0.9,0.4,1.9,0.6,3.1,0.6 C256.4,52.7,256.8,52.7,257.2,52.7z M255,53.4c2.3-0.2,4.8-1.1,7.1-2.6c2.5-1.6,4.9-3.7,7.5-6c3.3-3,6.7-6.5,9.9-10.3 c2.3-2.8,4.1-5.1,5.7-7.1c2.3-3,4.2-5.2,6.4-7c1.8-1.5,3.6-2.9,5.6-4c1.9-1.1,3.8-1.9,5.8-2.5c4.3-1.2,8.4-1.3,12.3-0.2 c5.2,1.5,9.7,4.9,13.8,8.4c0.8,0.6,1.5,1.3,2.3,1.9c0.9,0.7,1.8,1.5,2.7,2.2c1.9,1.5,4.4,3.5,7,4.8c6.5,3.2,12.8,4,18.9,2.2 c3.9-1.2,7.8-2.5,11.5-3.8c8.2-2.9,16-5.7,24.7-6.4c12.6-1.1,25.3,1,36.5,6.1l0.1-0.2c-11.3-5.1-23.9-7.2-36.6-6.1 c-8.7,0.8-16.5,3.5-24.8,6.4c-3.7,1.3-7.6,2.7-11.5,3.8c-6,1.8-12.3,1-18.7-2.2c-2.6-1.3-5.1-3.2-7-4.8c-0.9-0.7-1.8-1.5-2.7-2.2 c-0.8-0.6-1.5-1.3-2.3-1.9c-4.2-3.4-8.7-6.9-13.9-8.4c-4-1.1-8.2-1.1-12.5,0.2c-2,0.6-4,1.4-5.9,2.5c-2,1.2-3.8,2.5-5.6,4 c-2.2,1.9-4.1,4-6.4,7c-1.6,2.1-3.4,4.3-5.7,7.1c-3.1,3.8-6.5,7.3-9.8,10.3c-2.6,2.3-4.9,4.3-7.4,5.9c-2.2,1.4-4.7,2.3-7,2.5 c-1.7,0.1-3.2-0.2-4.3-0.8c-0.6-0.4-1.1-0.8-1.6-1.2c-0.3-0.3-0.6-0.5-0.9-0.8c-2.6-2-5-3.1-7.1-3.2c-1.8-0.1-4.2,0.6-6.4,1.3 c-1.7,0.5-3.5,1.1-5.1,1.3c-2.9,0.3-5.8,0-9.1-1.2c-3.3-1.2-6.7-3.2-10.5-6.2c-1.5-1.2-2.9-2.4-4.4-3.7c-2.8-2.4-5.7-4.9-8.9-7 c-0.8-0.5-1.6-1.1-2.5-1.8l-0.5-0.4c-2.8-2.1-5.6-4.2-9.6-5c-1.7-0.3-3.4-0.7-5-1c-2.9-0.5-5.6-1.1-8.2-1.6 c-0.4-0.1-0.9-0.2-1.3-0.3c-1.5-0.3-3-0.7-4.5-0.8c-3.4-0.3-7.3,0-12.3,1.1c-3.8,0.8-7.8,2-12.4,3.6c-1.9,0.7-3.9,1.4-5.8,2.2 l-1,0.4c-6.2,2.5-11.5,4.2-17,4.3c-1.2,0-2.4,0-3.6-0.1c-0.7,0-1.4-0.1-2.1-0.1c-9.1-0.3-18.7,2.9-25.7,8.5 c-3.5-0.1-6.6-0.5-9.6-0.9c-4-0.5-7.9-1-12-0.8c-5.8,0.3-16.7,2.4-23.3,12.4l0.2,0.1c6.6-10,17.4-12,23.2-12.3 c4.1-0.2,7.9,0.3,12,0.8c3,0.4,6.2,0.8,9.7,0.9l0,0l0,0c7-5.6,16.5-8.7,25.6-8.5c0.7,0,1.4,0.1,2.1,0.1c1.2,0.1,2.4,0.1,3.6,0.1 c5.5-0.1,10.8-1.8,17.1-4.3l1-0.4c1.9-0.8,3.9-1.5,5.8-2.2c4.6-1.6,8.6-2.7,12.4-3.6c5-1.1,8.9-1.5,12.2-1.1c1.6,0.2,3,0.5,4.5,0.8 c0.4,0.1,0.9,0.2,1.3,0.3c2.6,0.6,5.3,1.1,8.2,1.6c1.6,0.3,3.3,0.6,5,1c4,0.8,6.8,2.9,9.5,5L194,30c0.9,0.7,1.7,1.3,2.5,1.8 c3.2,2.2,6.1,4.6,8.9,7c1.5,1.3,2.9,2.5,4.4,3.7c3.8,3,7.2,5,10.5,6.2c3.3,1.2,6.3,1.6,9.2,1.2c1.6-0.2,3.4-0.7,5.2-1.3 c2.2-0.7,4.5-1.4,6.3-1.3c2.1,0.1,4.5,1.2,7,3.2c0.3,0.2,0.6,0.5,0.9,0.8c0.5,0.4,1,0.9,1.6,1.3c1,0.6,2.2,0.9,3.6,0.9 C254.4,53.5,254.7,53.5,255,53.4z M252.7,54.2c2.3-0.1,4.9-0.9,7.2-2.3c2.5-1.5,4.8-3.5,7.5-5.9c4.2-3.8,7.6-7.8,9.7-10.5 c2.2-2.8,4-5.2,5.5-7.4c2.2-3.2,4.1-5.4,6.2-7.4c1.7-1.6,3.5-3,5.5-4.2c1.9-1.2,3.8-2.1,5.8-2.7c4.3-1.4,8.5-1.6,12.4-0.6 c5.3,1.4,9.8,4.8,14,8.2c0.8,0.6,1.6,1.3,2.4,2c0.9,0.7,1.8,1.5,2.6,2.2c1.9,1.5,4.4,3.4,7.1,4.8c6.6,3.4,12.8,4.1,18.9,2.2 c4.1-1.2,8-2.7,11.9-4.1c8.3-3.1,16.2-6,25-6.9c12.9-1.3,25.8,0.7,37.3,5.8l0.1-0.2c-11.6-5.1-24.5-7.1-37.4-5.8 c-8.8,0.9-16.7,3.8-25,6.9c-3.8,1.4-7.8,2.9-11.9,4.1c-6,1.9-12.2,1.1-18.7-2.2c-2.6-1.3-5.1-3.2-7-4.8c-0.9-0.7-1.8-1.5-2.6-2.2 c-0.8-0.7-1.6-1.3-2.4-2c-4.2-3.4-8.7-6.9-14-8.2c-4-1-8.2-0.8-12.5,0.6c-2,0.7-4,1.6-5.8,2.7c-2,1.2-3.8,2.6-5.6,4.3 c-2.1,2-4,4.2-6.2,7.4c-1.5,2.2-3.3,4.7-5.5,7.4c-2.1,2.7-5.5,6.7-9.7,10.5c-2.7,2.4-5,4.4-7.5,5.9c-2.3,1.4-4.8,2.2-7.1,2.3 c-1.7,0.1-3.3-0.3-4.4-1.1c-0.6-0.4-1.1-0.9-1.6-1.4c-0.3-0.3-0.5-0.6-0.8-0.9c-1.4-1.3-4.2-3.5-7.2-3.8c-1.9-0.2-4.3,0.5-6.6,1.1 c-1.7,0.5-3.5,1-5.1,1.1c-2.9,0.2-5.9-0.3-9.1-1.6c-3.3-1.3-6.7-3.5-10.4-6.7c-1.4-1.2-2.7-2.4-4.1-3.7c-2.8-2.6-5.7-5.2-9-7.6 c-0.8-0.5-1.6-1.1-2.5-1.9l-0.4-0.3c-2.7-2.2-5.6-4.4-9.6-5.2c-2.5-0.5-5-0.9-7.5-1.4c-2-0.4-3.9-0.7-5.8-1 c-0.4-0.1-0.8-0.2-1.2-0.2c-1.6-0.3-3.1-0.6-4.7-0.7c-3.5-0.3-7.4,0.1-12.4,1.3c-3.8,0.8-7.9,2-12.4,3.6c-2,0.7-4,1.5-6,2.4 l-0.7,0.3c-5.1,2.1-11,4.4-17,4.5c-1.2,0-2.4,0-3.5-0.1c-0.7,0-1.4-0.1-2.1-0.1c-0.3,0-0.5,0-0.8,0c-8.9,0-18.1,3.5-24.7,9.3 c-3.1,0.1-5.9-0.1-8.6-0.2c-3.8-0.2-7.4-0.4-11.3,0.1c-6.5,0.8-15.4,3.8-20.9,12.8l0.2,0.1c5.5-9,14.3-11.9,20.8-12.7 c3.8-0.5,7.4-0.3,11.2-0.1c2.7,0.2,5.5,0.3,8.6,0.2l0,0l0,0c6.6-5.9,15.7-9.3,24.6-9.3c0.3,0,0.5,0,0.8,0c0.7,0,1.4,0.1,2.1,0.1 c1.2,0.1,2.4,0.1,3.6,0.1c6-0.2,12-2.4,17.1-4.6l0.7-0.3c2-0.8,4-1.7,6-2.4c4.5-1.6,8.6-2.8,12.4-3.6c5-1.1,8.9-1.5,12.4-1.2 c1.6,0.1,3.1,0.4,4.7,0.7c0.4,0.1,0.8,0.2,1.2,0.2c1.9,0.4,3.8,0.7,5.8,1c2.4,0.4,5,0.9,7.5,1.4c4,0.8,6.8,3,9.5,5.2l0.4,0.3 c0.9,0.7,1.7,1.3,2.5,1.9c3.3,2.3,6.2,5,9,7.6c1.4,1.3,2.7,2.5,4.1,3.7c3.7,3.2,7.1,5.4,10.4,6.7c3.3,1.3,6.3,1.8,9.2,1.6 c1.6-0.1,3.4-0.6,5.1-1.1c2.3-0.6,4.7-1.3,6.5-1.1c2.9,0.3,5.7,2.5,7.1,3.8c0.3,0.3,0.6,0.6,0.8,0.9c0.5,0.5,1,1,1.6,1.5 c1.1,0.7,2.5,1.1,4.1,1.1C252.5,54.2,252.6,54.2,252.7,54.2z M250.5,55c2.5,0,5.1-0.8,7.4-2.1c2.8-1.7,5.4-3.9,7.6-5.9 c4.2-3.9,7.6-8,9.6-10.7c2-2.8,3.8-5.3,5.3-7.7c2.1-3.3,4-5.7,6-7.7c1.7-1.7,3.5-3.2,5.4-4.5c1.8-1.2,3.8-2.2,5.8-2.9 c4.3-1.6,8.5-1.9,12.5-0.9c5.4,1.3,10.1,4.8,14.1,8c0.8,0.6,1.6,1.3,2.4,2c0.9,0.7,1.7,1.4,2.6,2.1c1.9,1.5,4.4,3.4,7.1,4.8 c6.7,3.4,12.9,4.2,18.9,2.2c4.2-1.3,8.3-2.9,12.2-4.4c8.4-3.2,16.3-6.3,25.2-7.4c13.1-1.5,26.3,0.4,38.1,5.4l0.1-0.2 c-11.8-5.1-25.1-7-38.2-5.5c-8.9,1-16.9,4.1-25.3,7.4c-4,1.5-8,3.1-12.2,4.4c-6,1.9-12.1,1.2-18.8-2.2c-2.6-1.4-5.1-3.3-7-4.8 c-0.9-0.7-1.8-1.4-2.6-2.1c-0.8-0.7-1.6-1.3-2.4-2c-4-3.2-8.8-6.8-14.2-8.1c-4.1-1-8.3-0.6-12.6,1c-2,0.7-3.9,1.7-5.8,3 c-2,1.3-3.8,2.8-5.5,4.5c-2,2-3.9,4.4-6,7.8c-1.5,2.4-3.3,4.9-5.3,7.7c-2,2.8-5.3,6.9-9.5,10.7c-2.2,2-4.8,4.2-7.6,5.8 c-2.3,1.3-4.8,2.1-7.3,2.1c-1.7,0-3.3-0.5-4.5-1.3c-0.6-0.5-1.1-1.1-1.6-1.7c-0.3-0.3-0.5-0.6-0.8-1c-0.9-0.9-3.9-3.9-7.2-4.4 c-1.9-0.3-4.4,0.3-6.7,0.9c-1.7,0.4-3.5,0.9-5.1,1c-3,0.2-6-0.5-9.2-1.9c-3.2-1.5-6.6-3.8-10.2-7.2c-1.3-1.2-2.5-2.4-3.8-3.7 c-2.8-2.8-5.7-5.6-9.1-8.1c-0.7-0.6-1.5-1.2-2.5-1.9l-0.4-0.3c-2.7-2.3-5.5-4.6-9.6-5.4c-3.4-0.6-6.8-1.2-10.1-1.7 c-1.1-0.2-2.2-0.3-3.3-0.5c-0.4-0.1-0.7-0.1-1.1-0.2c-1.6-0.3-3.2-0.5-4.9-0.6c-3.5-0.2-7.5,0.2-12.5,1.4c-3.9,0.9-8,2.1-12.4,3.7 c-2.1,0.7-4.2,1.6-6.3,2.5l-0.5,0.2c-5.4,2.3-11.2,4.6-17,4.8c-1.2,0-2.4,0-3.5-0.1c-0.7,0-1.4-0.1-2.2-0.1c-0.2,0-0.4,0-0.6,0 c-10.7,0-19.8,5.2-24.8,10.2c-2.6,0.2-5,0.3-7.4,0.4c-3.6,0.1-7.1,0.2-10.7,1c-5.8,1.3-13.8,4.6-18.5,13.2l0.2,0.1 c4.7-8.5,12.6-11.8,18.4-13.1c3.6-0.8,7-0.9,10.7-1c2.3-0.1,4.7-0.1,7.4-0.4l0,0l0,0c5-4.9,14-10.1,24.7-10.1c0.2,0,0.4,0,0.6,0 c0.7,0,1.5,0,2.2,0.1c1.2,0.1,2.4,0.1,3.5,0.1c5.9-0.2,11.7-2.5,17.1-4.8l0.5-0.2c2.1-0.9,4.2-1.8,6.2-2.5c4.5-1.6,8.5-2.8,12.4-3.7 c5-1.1,8.9-1.6,12.5-1.4c1.7,0.1,3.2,0.4,4.9,0.6c0.4,0.1,0.7,0.1,1.1,0.2c1.1,0.2,2.2,0.3,3.3,0.5c3.3,0.5,6.7,1,10,1.7 c4.1,0.8,6.8,3.1,9.5,5.3l0.4,0.3c0.9,0.8,1.7,1.4,2.5,1.9c3.4,2.5,6.2,5.3,9,8.1c1.2,1.2,2.5,2.5,3.8,3.7c3.7,3.4,7,5.8,10.3,7.2 c3.3,1.5,6.3,2.1,9.3,1.9c1.6-0.1,3.4-0.5,5.1-1c2.3-0.6,4.8-1.2,6.6-0.9c3.2,0.5,6.3,3.5,7.1,4.4c0.3,0.3,0.5,0.6,0.8,0.9 c0.5,0.6,1,1.2,1.6,1.7c1.2,0.9,2.8,1.4,4.5,1.4C250.4,55,250.4,55,250.5,55z M255.7,53.8c2.3-1.3,4.7-3.1,7.7-5.8 c4.3-3.9,7.5-8.1,9.4-11c2-2.8,3.6-5.5,5.1-8c2.1-3.5,3.8-5.9,5.8-8.1c1.6-1.8,3.4-3.3,5.4-4.7c1.8-1.3,3.7-2.4,5.7-3.2 c4.3-1.7,8.6-2.2,12.6-1.3c5.4,1.2,10.2,4.7,14.3,7.9c0.8,0.7,1.7,1.4,2.5,2c0.8,0.7,1.7,1.4,2.6,2.1c2,1.6,4.5,3.4,7.1,4.8 c6.7,3.5,12.9,4.3,18.9,2.3c4.3-1.4,8.5-3.1,12.5-4.8c8.5-3.4,16.5-6.6,25.5-7.8c13.4-1.7,26.8,0.1,38.9,5.1l0.1-0.2 c-12.1-5.1-25.6-6.8-39-5.1c-9.1,1.2-17.1,4.4-25.6,7.8c-4.1,1.6-8.2,3.3-12.5,4.7c-6,2-12.1,1.2-18.8-2.2c-2.6-1.4-5-3.2-7.1-4.8 c-0.9-0.7-1.7-1.4-2.6-2.1c-0.8-0.7-1.7-1.4-2.5-2c-4.1-3.2-8.9-6.8-14.4-7.9c-4.1-0.9-8.4-0.4-12.7,1.3c-2,0.8-3.9,1.9-5.8,3.2 c-2,1.4-3.7,3-5.4,4.8c-2,2.2-3.7,4.6-5.8,8.1c-1.5,2.5-3.2,5.1-5.1,8c-1.9,2.8-5.2,7-9.4,10.9c-3,2.7-5.3,4.5-7.6,5.8 c-2.4,1.3-5,2-7.4,1.9c-1.8-0.1-3.4-0.6-4.5-1.6c-0.6-0.6-1.1-1.2-1.6-1.9c-0.2-0.3-0.5-0.7-0.8-1c-1.7-2-4.5-4.4-7.2-5 c-1.9-0.4-4.5,0.1-6.9,0.7c-1.7,0.4-3.5,0.8-5.1,0.8c-3,0.1-6-0.7-9.3-2.3c-3.2-1.6-6.5-4.1-10.1-7.7c-1.2-1.2-2.4-2.5-3.6-3.7 c-2.8-3-5.7-6-9.1-8.6c-0.7-0.6-1.5-1.2-2.4-2l-0.3-0.3c-2.7-2.4-5.4-4.8-9.6-5.5c-4.3-0.8-8.6-1.4-12.8-1.9l-0.7-0.1 c-0.3,0-0.6-0.1-0.9-0.1c-1.7-0.2-3.4-0.5-5.1-0.5c-3.6-0.1-7.6,0.3-12.6,1.5c-4,0.9-8,2.1-12.5,3.7c-2.1,0.8-4.3,1.7-6.5,2.7 l-0.3,0.1c-5.7,2.5-11.3,4.8-17,5c-1.2,0-2.3,0-3.5-0.1c-0.7,0-1.5-0.1-2.2-0.1c-0.1,0-0.2,0-0.4,0c-10.9,0-20,5.7-24.9,11 c-2.1,0.4-4,0.6-5.9,0.9c-3.7,0.5-6.9,0.9-10.4,2.1C54.6,44,49.2,48.6,46,55.1l0.2,0.1c3.2-6.5,8.6-11,16-13.5 c3.5-1.1,6.7-1.6,10.4-2.1c1.9-0.2,3.8-0.5,5.9-0.9l0,0l0,0c4.8-5.3,13.9-11,24.7-11c0.1,0,0.2,0,0.4,0c0.7,0,1.5,0,2.2,0.1 c1.1,0.1,2.3,0.1,3.5,0.1c5.8-0.2,11.4-2.5,17.1-5l0.3-0.1c2.1-0.9,4.3-1.9,6.5-2.7c4.4-1.6,8.5-2.8,12.4-3.7c5-1.1,9-1.6,12.6-1.5 c1.7,0.1,3.4,0.3,5.1,0.5c0.3,0,0.6,0.1,0.9,0.1l0.7,0.1c4.2,0.6,8.5,1.1,12.8,1.9c4.1,0.7,6.8,3.2,9.5,5.5l0.3,0.3 c0.9,0.8,1.7,1.5,2.4,2c3.4,2.6,6.3,5.7,9.1,8.6c1.2,1.2,2.4,2.5,3.6,3.7c3.6,3.6,6.9,6.1,10.2,7.7c3.2,1.6,6.3,2.3,9.3,2.3 c1.6,0,3.4-0.4,5.1-0.8c2.4-0.5,4.9-1.1,6.8-0.7c2.7,0.6,5.5,2.9,7.1,4.9c0.3,0.3,0.5,0.7,0.8,1c0.5,0.7,1,1.3,1.6,1.9 c1.2,1,2.8,1.6,4.6,1.7c0.2,0,0.4,0,0.5,0C251,55.8,253.5,55.1,255.7,53.8z M253.6,54.8c2.4-1.3,4.9-3.1,7.8-5.8 c4.3-3.9,7.4-8.3,9.3-11.2c1.9-2.9,3.5-5.6,4.9-8.3c2-3.7,3.7-6.2,5.6-8.4c1.6-1.9,3.3-3.5,5.3-5c1.8-1.4,3.7-2.5,5.7-3.4 c4.3-1.9,8.6-2.5,12.7-1.7c5.5,1,10.4,4.5,14.4,7.7c0.9,0.7,1.7,1.4,2.6,2.1c0.8,0.7,1.7,1.4,2.5,2c2.1,1.6,4.5,3.4,7.1,4.8 c6.8,3.6,13,4.3,19,2.3c4.4-1.5,8.7-3.3,12.9-5.1c8.6-3.6,16.7-7,25.8-8.3c13.6-1.9,27.4-0.3,39.7,4.8l0.1-0.2 c-12.4-5.1-26.2-6.7-39.8-4.8c-9.2,1.3-17.7,4.9-25.9,8.3c-4.2,1.7-8.5,3.5-12.8,5c-5.9,2-12.1,1.3-18.8-2.3c-2.6-1.4-5-3.2-7.1-4.8 c-0.9-0.7-1.7-1.4-2.5-2c-0.8-0.7-1.7-1.4-2.6-2.1c-4.1-3.2-9-6.7-14.5-7.8c-4.2-0.8-8.5-0.2-12.8,1.7c-2,0.9-3.9,2-5.7,3.4 c-2,1.5-3.7,3.1-5.3,5c-1.9,2.3-3.6,4.8-5.6,8.5c-1.4,2.7-3,5.4-4.9,8.3c-1.9,2.9-5,7.2-9.3,11.1c-2.9,2.6-5.3,4.5-7.7,5.7 c-2.4,1.3-5.1,1.9-7.6,1.7c-1.9-0.2-3.5-0.8-4.6-1.9c-0.7-0.6-1.1-1.4-1.6-2.1c-0.2-0.4-0.5-0.8-0.8-1.1c-1.6-2.1-4.4-4.9-7.3-5.6 c-2-0.5-4.7,0-7.3,0.5c-1.6,0.3-3.4,0.6-4.8,0.7c-0.1,0-0.2,0-0.3,0c-2.9,0-5.7-0.8-9-2.6c-3.2-1.7-6.5-4.4-10-8.2 c-1.1-1.2-2.2-2.5-3.3-3.7c-2.8-3.1-5.7-6.4-9.1-9.2c-0.9-0.7-1.8-1.5-2.4-2.1l-0.3-0.3c-2.6-2.4-5.4-5-9.6-5.7 c-4.7-0.8-9.5-1.4-13.6-1.8l-0.5-0.1c-1.9-0.2-3.7-0.4-5.6-0.4c-3.7-0.1-7.8,0.5-12.7,1.6c-4,0.9-8.1,2.2-12.5,3.8 c-2.2,0.8-4.5,1.8-6.7,2.8l0,0c-6,2.7-11.4,5-17,5.2c-1.2,0.1-2.3,0-3.5,0c-0.7,0-1.5-0.1-2.2-0.1c-0.1,0-0.1,0-0.2,0 C90,26,81,32.2,76.2,37.9c-1.4,0.4-2.7,0.7-4,1c-3.8,1-7.1,1.8-10.5,3.5c-6.5,3.1-11.1,7.8-13.8,14l0.2,0.1 c2.6-6.1,7.2-10.8,13.7-13.9c3.4-1.6,6.7-2.5,10.5-3.5c1.3-0.3,2.6-0.7,4-1.1l0,0l0,0c4.7-5.7,13.7-11.8,24.8-11.8 c0.1,0,0.1,0,0.2,0c0.7,0,1.5,0,2.2,0.1c1.1,0,2.3,0.1,3.5,0c5.7-0.3,11.1-2.5,17.1-5.3l0,0c2.2-1,4.5-2,6.7-2.8 c4.4-1.6,8.5-2.8,12.5-3.8c4.9-1.1,9-1.7,12.7-1.6c1.9,0,3.7,0.2,5.6,0.4l0.5,0.1c4.1,0.4,8.8,1,13.5,1.8c4.1,0.7,6.9,3.2,9.5,5.7 l0.3,0.3c0.6,0.6,1.5,1.4,2.4,2.1c3.4,2.8,6.3,6,9.1,9.2c1.1,1.2,2.2,2.5,3.3,3.7c3.5,3.8,6.8,6.5,10.1,8.2c3.4,1.9,6.4,2.7,9.4,2.7 c1.5,0,3.2-0.3,4.9-0.7c2.6-0.5,5.2-1,7.2-0.5c2.8,0.7,5.6,3.4,7.2,5.5c0.3,0.4,0.5,0.7,0.8,1.1c0.5,0.7,1,1.5,1.6,2.1 c1.2,1.1,2.8,1.8,4.7,1.9c0.3,0,0.6,0,1,0C249.1,56.6,251.5,56,253.6,54.8z M61.3,43.5c3.6-2.4,7.2-3.9,11.8-5.7l1-0.4l0,0 c4.6-6.1,13.5-12.6,24.8-12.7c0.7,0,1.5,0,2.2,0.1c1.1,0,2.3,0.1,3.5,0c6-0.3,11.9-3.1,17.1-5.5c2.1-1,4.4-2.1,6.7-2.9 c4.3-1.6,8.5-2.9,12.5-3.8c3.5-0.8,8.2-1.8,12.8-1.7c2.2,0,4.4,0.2,6.2,0.3c5.4,0.4,9.7,1,13.6,1.6c4.2,0.7,6.7,3.2,9.5,5.8l0.3,0.3 c0.7,0.7,1.5,1.4,2.4,2.2c3.4,2.9,6.3,6.4,9.1,9.7c1,1.2,2.1,2.5,3.1,3.7c3.5,4,6.7,6.8,10,8.7c3.2,1.9,6.3,2.9,9.5,3 c1.6,0.1,3.4-0.2,5.1-0.5c2.5-0.4,5.1-0.8,7.1-0.2c2.9,0.9,5.7,3.9,7.2,6.1c0.3,0.4,0.5,0.8,0.7,1.2c0.5,0.8,1,1.6,1.6,2.3 c1.2,1.2,2.8,2,4.8,2.2c2.5,0.3,5.3-0.2,7.8-1.5c2.5-1.3,5.1-3.1,7.8-5.7c4.3-4,7.3-8.4,9.2-11.4c1.8-2.9,3.4-5.8,4.7-8.5 c1.9-3.8,3.5-6.5,5.4-8.8c1.5-1.9,3.2-3.6,5.2-5.2c1.8-1.5,3.7-2.7,5.7-3.6c4.3-2.1,8.6-2.8,12.8-2.1c5.6,0.9,10.5,4.4,14.6,7.6 c0.9,0.7,1.8,1.4,2.6,2.1c0.8,0.7,1.7,1.3,2.5,2c2.1,1.6,4.5,3.4,7.1,4.8c6.8,3.7,13,4.4,19,2.3c4.5-1.6,8.9-3.5,13.1-5.4 c8.3-3.6,16.9-7.3,26.2-8.7c13.9-2.1,27.9-0.6,40.6,4.4l0.1-0.2c-12.7-5.1-26.8-6.6-40.7-4.4c-9.3,1.4-17.9,5.2-26.2,8.8 c-4.3,1.8-8.6,3.7-13.1,5.4c-6,2.1-12,1.4-18.8-2.3c-2.6-1.4-5.1-3.2-7.1-4.8c-0.8-0.6-1.7-1.3-2.5-2c-0.9-0.7-1.8-1.4-2.7-2.1 c-4.1-3.2-9-6.6-14.7-7.6c-4.2-0.7-8.6,0-12.9,2.1c-2,1-3.9,2.2-5.7,3.7c-2,1.6-3.7,3.3-5.2,5.3c-1.9,2.3-3.5,5-5.4,8.8 c-1.4,2.8-3,5.6-4.7,8.5c-1.8,3-4.9,7.4-9.1,11.4c-2.8,2.6-5.3,4.4-7.8,5.7c-2.4,1.2-5.2,1.8-7.7,1.5c-1.9-0.2-3.5-1-4.6-2.1 c-0.7-0.7-1.1-1.5-1.6-2.3c-0.2-0.4-0.5-0.8-0.7-1.2c-1.5-2.3-4.4-5.3-7.3-6.2c-2-0.6-4.6-0.2-7.2,0.2c-1.7,0.3-3.5,0.6-5.1,0.5 c-3.1-0.1-6.2-1.1-9.4-3c-3.2-1.9-6.5-4.7-9.9-8.7c-1-1.2-2.1-2.5-3.1-3.7c-2.8-3.3-5.6-6.8-9.1-9.7c-0.9-0.7-1.7-1.5-2.4-2.2 l-0.3-0.3c-2.6-2.5-5.3-5.2-9.6-5.9c-3.9-0.7-8.3-1.2-13.7-1.6c-1.8-0.1-3.9-0.3-6.2-0.3c-4.6-0.1-9.3,0.9-12.8,1.7 c-4,0.9-8.2,2.2-12.5,3.8c-2.3,0.9-4.7,2-6.7,2.9c-5.2,2.4-11.1,5.2-17,5.5c-1.1,0.1-2.3,0-3.4,0c-0.7,0-1.5-0.1-2.2-0.1 c0,0,0,0,0,0c-11.3,0-20.3,6.6-24.9,12.7l-1,0.4c-4.6,1.8-8.2,3.2-11.8,5.7c-5.6,3.8-9.3,8.5-11.4,14.4l0.2,0.1 C52.1,51.9,55.8,47.2,61.3,43.5z M60.9,44.3c3.2-3.1,6.6-5.2,11-7.6l0,0c5.6-8.1,15.2-13.4,24.6-13.5c0.8,0,1.5,0,2.3,0 c1.1,0,2.3,0.1,3.4,0c5.9-0.4,11.6-3.1,17.1-5.7l0,0c2.4-1.2,4.6-2.2,6.7-3c4.2-1.6,8.4-2.9,12.5-3.9c4.8-1.1,9-1.7,12.9-1.8 c2.1-0.1,4.1,0.1,6.2,0.2c5.2,0.3,9.7,0.8,13.7,1.4c4.2,0.7,6.8,3.3,9.4,6l0.3,0.3c0.7,0.7,1.5,1.5,2.3,2.3 c3.5,3.1,6.3,6.8,9.1,10.3c0.9,1.2,1.9,2.4,2.9,3.6c3.5,4.2,6.6,7.2,9.8,9.2c3.2,2,6.3,3.1,9.5,3.4c1.6,0.1,3.4-0.1,5.1-0.4 c2.6-0.3,5.2-0.7,7.2,0c2.8,1,5.7,4.1,7.2,6.7c0.3,0.4,0.5,0.8,0.7,1.3c0.5,0.9,0.9,1.8,1.6,2.6c1.1,1.3,2.8,2.1,4.8,2.5 c2.5,0.4,5.4-0.1,8-1.3c2.6-1.3,5.2-3.1,7.9-5.7c4.3-4,7.3-8.6,9-11.6c1.7-3,3.2-5.9,4.5-8.8c1.8-4,3.4-6.7,5.2-9.2 c1.5-2,3.2-3.8,5.1-5.5c1.8-1.5,3.7-2.8,5.7-3.9c4.3-2.3,8.7-3.1,12.9-2.5c5.1,0.7,9.6,3.5,14.8,7.4c0.9,0.7,1.8,1.4,2.7,2.1 c0.8,0.6,1.7,1.3,2.5,1.9c2.1,1.6,4.6,3.4,7.2,4.8c7,3.8,13,4.5,19,2.3c4.6-1.7,9.1-3.7,13.4-5.7c8.4-3.8,17-7.6,26.5-9.2 c14.1-2.3,28.4-0.9,41.4,4.1l0.1-0.2c-13-5-27.3-6.5-41.5-4.1c-9.5,1.6-18.1,5.5-26.5,9.2c-4.3,1.9-8.8,4-13.4,5.6 c-6,2.2-11.9,1.5-18.9-2.3c-2.6-1.4-5.1-3.2-7.1-4.8c-0.8-0.6-1.7-1.3-2.5-1.9c-0.9-0.7-1.8-1.4-2.7-2.1c-5.2-3.9-9.7-6.7-14.9-7.4 c-4.3-0.6-8.6,0.2-13,2.5c-2,1-3.9,2.3-5.7,3.9c-1.9,1.7-3.6,3.5-5.1,5.5c-1.8,2.5-3.4,5.2-5.2,9.2c-1.3,2.9-2.8,5.8-4.5,8.8 c-1.7,3.1-4.7,7.6-9,11.6c-2.7,2.6-5.3,4.4-7.9,5.6c-2.5,1.2-5.4,1.7-7.8,1.3c-2-0.3-3.6-1.2-4.7-2.4c-0.7-0.8-1.2-1.7-1.6-2.5 c-0.2-0.4-0.5-0.9-0.7-1.3c-1.6-2.6-4.5-5.8-7.4-6.8c-2-0.7-4.7-0.4-7.3,0c-1.8,0.2-3.6,0.5-5.1,0.4c-3.2-0.2-6.3-1.3-9.4-3.3 c-3.2-2-6.3-5-9.8-9.2c-1-1.2-1.9-2.4-2.9-3.6c-2.8-3.5-5.6-7.2-9.1-10.3c-0.8-0.7-1.6-1.5-2.3-2.2l-0.3-0.3 c-2.7-2.8-5.3-5.4-9.5-6.1c-4-0.7-8.5-1.2-13.7-1.4c-2.1-0.1-4.2-0.2-6.3-0.2c-3.9,0.1-8.1,0.7-12.9,1.8c-4.1,1-8.3,2.3-12.5,3.9 c-2.2,0.8-4.3,1.8-6.7,3l0,0c-5.5,2.6-11.1,5.3-17,5.7c-1.1,0.1-2.3,0-3.4,0c-0.7,0-1.5,0-2.3,0c-4.9,0-9.8,1.4-14.3,4 c-4.2,2.4-7.8,5.7-10.4,9.5c-4.4,2.4-7.7,4.6-11,7.7c-4.6,4.4-7.5,9.1-9,14.8l0.2,0.1C53.5,53.4,56.3,48.7,60.9,44.3z M60.4,45.2 c2.5-3.5,5.3-6.2,9.2-9.2l0,0c5.4-8.6,15-14.2,24.4-14.3c0.8,0,1.5,0,2.3,0c1.1,0,2.3,0.1,3.4,0c5.8-0.4,11.4-3.1,16.7-5.8l0.4-0.2 c2.3-1.1,4.5-2.2,6.7-3.1c4.2-1.6,8.4-2.9,12.5-3.9c4.7-1.1,9-1.8,13-1.9c2.2-0.1,4.3,0,6.3,0c5.2,0.2,9.7,0.6,13.8,1.2 c4.2,0.7,6.8,3.4,9.4,6.2l0.2,0.2c0.7,0.8,1.5,1.6,2.3,2.3c3.5,3.2,6.3,7.1,9,10.8c0.9,1.2,1.8,2.4,2.7,3.6c3.4,4.4,6.5,7.5,9.7,9.7 c3.2,2.2,6.3,3.4,9.6,3.7c1.6,0.2,3.4,0,5.2-0.2c2.6-0.3,5.3-0.6,7.3,0.2c2.9,1.2,5.8,4.6,7.3,7.3c0.2,0.4,0.5,0.9,0.7,1.3 c0.5,1,0.9,1.9,1.6,2.8c1.1,1.4,2.8,2.3,4.9,2.7c2.6,0.5,5.5,0.1,8.1-1.1c2.7-1.2,5.3-3.1,8-5.6c4.3-4.1,7.2-8.7,8.9-11.9 c1.6-3,3.1-6.1,4.3-9.1c1.7-4.1,3.2-7,5-9.5c1.5-2.1,3.1-4,5-5.7c1.8-1.6,3.6-3,5.6-4.1c4.3-2.4,8.8-3.4,13-2.9 c5.5,0.7,10.4,3.9,14.9,7.2c0.9,0.7,1.9,1.4,2.8,2.1c0.8,0.6,1.6,1.3,2.5,1.9c2.1,1.6,4.6,3.4,7.2,4.8c7,3.9,13.1,4.6,19,2.3 c4.7-1.8,9.3-3.9,13.7-5.9c8.5-3.9,17.3-8,26.8-9.7c14.4-2.6,29-1.3,42.2,3.8l0.1-0.2c-13.3-5-27.9-6.3-42.3-3.8 c-9.6,1.7-18.4,5.8-26.9,9.7c-4.4,2-9,4.2-13.7,5.9c-5.9,2.3-11.9,1.5-18.9-2.3c-2.6-1.4-5.1-3.2-7.2-4.8c-0.8-0.6-1.7-1.3-2.5-1.9 c-0.9-0.7-1.9-1.4-2.8-2.1c-4.5-3.4-9.5-6.6-15-7.3c-4.2-0.5-8.8,0.5-13.1,2.9c-2,1.1-3.9,2.5-5.7,4.1c-1.9,1.8-3.6,3.6-5.1,5.7 c-1.8,2.5-3.3,5.4-5,9.5c-1.3,3-2.7,6.1-4.3,9.1c-1.7,3.1-4.6,7.7-8.8,11.8c-2.7,2.5-5.3,4.4-7.9,5.6c-2.5,1.2-5.5,1.6-8,1 c-2-0.4-3.7-1.3-4.8-2.7c-0.7-0.8-1.2-1.8-1.6-2.8c-0.2-0.4-0.4-0.9-0.7-1.4c-1.6-2.8-4.4-6.2-7.4-7.4c-2.1-0.8-4.8-0.5-7.4-0.2 c-1.8,0.2-3.6,0.4-5.1,0.2c-3.2-0.3-6.3-1.5-9.5-3.7c-3.2-2.2-6.3-5.3-9.7-9.7c-0.9-1.2-1.8-2.4-2.7-3.6c-2.7-3.7-5.5-7.6-9-10.8 c-0.8-0.8-1.6-1.6-2.3-2.3l-0.2-0.2c-2.7-2.9-5.2-5.5-9.5-6.2c-4.1-0.7-8.7-1.1-13.8-1.3c-2-0.1-4.1-0.1-6.3,0 c-4,0.2-8.3,0.8-13.1,1.9c-4.1,1-8.4,2.3-12.5,3.9c-2.2,0.9-4.4,1.9-6.7,3.1l-0.4,0.2c-5.4,2.6-10.9,5.4-16.7,5.8 c-1.1,0.1-2.3,0-3.4,0c-0.8,0-1.5,0-2.3,0c-9.5,0.1-19.1,5.8-24.6,14.4c-3.9,3-6.7,5.7-9.2,9.2c-3.5,4.9-5.6,9.7-6.6,15.1l0.2,0 C54.8,54.8,56.9,50,60.4,45.2z M60,46.1c1.5-3.1,3.5-5.7,5.6-8.4c0.6-0.8,1.2-1.5,1.8-2.4c5.1-6.8,13.5-15,24.3-15.2 c0.8,0,1.6,0,2.3,0c1.1,0,2.3,0.1,3.4,0c5.7-0.4,11.2-3.2,16.5-5.9l0.6-0.3c2.3-1.1,4.5-2.2,6.7-3.1c4.1-1.6,8.4-3,12.5-4 c4.6-1.1,9-1.8,13.1-2.1c1.9-0.1,3.9-0.2,6.4-0.1c5.1,0,9.7,0.4,13.9,1.1c4.3,0.7,6.8,3.4,9.4,6.4l0.2,0.2c0.8,0.8,1.5,1.6,2.3,2.4 c3.5,3.4,6.2,7.4,8.9,11.3c0.8,1.2,1.7,2.5,2.6,3.7c3.3,4.6,6.4,7.9,9.6,10.2c3.2,2.3,6.3,3.7,9.6,4.1c1.6,0.2,3.4,0.1,5.2-0.1 c2.7-0.2,5.4-0.5,7.5,0.5c3,1.3,5.9,5,7.3,7.9c0.2,0.5,0.5,0.9,0.7,1.4c0.5,1,0.9,2.1,1.7,3c1.1,1.5,2.9,2.5,4.9,3 c2.6,0.6,5.6,0.3,8.3-0.8c2.7-1.2,5.4-3.1,8.1-5.6c4.3-4.1,7.1-8.8,8.7-12.1c1.5-3.1,2.9-6.3,4.2-9.4c1.6-4.3,3.1-7.2,4.8-9.9 c1.4-2.2,3-4.1,4.9-6c1.7-1.7,3.6-3.1,5.6-4.3c4.3-2.6,8.8-3.7,13.1-3.3c5.6,0.6,10.6,3.7,15.1,7.1c1,0.7,1.9,1.5,2.9,2.2 c0.8,0.6,1.6,1.2,2.4,1.8c2.1,1.6,4.6,3.4,7.2,4.8c7,4,13.1,4.7,19.1,2.4c4.8-1.9,9.4-4.1,14-6.2c8.6-4.1,17.5-8.3,27.2-10.2 c14.6-2.8,29.5-1.6,43,3.4l0.1-0.2c-13.5-5-28.4-6.2-43.1-3.4c-9.8,1.8-18.7,6.1-27.3,10.2c-4.5,2.1-9.2,4.4-13.9,6.2 c-5.9,2.3-11.9,1.6-18.9-2.3c-2.6-1.4-5.1-3.2-7.2-4.8c-0.8-0.6-1.6-1.2-2.4-1.8c-0.9-0.7-1.9-1.5-2.9-2.2 c-4.5-3.3-9.5-6.5-15.2-7.1c-4.3-0.4-8.9,0.7-13.2,3.3c-2,1.2-3.9,2.6-5.6,4.3c-1.9,1.8-3.5,3.8-5,6c-1.7,2.7-3.2,5.6-4.8,9.9 c-1.2,3.1-2.6,6.3-4.1,9.4c-1.6,3.2-4.5,8-8.7,12c-2.6,2.5-5.3,4.4-8,5.6c-2.6,1.1-5.6,1.4-8.1,0.8c-2-0.5-3.7-1.5-4.8-2.9 c-0.7-0.9-1.2-2-1.6-3c-0.2-0.5-0.4-1-0.7-1.4c-1.5-2.9-4.4-6.6-7.4-8c-2.1-0.9-4.9-0.7-7.6-0.5c-1.8,0.2-3.6,0.3-5.1,0.1 c-3.3-0.4-6.4-1.8-9.5-4.1c-3.2-2.3-6.2-5.6-9.6-10.2c-0.9-1.2-1.7-2.5-2.6-3.7c-2.7-3.9-5.4-7.9-8.9-11.3c-0.8-0.8-1.5-1.6-2.3-2.4 l-0.2-0.2c-2.7-3-5.2-5.8-9.5-6.4c-4.2-0.7-8.9-1-13.9-1.1c-2.5,0-4.5,0-6.4,0.1c-4.1,0.3-8.6,0.9-13.2,2.1c-4.2,1-8.4,2.3-12.6,4 c-2.2,0.9-4.5,2-6.7,3.1l-0.6,0.3c-5.3,2.7-10.7,5.4-16.4,5.9c-1.1,0.1-2.3,0.1-3.4,0c-0.8,0-1.6,0-2.3,0 c-10.8,0.2-19.3,8.4-24.4,15.3c-0.6,0.8-1.2,1.6-1.8,2.4c-2.1,2.7-4.2,5.3-5.6,8.4c-2.4,5.1-3.8,10.2-4.2,15.5l0.2,0 C56.2,56.2,57.6,51.1,60,46.1z M57.7,62.8c-0.2-5.4,0.4-10.8,1.8-15.9c1.1-3.9,2.8-7.7,5.7-12.3c6-9.8,15-15.8,24.1-16 c0.8,0,1.6,0,2.3,0c1.1,0,2.3,0,3.4,0c5.6-0.4,11-3.3,16.2-6l0.9-0.5c2.2-1.1,4.4-2.3,6.7-3.2c4.1-1.6,8.3-3,12.6-4 c4.4-1.1,8.9-1.8,13.2-2.2c2.1-0.2,4.2-0.3,6.5-0.3c5-0.1,9.8,0.2,14,0.9c4.3,0.7,6.8,3.5,9.4,6.5l0.2,0.2c0.7,0.9,1.5,1.7,2.2,2.5 c3.5,3.5,6.2,7.7,8.8,11.8c0.8,1.2,1.6,2.5,2.5,3.7c3.2,4.7,6.3,8.3,9.5,10.7c3.1,2.5,6.3,3.9,9.7,4.4c1.6,0.3,3.3,0.1,5.2,0 c2.7-0.2,5.5-0.3,7.6,0.7c3.1,1.5,6,5.4,7.4,8.4c0.2,0.5,0.4,1,0.6,1.5c0.5,1.1,0.9,2.3,1.7,3.2c1.1,1.6,2.9,2.7,5,3.3 c2.7,0.7,5.7,0.5,8.4-0.6c2.8-1.2,5.5-3,8.1-5.5c3.3-3.2,6.4-7.6,8.6-12.3c1.5-3.2,2.8-6.4,4-9.7c1.1-3.1,2.5-6.8,4.6-10.2 c1.4-2.2,3-4.3,4.9-6.2c1.7-1.8,3.6-3.3,5.6-4.5c4.3-2.7,8.9-4,13.2-3.6c5.7,0.5,10.7,3.6,15.2,6.9c1,0.7,2,1.5,3,2.2 c0.8,0.6,1.6,1.2,2.4,1.8c2.3,1.7,4.7,3.4,7.2,4.8c7.1,4,13.1,4.8,19.1,2.4c4.9-2,9.6-4.3,14.2-6.5c8.7-4.3,17.7-8.7,27.6-10.6 c14.9-3,30-1.9,43.8,3.1l0.1-0.2c-13.8-5-29-6.1-43.9-3.1c-9.9,2-18.9,6.4-27.6,10.6c-4.6,2.2-9.3,4.6-14.2,6.5 c-5.9,2.4-11.9,1.6-18.9-2.4c-2.5-1.4-5-3.2-7.2-4.8c-0.8-0.6-1.6-1.2-2.4-1.8c-1-0.7-2-1.5-3-2.2c-4.6-3.3-9.6-6.5-15.3-6.9 c-4.4-0.4-9,0.9-13.3,3.7c-2,1.3-3.9,2.8-5.6,4.6c-1.9,1.9-3.5,4-4.9,6.2c-2.1,3.4-3.5,7.1-4.6,10.3c-1.1,3.2-2.5,6.5-4,9.7 c-2.2,4.7-5.2,9-8.6,12.3c-2.6,2.5-5.3,4.4-8.1,5.5c-2.6,1.1-5.7,1.3-8.3,0.6c-2.1-0.6-3.8-1.7-4.9-3.2c-0.7-1-1.2-2.1-1.6-3.2 c-0.2-0.5-0.4-1-0.6-1.5c-1.4-3-4.4-7-7.5-8.5c-2.1-1-5-0.9-7.7-0.7c-1.9,0.1-3.6,0.2-5.2,0c-3.3-0.5-6.5-2-9.6-4.4 c-3.2-2.5-6.3-6-9.5-10.7c-0.8-1.2-1.7-2.5-2.5-3.7c-2.6-4.1-5.3-8.3-8.8-11.8c-0.8-0.8-1.5-1.6-2.2-2.5l-0.2-0.2 c-2.6-3-5.1-5.9-9.5-6.6c-4.2-0.6-9-0.9-14-0.9c-2.2,0-4.4,0.1-6.5,0.3c-4.3,0.4-8.8,1.1-13.3,2.2c-4.2,1-8.5,2.4-12.6,4 c-2.3,0.9-4.6,2.1-6.7,3.2l-0.9,0.5c-5.2,2.7-10.6,5.5-16.1,5.9c-1.1,0.1-2.3,0.1-3.4,0c-0.8,0-1.6,0-2.3,0 C80.1,18.6,71,24.6,65,34.5c-2.9,4.7-4.6,8.5-5.7,12.4c-1.4,5.1-2,10.5-1.8,15.9L57.7,62.8z M59.6,64c-1.8-11.5-0.7-22,3.3-30.1 c2.3-4.7,5.7-8.7,9.8-11.8C77.1,19,82,17.2,86.9,17c0.8,0,1.6,0,2.4,0c1.1,0,2.2,0,3.4-0.1c5.5-0.5,10.8-3.3,16-6.1 c2.7-1.4,5.3-2.8,7.8-3.9c8.3-3.4,17-5.5,25.9-6.4C149.9,0,156.9,0,163,0.9c4.3,0.6,6.8,3.6,9.3,6.7c0.8,0.9,1.6,1.9,2.4,2.8 c3.4,3.6,6.1,8,8.7,12.2c0.8,1.3,1.6,2.5,2.3,3.8c3.8,6.1,10,14.3,19.1,16c1.6,0.3,3.3,0.2,5.2,0.2c2.8-0.1,5.6-0.2,7.7,0.9 c3,1.6,6,5.8,7.4,9c0.2,0.5,0.4,1,0.6,1.6c0.5,1.2,0.9,2.4,1.7,3.5c2.9,4.4,9.2,4.9,13.6,3.1c6.6-2.6,12.9-9.3,16.7-18 c1.4-3.2,2.7-6.6,3.8-10c2.2-7,4.4-12,9.2-17c5.6-6,12.4-9.2,18.8-8.8c6.9,0.4,12.8,4.8,18.5,9c0.8,0.6,1.6,1.1,2.3,1.7 c8.4,6.1,16.7,11.2,26.4,7.2c4.9-2,9.8-4.5,14.4-6.8c8.8-4.4,17.9-9,28-11.1c15.1-3.2,30.6-2.2,44.6,2.8l0.1-0.2 c-14.1-5-29.6-5.9-44.7-2.8c-10.1,2.1-19.2,6.7-28,11.1c-4.7,2.3-9.5,4.8-14.4,6.8c-9.5,4-17.8-1.2-26.2-7.2 c-0.8-0.6-1.5-1.1-2.3-1.7c-5.7-4.2-11.6-8.6-18.6-9c-6.5-0.4-13.4,2.8-19,8.8c-4.7,5.1-7,10.1-9.2,17.1c-1.1,3.4-2.3,6.7-3.8,9.9 c-3.8,8.6-10,15.4-16.6,17.9c-4.3,1.7-10.5,1.2-13.4-3.1c-0.7-1.1-1.2-2.3-1.6-3.4c-0.2-0.5-0.4-1.1-0.6-1.6 c-1.4-3.2-4.3-7.4-7.5-9.1c-2.2-1.2-5-1.1-7.8-1c-1.9,0.1-3.6,0.1-5.2-0.2c-9-1.7-15.2-9.9-19-16c-0.8-1.3-1.6-2.5-2.3-3.8 c-2.6-4.2-5.2-8.6-8.7-12.3c-0.8-0.9-1.6-1.8-2.4-2.8c-2.6-3.1-5-6.1-9.4-6.7c-6.1-0.9-13.1-1-20.7-0.2c-8.9,0.9-17.7,3-26,6.4 c-2.6,1.1-5.2,2.4-7.9,3.9c-5.1,2.7-10.4,5.6-15.9,6c-1.1,0.1-2.2,0.1-3.4,0.1c-0.8,0-1.6,0-2.4,0C81.9,17,77,18.8,72.6,22 c-4.2,3-7.6,7.1-9.9,11.8c-4,8.2-5.2,18.7-3.3,30.3L59.6,64z"/></g></svg>