<?xml version="1.0" encoding="UTF-8"?>
<svg id="Layer_2" data-name="Layer 2" xmlns="http://www.w3.org/2000/svg" viewBox="0 0 990.03 611.82">
  <defs>
    <style>
      .cls-1 {
        fill: none;
        stroke: #fff;
        stroke-miterlimit: 10;
      }
    </style>
  </defs>
  <g id="Layer_2-2" data-name="Layer 2">
    <g>
      <path class="cls-1" d="M989.59,51.46c-20.36,38.59-91.47,122.85-177.07,103.59-85.59-19.26-66.65-63.23-87.05-95.34-20.39-32.11-43.83-18-45.18,1.45-1.34,19.44,3.79,59.41-25.09,66.95-28.88,7.53-26.73-21.59-137.93-11.26-111.2,10.33-160.62,251.1-168.39,294.68-7.78,43.57-60.09,199.55-171.18,199.79S35.5,415.04,35.5,415.04"/>
      <path class="cls-1" d="M984.45,45.65c-20.36,38.59-91.47,122.85-177.07,103.59-85.59-19.26-66.65-63.23-87.05-95.34-20.39-32.11-43.83-18-45.18,1.45-1.34,19.44,3.79,59.41-25.09,66.95s-26.73-21.59-137.93-11.26c-111.2,10.33-160.62,251.1-168.39,294.68-7.78,43.57-60.09,199.55-171.18,199.79S30.37,409.23,30.37,409.23"/>
      <path class="cls-1" d="M979.79,39.98c-20.36,38.59-91.47,122.85-177.07,103.59-85.59-19.26-66.65-63.23-87.05-95.34-20.39-32.11-43.83-18-45.18,1.45-1.34,19.44,3.79,59.41-25.09,66.95s-26.73-21.59-137.93-11.26c-111.2,10.33-160.62,251.1-168.39,294.68-7.78,43.57-60.09,199.55-171.18,199.79-111.09.24-142.19-196.27-142.19-196.27"/>
      <path class="cls-1" d="M974.65,34.16c-20.36,38.59-91.47,122.85-177.07,103.59-85.59-19.26-66.65-63.23-87.05-95.34-20.39-32.11-43.83-18-45.18,1.45s3.79,59.41-25.09,66.95c-28.88,7.53-26.73-21.59-137.93-11.26-111.2,10.33-160.62,251.1-168.39,294.68-7.78,43.57-60.09,199.55-171.18,199.79-111.09.24-142.19-196.27-142.19-196.27"/>
      <path class="cls-1" d="M969.51,28.58c-20.36,38.59-91.47,122.85-177.07,103.59-85.59-19.26-66.65-63.23-87.05-95.34-20.39-32.11-43.83-18-45.18,1.45-1.34,19.44,3.79,59.41-25.09,66.95-28.88,7.53-26.73-21.59-137.93-11.26-111.2,10.33-160.62,251.1-168.39,294.68-7.78,43.57-60.09,199.55-171.18,199.79-111.09.24-142.19-196.27-142.19-196.27"/>
      <path class="cls-1" d="M964.38,22.77c-20.36,38.59-91.47,122.85-177.07,103.59-85.59-19.26-66.65-63.23-87.05-95.34-20.39-32.11-43.83-18-45.18,1.45-1.34,19.44,3.79,59.41-25.09,66.95-28.88,7.53-26.73-21.59-137.93-11.26-111.2,10.33-160.62,251.1-168.39,294.68-7.78,43.57-60.09,199.55-171.18,199.79-111.09.24-142.19-196.27-142.19-196.27"/>
      <path class="cls-1" d="M959.71,17.1c-20.36,38.59-91.47,122.85-177.07,103.59-85.59-19.26-66.65-63.23-87.05-95.34-20.39-32.11-43.83-18-45.18,1.45-1.34,19.44,3.79,59.41-25.09,66.95-28.88,7.53-26.73-21.59-137.93-11.26-111.2,10.33-160.62,251.1-168.39,294.68-7.78,43.57-60.09,199.55-171.18,199.79-111.09.24-142.19-196.27-142.19-196.27"/>
      <path class="cls-1" d="M954.58,11.28c-20.36,38.59-91.47,122.85-177.07,103.59-85.59-19.26-66.65-63.23-87.05-95.34-20.39-32.11-43.83-18-45.18,1.45-1.34,19.44,3.79,59.41-25.09,66.95-28.88,7.53-26.73-21.59-137.93-11.26-111.2,10.33-160.62,251.1-168.39,294.68-7.78,43.57-60.09,199.55-171.18,199.79C31.6,571.37.49,374.86.49,374.86"/>
    </g>
  </g>
</svg>