<svg preserveAspectRatio="xMidYMid meet" version="1.0" viewBox="450.1 260.8 338.3 339.8" xmlns="http://www.w3.org/2000/svg" xmlns:xlink="http://www.w3.org/1999/xlink" zoomAndPan="magnify" style="fill: rgb(0, 0, 0);" original_string_length="23995"><g><g id="__id199_s4j5oalpes" style="fill: rgb(227, 132, 105);"><path d="M624.5222,263.22046L615.922,263.9462L607.32166,264.67197L610.27985,264.88184L624.5222,263.22046 M644.49036,281.74155L643.4806,281.81073L643.4806,281.8114L643.6927,281.85352L643.6927,281.85416L644.49036,281.74155 M639.7599,282.06567L628.608,282.8298L632.82404,283.37988L640.5845,282.29053L639.7599,282.06567 M612.94385,286.08185L613.26996,286.1242L613.26996,286.12488L612.0942,286.28925L612.0942,286.28992L612.94385,286.08185 M599.3008,283.67386L594.1306,285.26428L588.96045,286.8547L591.9471,284.6817L599.3008,283.67386 M602.01105,288.97424L601.8303,288.9786L601.64966,288.98297L600.3904,289.40778Q601.2007,289.191,602.01105,288.97424 M630.01,288.2983L641.45874,289.78522L641.9603,290.32968L630.0215,288.47974L618.0482,289.59882L605.93616,288.88016L630.01,288.2983 M655.02313,291.6987L655.17487,291.75235L655.32666,291.806L655.32666,291.80667L655.26154,291.8045L655.26154,291.80518Q655.14233,291.75192,655.02313,291.6987 M619.7048,260.84952L652.5333,268.58865L669.86304,271.09354L689.9761,280.32126L714.1339,292.72937L684.342,274.68143L675.3721,270.93375L646.4034,262.17816L619.7048,260.84952 M656.5602,292.38077L657.76373,292.66736L658.32355,292.86588L657.2917,292.70532L656.5602,292.38077 M643.6927,281.85352L640.5845,282.28986L682.02185,293.53918L680.3496,292.59433L657.0469,284.54764L643.6927,281.85352 M611.7051,285.92096L612.8853,286.07425L612.02856,286.29913L610.52057,286.51016L592.3801,291.1016L611.7325,286.3782L602.01105,288.97424L605.01404,288.90244L594.93744,291.75687L593.1688,291.92206L591.62427,292.62067L590.5691,292.71527L600.3904,289.40714L588.86804,292.48486L588.2675,292.92368L580.00916,293.66833L582.0023,292.78452L611.7051,285.92096 M586.82294,293.97708L586.7345,294.0416L586.6461,294.10675Q585.99677,294.29044,585.3475,294.4741Q586.0852,294.2256,586.82294,293.97708 M682.02185,293.53918L682.91,294.041L683.7981,294.5428L684.13293,294.11157L682.02185,293.53918 M621.8516,268.68408L585.8023,278.4301L554.75146,292.95483L552.4641,294.5915L555.6343,293.31558L557.0794,292.27924L589.0791,277.84097L621.47766,269.41092L621.8516,268.68408 M570.63416,281.39352L561.7741,282.4393L537.3658,295.45914L565.3529,282.62543L542.1884,294.37894L570.63416,281.39352 M563.29736,292.97028L561.9898,294.35742L560.68225,295.74527L554.4219,297.76773Q558.8596,295.36902,563.29736,292.97028 M577.0676,297.263L571.37195,299.65167L572.5752,298.77618L577.0676,297.263 M676.99677,299.4652L677.7143,299.82718L678.4319,300.18915Q679.07294,300.30737,679.714,300.4256Q678.35535,299.9454,676.99677,299.4652 M688.3981,301.81824L694.1869,303.09454L688.9269,302.1252L688.3981,301.81824 M564.5476,304.61688L564.1131,304.933L563.67865,305.24915Q564.3669,304.9381,565.0551,304.6271L565.0551,304.62775Q564.80133,304.6223,564.5476,304.61688 M668.39514,297.40805L675.78827,299.03806L676.99677,299.4652L676.4309,299.17975L681.49225,300.29565L682.40485,300.9225L679.714,300.4256L683.77216,301.85995L689.40497,305.7254L685.92456,303.96896L683.55396,302.33264L684.6158,303.30872L678.4319,300.18915L669.7998,298.6078L667.3578,297.41617L668.39514,297.40805 M727.0705,306.5482L727.1037,306.5744L727.13696,306.60062L727.13696,306.60126L727.1092,306.56982L727.0705,306.5482 M717.524,305.2512L717.23804,305.28082L716.952,305.31042L720.762,308.30634Q719.143,306.77878,717.524,305.2512 M714.8547,305.5277L716.71545,307.23004L718.5763,308.93237Q716.4594,307.25656,714.3425,305.58075L714.8547,305.5277 M584.3828,295.7575L583.8966,296.1123L565.0551,304.6271L570.3894,304.73428L569.79443,306.20474L559.36194,308.3905L563.67865,305.24915L558.6376,307.52725L557.2571,308.83136L557.1312,308.85706L556.438,309.23224L562.21594,304.57004L564.5476,304.61755L570.49786,300.28766L584.3828,295.7575 M546.31635,299.9974L544.4192,300.85132L542.522,301.70523Q536.5165,306.00232,530.5109,310.29938L538.1676,305.8408L546.31635,299.9974 M530.5109,310.29938L526.49194,312.63965L525.44727,313.71127L525.49915,314.34027L527.19653,312.67087L530.5109,310.29938 M702.07434,292.53613L730.2174,315.17932L730.40393,315.22104L717.8064,300.73123L702.07434,292.53613 M552.2207,313.58563L550.56525,315.14862L548.9097,316.71164Q548.3529,316.97473,547.7961,317.23785L548.93994,315.97266L552.2207,313.58563 M525.49915,314.34027L523.1524,316.64835L520.80566,318.95642Q523.2222,317.4944,525.6388,316.03238Q525.569,315.18634,525.49915,314.34027 M528.4302,310.6515L521.2556,316.1533L517.19403,321.1415L519.6554,319.65234L525.44727,313.71194L525.41077,313.26923L526.49194,312.63965L528.4302,310.6515 M535.0357,317.9213L532.55664,320.29355L530.0776,322.6658L532.7986,319.50403L535.0357,317.9213 M727.13696,306.60062L737.58685,318.20578L748.03674,329.81094Q743.1731,322.61075,738.3093,315.41058L727.13696,306.60062 M687.4297,328.3299L688.0882,328.68015L688.7467,329.03036L690.9916,331.4353L689.9259,330.76184L687.4297,328.3299 M528.2373,299.58823L518.38934,305.92856L495.8002,332.21353L513.873,311.7635L530.377,301.02997L528.2373,299.58823 M717.75085,333.5078L718.2439,333.8894L718.73694,334.27103L717.81744,333.62616L717.75085,333.5078 M743.57434,330.36987L746.5851,334.46036L749.5959,338.55084L748.5742,336.12076L743.57434,330.36987 M728.4669,323.7395L729.4113,327.11203L729.38116,327.25098L728.5838,326.4465L732.391,335.4863L735.82166,338.6363L728.4669,323.7395 M517.272,339.37128L516.94794,339.93655L516.91565,339.95685L516.91565,339.95752L517.272,339.37128 M693.9246,322.94348L703.04175,330.72098L712.1588,338.4985L713.1926,340.18298L698.05396,327.5911L693.9246,322.94348 M725.6778,319.07986L731.0993,326.98706L736.5209,334.89426L740.3142,340.3609Q737.63983,334.00583,734.9655,327.65076L725.6778,319.07986 M738.8351,331.8896L741.9419,336.50024L745.0487,341.11087L742.7893,337.28848L738.8351,331.8896 M736.07275,343.28055L736.0797,343.294L736.08655,343.30743L736.08655,343.3081Q736.1576,343.3749,736.22864,343.44168L736.07275,343.28055 M714.2699,344.10986L714.3506,344.2426L714.4313,344.37537L714.2982,344.12952L714.2699,344.10986 M540.2767,335.23724L539.7102,335.52325L539.14374,335.80927Q533.893,340.47098,528.6423,345.13266Q533.371,341.58554,538.0996,338.0384L540.2767,335.23724 M632.3921,351.9629L631.85583,352.05157L631.3196,352.1403L631.3196,352.14096L631.51074,351.9961Q631.9514,351.9795,632.3921,351.9629 M644.3198,351.51373L641.96924,352.5238L639.6001,351.69147L644.3198,351.51373 M611.95526,353.56616L607.2909,356.11508L603.6569,356.7169L605.1998,354.70166L611.95526,353.56616 M769.41235,333.50775L774.0421,346.6339L778.67175,359.7601Q778.01855,356.8545,777.3655,353.94888L769.41235,333.50775 M730.90295,305.65933L747.214,324.83484L756.7201,343.02606L762.98035,356.73514L765.291,359.8744L765.4027,360.19687L764.04047,352.6666L750.40436,328.52997L730.90295,305.65933 M596.8427,360.04034L595.2961,362.0141L595.2104,362.07913L592.25024,364.8331L596.8427,360.04034 M542.61096,332.23407L540.2767,335.23724L545.03894,332.83356L538.0996,338.0384L534.5399,342.61823L532.1879,347.92834L519.95294,363.22845L515.1743,372.02484L516.63605,367.5179L531.6173,346.0403L514.9386,368.50186L526.7636,347.5013L535.55115,336.28287L542.61096,332.23407 M758.2569,360.02972L758.7602,362.3933L763.7752,376.50623L762.2133,368.56006L758.94135,360.77783L758.2569,360.02972 M711.1471,338.9717L714.10425,341.66837L726.37134,361.65588L728.32153,367.22977L714.4313,344.37537L731.1106,375.20044L731.9918,377.71918L724.4874,367.14078L714.05457,344.8577L710.96094,341.8168L714.2699,344.11053L711.1471,338.9717 M763.77527,376.50623L763.876,377.01886L763.97675,377.53152L765.00275,379.96054Q764.389,378.2334,763.77527,376.50623 M759.9573,368.01526L760.71277,371.56366L761.4684,375.11206L764.7077,381.25037Q764.3423,379.39093,763.9767,377.53152L759.9573,368.01526 M514.3668,369.5173L512.8868,374.23883L511.4067,378.96033Q510.62866,380.39258,509.85062,381.82483L511.74637,374.17108L514.3668,369.5173 M498.21262,381.49182L498.10315,381.91095L497.99365,382.33008L497.67297,382.90933L498.21262,381.49182 M765.0027,379.96054L765.6323,381.73224L766.26184,383.5039Q766.1315,382.91394,766.001,382.32397L765.0027,379.96054 M767.03284,388.59375L766.9634,390.1636L766.8939,391.73346L767.2731,392.69165Q767.15295,390.6427,767.03284,388.59375 M576.44086,393.7823L576.36365,394.01428L576.2864,394.2463Q576.27386,394.1649,576.2614,394.08344Q576.35114,393.93286,576.44086,393.7823 M580.30237,387.30334L577.16534,399.97443L576.7289,397.13043L579.73035,388.26312L580.30237,387.30334 M576.8388,387.16998L574.9375,394.57983L573.0362,401.9897L575.3183,389.60004L576.8388,387.16998 M767.2731,392.69165L767.4246,395.27716L767.5762,397.86267L770.0913,403.93585L768.39923,395.53815L767.2731,392.69165 M734.3619,386.83038L735.45996,392.03418L736.5581,397.23795Q736.0829,395.9746,735.60767,394.71124L736.70776,406.17694Q735.5348,396.50366,734.3619,386.83038 M736.56665,380.9254L739.4742,390.15213L742.38165,399.37885L743.5904,407.19153L738.2817,387.7768L736.56665,380.9254 M766.71484,395.78284L766.535,399.8476L766.496,402.98383L768.263,409.57935L767.5762,397.86267L766.71484,395.78284 M464.08853,377.03455L463.9956,379.8428L463.90268,382.65106Q464.21408,385.2483,464.52545,387.84555Q460.0481,400.39633,455.5707,412.94714L464.08853,377.03455 M778.67175,359.7601L785.0654,388.20218L788.3214,417.5738L785.9914,384.01105L783.2163,375.3813L782.76416,371.3626L778.67175,359.7601 M619.2703,418.30756L619.2576,418.55438L619.24493,418.8012L619.2209,418.8896Q619.2456,418.59857,619.2703,418.30756 M739.6614,419.7742L739.7389,420.46918L739.81647,421.16412L739.702,422.13513L739.4638,420.8701L739.6614,419.7742 M631.4786,420.9668L630.738,423.01672L629.99744,425.06668L629.94336,423.60794Q630.71094,422.28735,631.4786,420.9668 M739.14374,422.64563L739.2411,426.04718L739.17993,426.56616Q739.03064,425.33362,738.8812,424.10236L739.14374,422.64563 M778.5669,413.44214L778.7578,420.5514L778.94885,427.66068L779.4484,421.61453Q779.0076,417.52832,778.5669,413.44214 M745.0521,416.63824L745.89636,422.0943L746.74054,427.55032Q746.61975,429.11746,746.499,430.68463L745.0521,416.63824 M632.0757,430.01605L631.1852,431.5475L630.2946,433.07898L630.2147,430.92407Q631.1452,430.47003,632.0757,430.01605 M693.5708,432.51492L693.5916,432.5949L693.6124,432.6749L693.32837,433.40512Q693.4496,432.96002,693.5708,432.51492 M738.4353,426.57507L739.01196,427.9911L738.26855,434.2997Q738.1189,432.7015,737.9693,431.10327Q737.94794,430.2503,737.9265,429.39734L738.4353,426.57507 M740.53906,431.74115L740.96643,432.79056L741.0206,433.53308L740.4332,436.9005L740.24243,435.3275L740.61285,433.8894Q740.576,432.8153,740.53906,431.74115 M627.7694,430.16965L629.1317,431.04794L629.48035,434.47925L626.5009,439.60382L627.7694,430.16965 M776.3998,431.04816L776.0762,433.1277L775.7526,435.20724Q775.3268,440.24182,774.9008,445.2764Q775.83704,442.33508,776.7733,439.3938L776.3998,431.04816 M734.42255,447.20786L734.41956,447.22717L734.41656,447.24646Q734.4041,447.28583,734.39166,447.3252Q734.4071,447.26654,734.42255,447.20786 M739.5801,437.8982L739.7946,445.39496L740.00916,452.89166Q739.4372,446.7824,738.86523,440.67322Q739.22266,439.2857,739.5801,437.8982 M566.5382,462.5687L566.8303,463.6805L567.1225,464.79297Q566.9592,464.6781,566.79596,464.56323Q566.66705,463.56598,566.5382,462.5687 M570.64355,466.4624L571.1926,467.24713L571.7417,468.03186L570.8225,467.38718Q570.73303,466.92477,570.64355,466.4624 M783.23596,425.43262L780.7224,430.34763L779.3574,442.86905L779.5189,448.88452L778.2997,452.5709L777.72595,457.8333L776.1507,469.35822L780.1085,457.57172L782.4822,454.88245L783.23596,425.43262 M465.79697,411.5567L462.64362,432.6883L462.88596,440.75885L470.10715,470.41122L467.14536,453.17462L464.43805,434.66058L465.79697,411.5567 M561.938,465.5805L563.3273,467.31766L564.4266,470.70044L563.4049,469.99866L561.938,465.5805 M567.88904,473.0218L567.9396,473.08496L567.99005,473.14813L567.8972,473.0843L567.88904,473.0218 M567.462,469.7173L568.71686,470.85962L569.6107,474.2613L568.47485,473.4811L567.83154,472.5769L567.462,469.7173 M574.6262,476.2389L574.91504,476.50174L575.20386,476.76465L575.9895,478.6427L575.6225,478.39056L574.6262,476.2389 M499.22607,478.6328L499.25397,478.69025L499.25397,478.69092L499.26202,478.73727L499.26202,478.73795L499.22607,478.6328 M465.21918,463.1967L469.4066,472.53757L473.594,481.87845Q473.65155,481.93597,473.7091,481.99347L465.21918,463.1967 M762.14777,461.08984L760.49176,465.19836L755.10846,476.58038L753.3965,482.2959L755.68604,482.94513L762.14777,461.08984 M721.70764,475.75824L720.57245,478.3588L719.43726,480.95935L716.1644,486.77045Q718.93604,481.26434,721.70764,475.75824 M778.94885,427.66064L776.5117,457.15356L771.08514,471.4723L765.0852,488.82678L767.5061,485.20425L778.2997,452.5709L779.35736,442.86905L778.94885,427.66064 M500.07874,475.8471L504.0057,483.17963L507.93268,490.51215Q506.6993,488.94458,505.46594,487.37695L500.07874,475.8471 M568.53625,491.4696L575.18945,497.66663L573.9335,497.55426L570.08923,494.02853L568.53625,491.4696 M566.71,479.9521L567.56805,480.367L569.8507,487.39093L578.1332,497.93002L577.3611,497.86157L570.0668,490.06055L566.71,479.9521 M576.62274,495.28125L578.1421,496.7744L579.10254,498.01675L578.6461,497.9766L576.62274,495.28125 M597.0526,497.97424L599.8389,499.44507L598.19556,499.7073L597.0526,497.97424 M580.3546,499.71777L580.3911,499.72427L580.4276,499.73077L580.4276,499.73145L580.4844,499.8042L580.4844,499.80487L580.3546,499.71777 M765.0852,488.8261L763.3304,491.45157L761.5755,494.07703Q761.10114,497.8994,760.6267,501.7218Q762.85596,495.27396,765.0852,488.8261 M602.1904,501.37286L603.09875,502.47217L602.58295,502.50116L599.6213,501.86807L599.61237,501.8539L602.1904,501.37286 M507.93774,497.92212L508.9214,499.16754L511.074,503.899L507.93774,497.92212 M746.0519,483.7691L734.04016,504.31952L732.82825,504.9159L735.09094,500.3425L746.0519,483.7691 M585.9171,507.65887L588.20215,509.7873L589.9723,512.0776L589.65955,511.97766L588.0552,510.50616L585.9171,507.65887 M744.22925,512.34827L744.06494,512.5996L743.90063,512.8509Q743.9584,512.8011,744.01605,512.7512L744.01605,512.75183L744.22925,512.34827 M518.5426,512.00757L519.1158,512.4039L519.6889,512.8002L519.813,512.9574Q519.1778,512.4825,518.5426,512.00757 M731.71924,517.8015L730.4984,519.1954L730.329,519.292L730.21924,519.09485L731.71924,517.8015 M759.1907,484.08344L744.22925,512.34827L754.2919,496.96033L749.9697,507.60742L744.01605,512.7512L741.2954,517.891L739.631,519.3801L743.90063,512.85095L742.33795,514.20105L759.1907,484.08344 M719.36206,523.4719L718.74146,524.27203L718.1209,525.0722Q718.07446,525.09717,718.02795,525.1222L719.36206,523.4719 M536.8568,525.7004L538.99915,526.7711L539.2837,527.0847L537.2835,526.0193L536.8568,525.7004 M720.1666,527.7632L718.3092,529.5951L716.4518,531.427Q716.0167,531.5719,715.5816,531.7168Q717.87415,529.74,720.1666,527.7632 M540.6878,531.4139L546.5042,535.0423L546.6597,535.21356L540.71313,531.44666L540.6878,531.4139 M680.9074,537.00287L668.3873,543.5587L673.0562,540.79785L680.9074,537.00287 M737.6062,511.07913L734.07623,515.11L735.5444,512.56915L729.6909,518.1443L728.5917,516.1673L728.2333,516.4993L728.03436,518.5289L722.7469,524.75806L715.3651,531.7895L711.6344,533.0309L710.9791,533.84143L711.57837,533.04956L708.99304,533.9103L703.55194,537.4812L694.801,544.4752L707.1927,538.95044L714.094,532.9995L712.15857,534.84283L726.7819,523.4391L720.8179,530.24945L724.40344,527.7942L719.0273,534.2452L731.19214,520.0L733.1372,518.4966L738.0229,512.24725L737.6062,511.07913 M785.99567,475.31186L771.4105,507.91754L764.09717,519.8156L763.5879,526.2916L745.03723,545.54944L750.13367,543.07025L770.2831,520.68024L781.59485,503.26776L776.6837,508.4497L785.99567,475.31186 M689.60913,541.9237L688.7587,542.73096L682.9814,545.6268L681.6863,545.7152L689.60913,541.9237 M491.50095,529.9726L492.3164,532.75616L493.1319,535.53973L506.41803,547.34216Q505.92923,546.1859,505.44046,545.02966Q498.4707,537.50116,491.50095,529.9726 M656.88184,546.4977L661.2392,547.7092L658.5626,548.82477L656.3649,548.26355L653.7177,548.292L652.69104,547.9746L656.88184,546.4977 M561.84216,551.86084L561.9224,551.89636L562.00275,551.9319L562.00275,551.93256L562.0015,551.9305L561.84216,551.86084 M672.43835,550.9094L666.8252,553.72235L660.56793,553.6498L662.7234,552.90906L672.43835,550.9094 M645.21,551.6841L649.786,552.268L643.55444,553.7892L637.37244,553.37354L641.3325,551.97736L645.21,551.6841 M742.84937,535.16675L740.84644,536.1587L738.8434,537.1507L716.6029,557.7533Q729.72614,546.46,742.84937,535.16675 M785.52966,508.88647L778.2946,518.6221L771.0595,528.3576L742.2075,557.9028L765.30554,537.5757L785.52966,508.88647 M646.13043,558.61115L646.1875,558.61444L646.2446,558.6178L646.2446,558.6184Q646.1556,558.62573,646.0665,558.6331L646.0665,558.6338L646.13043,558.61115 M742.2075,557.90283L741.58905,558.447L740.9706,558.9912Q741.16846,558.8777,741.3662,558.7642Q741.78687,558.3335,742.2075,557.90283 M473.7091,481.99347L480.69458,497.45935L504.8767,529.1414L523.7055,546.7893L540.25916,557.5945L547.19006,559.68286L535.1695,551.504L524.91003,542.0576L515.4342,536.26215L488.63388,505.00278L474.88977,483.17352L473.7091,481.99347 M560.3635,550.0389L562.0015,551.9305L568.7831,554.89374L568.532,554.82074L562.00275,551.9319L562.0788,552.0204L566.4756,554.2228L563.1488,553.2554L564.2055,554.4757L579.37683,560.3061L581.61786,560.61053L576.9558,558.5486L577.10376,558.5296L581.9785,560.66034L583.2886,560.838L578.7134,558.3315L580.03973,558.16705L576.5774,557.1609L573.3985,555.41815L560.3635,550.0389 M599.7979,563.05176L599.9914,563.1124L599.9914,563.11316L599.60425,563.05975L599.60425,563.0604Q599.70105,563.0561,599.7979,563.05176 M600.07874,563.04016L625.4962,563.81903L627.14355,563.9825L611.32324,564.6555L601.46643,563.3133L600.0074,563.0438L600.07874,563.04016 M532.36646,535.69037L558.9892,552.04584L563.1488,553.25604L562.0788,552.0198L547.67334,544.8019L560.3635,550.0389L557.45654,546.68176L573.3985,555.4188L580.03973,558.1677L594.4535,562.3584L583.2886,560.838L586.83716,562.7827L581.9785,560.65967L581.6178,560.61053L591.1721,564.8385L579.3768,560.3054L573.3043,559.4785L545.0005,545.25714L532.36646,535.69037 M699.614,557.4232L685.7308,563.8136L685.03424,565.1562L673.5414,566.96985L677.2864,564.4364L686.101,561.8025L687.9275,560.7335L699.614,557.4232 M717.09863,563.3711L708.35767,566.973L699.61664,570.57495L705.27997,568.96655Q711.18933,566.1688,717.09863,563.3711 M594.1478,565.98126L632.684,573.437L644.05963,575.08374L635.32104,576.3003L604.7899,570.07056L594.1478,565.98126 M740.9706,558.9912L725.2739,567.99854L709.57733,577.00586L732.8705,566.1196L740.9706,558.9912 M608.2216,273.41983L584.8917,282.56482Q583.86816,281.43948,555.6343,293.31558L546.31635,299.9974L554.62396,296.25818Q534.2626,307.53198,529.52136,312.04102L504.62482,338.45526L520.80566,318.95642L512.0755,327.42758L517.19403,321.1415L513.06366,322.43536L534.4303,304.4967L528.4302,310.6515L536.64935,304.34848Q540.4873,303.94046,552.4641,294.5915L545.28375,297.48148L548.29254,293.27826L532.65576,303.57034L508.71832,325.9942L489.9788,352.02203L473.7894,392.221L484.69193,358.7615L482.86526,358.45752L478.23627,367.6103L471.2437,393.22217L466.5727,425.6969L470.12036,460.44666L484.70447,492.17355L504.69867,521.0354L530.1227,544.7689L560.43933,563.0958L594.0991,573.9822L628.352,577.04126Q612.78656,577.9706,591.7681,576.5596L628.7567,579.08606L659.96655,576.5677L665.381,573.7991L708.56744,559.6205L738.8434,537.1507L762.70886,515.0427L775.1079,489.19092L746.67126,524.0788L721.36597,546.86975L714.60925,548.107L733.4837,535.01105L747.04944,522.06323Q749.24207,517.1229,747.6915,517.232L744.0387,520.3136L761.57544,494.07703L772.77344,464.06165L776.0123,449.4892L774.4493,450.6148L774.9009,445.27643L773.50165,449.6723L775.7526,435.20724L776.29755,428.76434L776.39966,431.0482L777.6188,423.2143Q776.2087,414.96146,776.6038,395.24384L778.56683,413.44214L778.12305,396.92072L776.12036,390.7616L776.1795,391.3095L765.4027,360.19687L765.95496,363.24872L762.98035,356.73514L749.5958,338.55084L758.9413,360.77783L761.1606,363.2038L766.001,382.32397L774.92346,401.94934L775.3903,408.4938L773.01776,413.30353L771.44214,433.3871Q771.9219,417.26575,768.263,409.57935L768.90564,420.54254L764.4256,453.38556L762.14777,461.08984L768.1551,446.18564L757.57007,479.40668L760.0492,475.6351L771.2375,435.99652L770.80383,441.5234L761.0924,475.93005L743.7728,509.65747L748.102,499.35492L738.0229,512.24725L738.7433,514.26685L733.1372,518.4966L724.5102,529.53156Q717.22437,536.53094,716.52155,535.15546L720.8179,530.2495L697.5744,546.1658L688.30695,548.906L710.5053,531.9238Q712.9971,531.1098,714.42065,529.2932L711.6344,533.0309L715.3575,528.4254L728.2332,516.4994L728.3146,515.6689L728.5917,516.1673L739.07776,506.45465L735.5444,512.56915Q736.6913,512.5561,741.49786,506.63528L752.7642,482.7697L749.552,488.32855Q753.8302,484.249,763.2213,449.49512L766.1482,430.92163L766.496,402.98383L761.78864,385.4134Q764.6332,389.99402,766.71484,395.78284L766.8939,391.73346L754.8601,361.31714L749.2051,356.05588L735.4596,337.16464L738.0623,347.1583L735.4194,342.67657Q734.9854,342.1198,736.07275,343.28055Q735.232,342.7053,732.391,335.4863Q725.3021,330.4389,716.35065,317.83493L699.1594,304.40472L699.92505,303.6548L683.7981,294.5428L682.6206,296.05923L676.0862,294.6869L644.5112,285.94482L642.092,284.58707L632.82404,283.37924L612.9889,286.07086L628.608,282.8298L616.74243,281.28345L630.13293,279.44827Q642.713,283.50183,643.4806,281.81073L631.1079,279.31464L635.5278,278.7089L677.16864,288.37195L715.9479,310.10098L725.6778,319.07986L724.8056,315.51126L738.8351,331.8896L731.06323,320.356L734.80273,323.77695Q741.83386,337.2876,752.68665,350.80182L759.9572,368.01526L758.76025,362.3933L755.0248,351.8814L736.6997,322.46265L743.57434,330.36987L732.47797,315.685Q728.45026,313.93475,732.23706,317.32965L720.76196,308.30634L732.93677,319.79352L728.3773,316.6914L714.93134,305.51974L716.952,305.31042L702.5749,294.00516L660.84265,275.98248L608.2216,273.41983 M699.61664,570.57495L667.27997,579.7585L655.78064,582.943L655.70667,583.77374L684.23285,579.62714L677.2409,579.79535L699.61664,570.57495 M578.12946,573.4614L577.7198,574.18176L577.3102,574.902L611.85535,585.19116L615.3802,584.5155L578.12946,573.4614 M590.1288,263.94226L576.37854,265.2157L548.2854,277.343L517.74194,296.24582L510.69855,298.99136L485.91074,327.32288L495.3298,313.73633Q479.35724,331.6659,473.3969,341.72858L462.139,370.31024L451.92368,409.84702L450.06628,450.94324L455.685,466.61908L456.81067,464.8603L455.3228,454.8261L464.35577,479.1548L479.52194,506.04526L500.82767,535.3079Q472.21628,499.45538,468.51025,492.2492L489.15582,523.2999L511.95502,547.30334Q525.84045,556.0693,539.96094,566.5936L566.68054,578.1179L600.1627,587.167L606.99426,587.7785L586.4205,582.70624L550.4562,570.1311L517.0157,548.21515L491.19623,521.6177L487.95663,516.31116L515.0047,544.93176L542.7404,563.42303L521.22656,548.3026L495.22516,523.5366L481.31186,503.45685L463.79367,470.54706L457.5486,428.77002L462.52432,399.83936L468.61444,375.94867L486.58823,337.5443L493.43958,329.3038L474.06146,364.42657L465.6626,389.03836L476.5216,366.46027L474.23526,368.13815L488.85568,337.95782L517.5912,304.59894L544.09717,289.18848L576.4429,274.38208L547.1051,285.42767L574.1299,274.00027L605.5653,267.68643L638.438,269.5646L639.8837,268.57452L656.7723,272.32016L641.1622,267.06506L610.27985,264.88116Q573.452,268.6766,568.16437,270.78946L590.1288,263.94226 M689.556,587.5443L685.9069,588.1456L646.18475,593.406L610.42706,595.182L653.6197,594.24524L678.1468,589.986L688.39404,588.7162L689.556,587.5443 M673.1029,595.9208L632.3538,599.9546L652.3397,599.2481L660.3628,598.80536L673.1029,595.9208 M632.3538,599.9546L631.6498,599.9795L630.94574,600.0044Q630.94574,600.0047,630.94574,600.005L631.4853,600.0406Q631.91956,599.99756,632.3538,599.9546 M573.7604,594.9516L612.7268,600.64844L630.94574,600.0044L593.467,597.4902L573.7604,594.9516" style="fill: inherit;"/></g></g></svg>